<svg xmlns="http://www.w3.org/2000/svg" viewBox="1125 861.065 16 15.985"><defs><style>.a{fill:#ff003d;}</style></defs><path class="a" d="M15.535,13.57a1.372,1.372,0,0,1,0,1.965,1.409,1.409,0,0,1-1.965,0L7.95,9.915l-5.62,5.62a1.344,1.344,0,0,1-.983.4,1.344,1.344,0,0,1-.983-.4,1.372,1.372,0,0,1,0-1.965l5.62-5.62L.365,2.33a1.372,1.372,0,0,1,0-1.965,1.372,1.372,0,0,1,1.965,0l5.62,5.62L13.57.365a1.372,1.372,0,0,1,1.965,0,1.372,1.372,0,0,1,0,1.965L9.915,7.95Z" transform="translate(1125.05 861.115)"/></svg>