<svg xmlns="http://www.w3.org/2000/svg" width="45" height="40" viewBox="0 0 45 40">
  <defs>
    <style>
      .cls-1 {
        fill: #00A2FF;
        fill-rule: evenodd;
      }
    </style>
  </defs>
  <path id="date_blue" class="cls-1" d="M3340.34,1939.14h-5.43v-1.57a1.55,1.55,0,1,0-3.1,0v1.57h-18.62v-1.57a1.55,1.55,0,1,0-3.1,0v1.57h-5.43a4.686,4.686,0,0,0-4.66,4.7v27.45a4.688,4.688,0,0,0,4.66,4.71h35.68a4.688,4.688,0,0,0,4.66-4.71v-27.45A4.686,4.686,0,0,0,3340.34,1939.14Zm-35.68,3.13h5.43v1.57a1.55,1.55,0,1,0,3.1,0v-1.57h18.62v1.57a1.55,1.55,0,1,0,3.1,0v-1.57h5.43a1.571,1.571,0,0,1,1.56,1.57v4.71h-38.8v-4.71A1.571,1.571,0,0,1,3304.66,1942.27Zm35.68,30.59h-35.68a1.564,1.564,0,0,1-1.56-1.57v-19.6h38.8v19.6A1.564,1.564,0,0,1,3340.34,1972.86Z" transform="translate(-3300 -1936)"/>
</svg>
