<svg xmlns="http://www.w3.org/2000/svg" viewBox="943 1454 13 11.581"><path d="M12.407,11.581H.543A.606.606,0,0,1,.049,11.3a.575.575,0,0,1,0-.565L5.981.282A.542.542,0,0,1,6.475,0a.57.57,0,0,1,.494.282L12.9,10.733a.575.575,0,0,1,0,.565A.606.606,0,0,1,12.407,11.581ZM1.518,10.451h9.928L6.475,1.709ZM7.04,7.075V4.449a.565.565,0,1,0-1.13,0V7.075a.565.565,0,0,0,1.13,0ZM6.969,9.42a.719.719,0,0,0,.212-.494.662.662,0,0,0-.212-.494.719.719,0,0,0-.494-.212.662.662,0,0,0-.494.212.719.719,0,0,0-.212.494.662.662,0,0,0,.212.494.683.683,0,0,0,.989,0Z" transform="translate(943.025 1454)"/></svg>