<svg xmlns="http://www.w3.org/2000/svg" viewBox="941.25 873.451 15.194 12.882"><defs><style>.a{fill:#00a2ff;}</style></defs><g transform="translate(10 135)"><path class="a" d="M15.194,6.441A6.415,6.415,0,0,1,5.153,11.759a.664.664,0,0,1,.76-1.09A5.127,5.127,0,1,0,3.7,6.259L5.235,4.707a.666.666,0,0,1,.941.941L3.65,8.175a.652.652,0,0,1-.462.2.6.6,0,0,1-.462-.2L.2,5.632a.658.658,0,0,1,0-.941.658.658,0,0,1,.941,0L2.395,5.962a6.408,6.408,0,0,1,12.8.479ZM8.753,2.692a.663.663,0,0,0-.661.661V6.441a.614.614,0,0,0,.215.462l1.42,1.42a.661.661,0,0,0,.479.2.625.625,0,0,0,.462-.2.658.658,0,0,0-.017-.941L9.414,6.16V3.353A.663.663,0,0,0,8.753,2.692Z" transform="translate(931.25 738.451)"/></g></svg>