<svg xmlns="http://www.w3.org/2000/svg" viewBox="1538 2194 15 15">
  <defs>
    <style>
      .cls-1 {
        fill: #bfc5ce;
        fill-rule: evenodd;
      }
    </style>
  </defs>
  <path id="iconMedikamente" class="cls-1" d="M2749.5,1416a7.5,7.5,0,1,0,7.5,7.5A7.5,7.5,0,0,0,2749.5,1416Zm0,14.318a6.818,6.818,0,1,1,6.818-6.818,6.818,6.818,0,0,1-6.818,6.818Zm3.406-8.182h-2.042v-2.047a.68.68,0,0,0-.682-.677h-1.365a.68.68,0,0,0-.682.677v2.047h-2.047a.685.685,0,0,0-.682.682v1.365a.685.685,0,0,0,.682.682h2.047v2.042a.681.681,0,0,0,.682.682h1.365a.681.681,0,0,0,.682-.682v-2.042h2.042a.681.681,0,0,0,.682-.682v-1.365a.681.681,0,0,0-.682-.682Zm0,2.047h-2.724v2.724h-1.365v-2.724h-2.729v-1.365h2.729v-2.729h1.365v2.729h2.724Z" transform="translate(-1204 778)"/>
</svg>
