<svg xmlns="http://www.w3.org/2000/svg" viewBox="2189.72 2306 14 14">
  <defs>
    <style>
      .cls-1 {
        fill: #fcfcfc;
        fill-rule: evenodd;
      }
    </style>
  </defs>
  <path id="iconDozation-white" class="cls-1" d="M2742.922,1490.29l-.632-.633,1.091-1.092.633.628Zm9.808-9.807-.633-.633,2.152-2.152.628.633Zm2.927-1.332-2.228-2.228.633-.633,2.228,2.228Zm-7.6,9.147-.628-.628,4.933-4.932-2.522-2.522-4.933,4.933-.628-.628,5.561-5.565,3.783,3.783Zm-2.085-2.736-.74-.74.628-.628.74.735Zm1.337-1.337-.74-.74.628-.628.739.735Zm1.336-1.337-.739-.74.628-.628.74.735Zm-2.478,6.193a2.673,2.673,0,0,1-1.889-4.563l.628.628a1.783,1.783,0,0,0,2.522,2.522l.628.628A2.671,2.671,0,0,1,2746.17,1489.082Z" transform="translate(-552.57 829.71)"/>
</svg>
