<svg xmlns="http://www.w3.org/2000/svg" width="15" height="17" viewBox="0 0 15 17">
  <defs>
    <style>
      .cls-1 {
        fill: #1b346f;
        fill-rule: evenodd;
      }
    </style>
  </defs>
  <path id="abmelden" class="cls-1" d="M60,542.446a0.582,0.582,0,0,0-.176-0.418l-4.606-4.6a0.588,0.588,0,0,0-.831,0,0.582,0.582,0,0,0,0,.826l3.608,3.6H49.312a0.592,0.592,0,0,0,0,1.184h8.683l-3.608,3.6a0.586,0.586,0,0,0,.831.827l4.605-4.6A0.584,0.584,0,0,0,60,542.446Zm-5.256,7.37H46.816a0.668,0.668,0,0,1-.636-0.629V535.705a0.668,0.668,0,0,1,.636-0.629h7.928a0.54,0.54,0,1,0,0-1.076H46.816A1.764,1.764,0,0,0,45,535.705v13.482A1.856,1.856,0,0,0,46.816,551h7.928A0.592,0.592,0,0,0,54.744,549.816Z" transform="translate(-45 -534)"/>
</svg>
