<svg xmlns="http://www.w3.org/2000/svg" xmlns:xlink="http://www.w3.org/1999/xlink" width="16" height="20" viewBox="0 0 16 20">
  <defs>
    <style>
      .cls-1 {
        fill: #a7a7a7;
        fill-rule: evenodd;
        filter: url(#filter);
      }
    </style>
    <filter id="filter" x="553" y="193" width="16" height="20" filterUnits="userSpaceOnUse">
      <feFlood result="flood" flood-color="#5f6167"/>
      <feComposite result="composite" operator="in" in2="SourceGraphic"/>
      <feBlend result="blend" in2="SourceGraphic"/>
    </filter>
  </defs>
  <path id="alter" class="cls-1" d="M559.405,203.681v-3.76c0-.7.168-0.91,0.739-0.91,0.6,0,1.2,0,1.8,0,0.454,0,.642.241,0.644,0.817,0,1.263,0,2.527,0,3.851h0.372c1.134,0,2.268,0,3.4,0,1.375,0,2.628,1.563,2.63,3.279s0,3.447,0,5.17c0,0.65-.177.867-0.7,0.867q-7.291,0-14.581,0c-0.543,0-.712-0.215-0.712-0.9q0-2.564,0-5.128c0-1.719,1.252-3.282,2.625-3.286C556.869,203.679,558.113,203.681,559.405,203.681Zm8.525,4.683a8.694,8.694,0,0,1-.867.384,4.621,4.621,0,0,1-4.049-.5,3.778,3.778,0,0,0-1.921-.6,4.1,4.1,0,0,0-2.3.7,4.187,4.187,0,0,1-3.081.57c-0.552-.107-1.092-0.314-1.638-0.477v3.222h13.86v-3.3ZM561,204.993c-1.767,0-3.534,0-5.3,0a1.611,1.611,0,0,0-1.6,1.607,0.488,0.488,0,0,0,.144.366,3.8,3.8,0,0,0,4.345.077,4.349,4.349,0,0,1,4.818,0,3.816,3.816,0,0,0,4.346-.072,0.485,0.485,0,0,0,.15-0.364A1.612,1.612,0,0,0,566.3,205C564.535,204.988,562.768,204.993,561,204.993Zm-0.524-4.652v3.315h1.036v-3.315h-1.036Zm2.248-4.362a2.4,2.4,0,0,1-1.243,2.236,1.522,1.522,0,0,1-1.871-.848,2.377,2.377,0,0,1-.006-2.438c0.135-.236.314-0.433,0.447-0.67a3.888,3.888,0,0,0,.347-0.771c0.122-.4.475-0.637,0.779-0.38A3.978,3.978,0,0,1,562.725,195.979Zm-1.583-1.247c-0.249.33-.483,0.608-0.684,0.919a1.109,1.109,0,0,0,0,1.089,0.667,0.667,0,0,0,.831.217,0.79,0.79,0,0,0,.387-0.831A2.3,2.3,0,0,0,561.142,194.732Z" transform="translate(-553 -193)"/>
</svg>
