<svg xmlns="http://www.w3.org/2000/svg" width="18" height="20" viewBox="0 0 18 20">
  <defs>
    <style>
      .cls-1 {
        fill: #5f6167;
        fill-rule: evenodd;
      }
    </style>
  </defs>
  <path id="aufnahme" class="cls-1" d="M326.034,280.392h-2.4v-4.1a0.672,0.672,0,1,0-1.344,0v4.827a0.664,0.664,0,0,0,.69.641h3.057A0.683,0.683,0,0,0,326.034,280.392Zm3.689,7.8a0.615,0.615,0,0,0-.911,0,0.727,0.727,0,0,0,0,.976L329.4,289.8a0.615,0.615,0,0,0,.911,0,0.725,0.725,0,0,0,0-.975Zm-13.248,0-0.59.632a0.725,0.725,0,0,0,0,.975,0.615,0.615,0,0,0,.911,0l0.589-.631a0.727,0.727,0,0,0,0-.976A0.614,0.614,0,0,0,316.475,288.191ZM332,280.372a9.165,9.165,0,0,0-1.941-5.655,2.87,2.87,0,0,0,.763-1.959A2.674,2.674,0,0,0,328.248,270a2.6,2.6,0,0,0-2.383,1.717,8.85,8.85,0,0,0-5.557-.06A2.593,2.593,0,0,0,317.95,270a2.674,2.674,0,0,0-2.575,2.758,2.882,2.882,0,0,0,.658,1.839A9.174,9.174,0,0,0,314,280.372,9,9,0,1,0,332,280.372Zm-3.752-8.993a1.338,1.338,0,0,1,1.287,1.379,1.435,1.435,0,0,1-.371.968,9.038,9.038,0,0,0-2.1-1.5A1.3,1.3,0,0,1,328.248,271.379Zm-10.3,0a1.29,1.29,0,0,1,1.151.762,9.027,9.027,0,0,0-2.154,1.478,1.443,1.443,0,0,1-.284-0.861A1.337,1.337,0,0,1,317.95,271.379ZM323,288.141a7.77,7.77,0,1,1,7.656-7.769A7.723,7.723,0,0,1,323,288.141Z" transform="translate(-314 -270)"/>
</svg>
