<svg xmlns="http://www.w3.org/2000/svg" xmlns:xlink="http://www.w3.org/1999/xlink" width="16" height="19" viewBox="0 0 16 19">
  <defs>
    <style>
      .cls-1 {
        fill: #a7a7a7;
        fill-rule: evenodd;
        filter: url(#filter);
      }
    </style>
    <filter id="filter" x="316" y="240" width="16" height="19" filterUnits="userSpaceOnUse">
      <feFlood result="flood" flood-color="#5f6167"/>
      <feComposite result="composite" operator="in" in2="SourceGraphic"/>
      <feBlend result="blend" in2="SourceGraphic"/>
    </filter>
  </defs>
  <path id="aufnagmegrund" class="cls-1" d="M331.024,254l-4.478,4.32-0.085-.033v-3.448a1.21,1.21,0,0,1,1.231-1.187h3.183C330.946,253.824,330.952,253.836,331.024,254Zm-0.87-13.41V240H317.846A1.814,1.814,0,0,0,316,241.781v15.438A1.814,1.814,0,0,0,317.846,259h8.105a1.881,1.881,0,0,0,1.3-.522l4.2-4.054a1.75,1.75,0,0,0,.54-1.26V241.781A1.814,1.814,0,0,0,330.154,240v1.187a0.607,0.607,0,0,1,.615.594v11.383a0.585,0.585,0,0,1-.18.42l-4.2,4.054a0.622,0.622,0,0,1-.435.174h-8.105a0.606,0.606,0,0,1-.616-0.593V241.781a0.607,0.607,0,0,1,.616-0.594h12.308v-0.593Zm-11.693,12.468h6.154v-1.187h-6.154m0-1.188h11.077V249.5H318.461m0,5.937h6.154V254.25h-6.154m8.615-9.5h-2.461v-2.375h-1.231v2.375h-2.461v1.187h2.461v2.375h1.231v-2.375h2.461V244.75Z" transform="translate(-316 -240)"/>
</svg>
