<svg xmlns="http://www.w3.org/2000/svg" width="22" height="24" viewBox="0 0 22 24">
  <defs>
    <style>
      .cls-1 {
        fill: #00a2ff;
        fill-rule: evenodd;
      }
    </style>
  </defs>
  <path id="btn-hamburger" class="cls-1" d="M3357,51.946a1.965,1.965,0,0,1-1.98,1.946h-18.05a1.946,1.946,0,1,1,0-3.892h18.05A1.965,1.965,0,0,1,3357,51.946Zm-20.03,12h10.26a1.946,1.946,0,1,0,0-3.892h-10.26A1.946,1.946,0,1,0,3336.97,63.946Zm14.48,6.162h-14.48a1.946,1.946,0,1,0,0,3.892h14.48A1.946,1.946,0,1,0,3351.45,70.108Z" transform="translate(-3335 -50)"/>
</svg>
