<svg xmlns="http://www.w3.org/2000/svg" width="17" height="17" viewBox="0 0 17 17">
  <defs>
    <style>
      .cls-1 {
        fill: #1b346f;
        fill-rule: evenodd;
      }
    </style>
  </defs>
  <path id="einstellungen" class="cls-1" d="M50.5,467.31a3.811,3.811,0,1,1,3.811-3.81A3.814,3.814,0,0,1,50.5,467.31Zm0-6.448a2.638,2.638,0,1,0,2.639,2.638A2.641,2.641,0,0,0,50.5,460.862Zm0-5.276M51.086,472H49.914a1.468,1.468,0,0,1-1.466-1.466v-0.612a6.678,6.678,0,0,1-1.039-.43l-0.432.433a1.467,1.467,0,0,1-2.073,0l-0.829-.829a1.468,1.468,0,0,1,0-2.073l0.433-.433a6.662,6.662,0,0,1-.428-1.039H43.465A1.467,1.467,0,0,1,42,464.086v-1.172a1.467,1.467,0,0,1,1.465-1.466H44.08a6.662,6.662,0,0,1,.428-1.039l-0.433-.433a1.467,1.467,0,0,1,0-2.072l0.829-.829a1.467,1.467,0,0,1,2.073,0l0.432,0.432a6.657,6.657,0,0,1,1.039-.429v-0.613A1.467,1.467,0,0,1,49.914,455h1.172a1.467,1.467,0,0,1,1.466,1.465v0.613a6.674,6.674,0,0,1,1.039.429l0.432-.432a1.466,1.466,0,0,1,2.073,0l0.829,0.829a1.466,1.466,0,0,1,0,2.072l-0.433.433a6.662,6.662,0,0,1,.427,1.039h0.615A1.467,1.467,0,0,1,59,462.914v1.172a1.467,1.467,0,0,1-1.466,1.465H56.919a6.622,6.622,0,0,1-.427,1.039l0.433,0.433a1.467,1.467,0,0,1,0,2.073l-0.829.829a1.466,1.466,0,0,1-2.073,0l-0.432-.433a6.678,6.678,0,0,1-1.039.43v0.612A1.468,1.468,0,0,1,51.086,472Zm-3.777-3.822a0.588,0.588,0,0,1,.3.085,5.532,5.532,0,0,0,1.56.645,0.587,0.587,0,0,1,.447.57v1.056a0.293,0.293,0,0,0,.293.293h1.172a0.293,0.293,0,0,0,.294-0.293v-1.056a0.587,0.587,0,0,1,.447-0.57,5.526,5.526,0,0,0,1.561-.645,0.585,0.585,0,0,1,.719.086l0.747,0.747a0.292,0.292,0,0,0,.414,0l0.829-.829a0.294,0.294,0,0,0,0-.415l-0.746-.746a0.586,0.586,0,0,1-.087-0.719,5.521,5.521,0,0,0,.644-1.561,0.586,0.586,0,0,1,.569-0.447h1.059a0.293,0.293,0,0,0,.293-0.293v-1.172a0.294,0.294,0,0,0-.293-0.294H56.475a0.585,0.585,0,0,1-.569-0.446,5.521,5.521,0,0,0-.644-1.561,0.586,0.586,0,0,1,.087-0.719l0.746-.747a0.293,0.293,0,0,0,0-.414l-0.829-.829a0.292,0.292,0,0,0-.414,0l-0.747.746a0.585,0.585,0,0,1-.719.086,5.526,5.526,0,0,0-1.561-.645,0.586,0.586,0,0,1-.447-0.57v-1.056a0.294,0.294,0,0,0-.294-0.293H49.914a0.294,0.294,0,0,0-.293.293v1.056a0.586,0.586,0,0,1-.447.57,5.532,5.532,0,0,0-1.56.645,0.585,0.585,0,0,1-.719-0.086l-0.746-.746a0.292,0.292,0,0,0-.414,0l-0.83.829a0.293,0.293,0,0,0,0,.414l0.747,0.747a0.586,0.586,0,0,1,.086.719,5.506,5.506,0,0,0-.643,1.561,0.586,0.586,0,0,1-.569.446H43.465a0.294,0.294,0,0,0-.293.294v1.172a0.293,0.293,0,0,0,.293.293h1.059a0.587,0.587,0,0,1,.569.447,5.53,5.53,0,0,0,.643,1.561,0.586,0.586,0,0,1-.086.719l-0.747.746a0.3,0.3,0,0,0,0,.415l0.83,0.829a0.292,0.292,0,0,0,.414,0l0.746-.747A0.585,0.585,0,0,1,47.308,468.178Z" transform="translate(-42 -455)"/>
</svg>
