<?xml version="1.0" encoding="iso-8859-1"?>
<!-- Generator: Adobe Illustrator 19.0.0, SVG Export Plug-In . SVG Version: 6.00 Build 0)  -->
<svg version="1.1" id="Capa_1" xmlns="http://www.w3.org/2000/svg" xmlns:xlink="http://www.w3.org/1999/xlink" x="0px" y="0px"
	 viewBox="0 0 512 512" style="enable-background:new 0 0 512 512;" xml:space="preserve">
<g>
	<g>
		<path d="M429,0H329c-11.046,0-20,8.954-20,20s8.954,20,20,20h51.716L269.648,151.069C248.141,135.317,221.64,126,193,126
			c-71.682,0-130,58.318-130,130c0,64.882,47.779,118.813,110,128.461V426h-18c-11.046,0-20,8.954-20,20c0,11.046,8.954,20,20,20h18
			v26c0,11.046,8.954,20,20,20s20-8.954,20-20v-26h18c11.046,0,20-8.954,20-20c0-11.046-8.954-20-20-20h-18v-41.539
			c62.221-9.649,110-63.579,110-128.461c0-28.64-9.317-55.141-25.068-76.647L409,68.285V120c0,11.046,8.954,20,20,20
			c11.046,0,20-8.954,20-20V20C449,8.833,439.853,0,429,0z M193,346c-49.626,0-90-40.374-90-90c0-49.626,40.374-90,90-90
			c49.626,0,90,40.374,90,90C283,305.626,242.626,346,193,346z"/>
	</g>
</g>
<g>
</g>
<g>
</g>
<g>
</g>
<g>
</g>
<g>
</g>
<g>
</g>
<g>
</g>
<g>
</g>
<g>
</g>
<g>
</g>
<g>
</g>
<g>
</g>
<g>
</g>
<g>
</g>
<g>
</g>
</svg>
