<svg xmlns="http://www.w3.org/2000/svg" xmlns:xlink="http://www.w3.org/1999/xlink" width="8" height="22" viewBox="0 0 8 22">
  <defs>
    <style>
      .cls-1 {
        fill: #a7a7a7;
        fill-rule: evenodd;
        filter: url(#filter);
      }
    </style>
    <filter id="filter" x="557" y="289" width="8" height="22" filterUnits="userSpaceOnUse">
      <feFlood result="flood" flood-color="#5f6167"/>
      <feComposite result="composite" operator="in" in2="SourceGraphic"/>
      <feBlend result="blend" in2="SourceGraphic"/>
    </filter>
  </defs>
  <path id="grobe" class="cls-1" d="M564.759,307.536l-3.372,3.281a0.624,0.624,0,0,1-.867,0l-3.355-3.264a0.586,0.586,0,0,1,0-.844,0.625,0.625,0,0,1,.868,0l2.921,2.843,2.936-2.858a0.624,0.624,0,0,1,.867,0A0.585,0.585,0,0,1,564.759,307.536Zm-3.372,3.281a0.622,0.622,0,0,1-.434.176,0.6,0.6,0,0,1-.612-0.6l0.024-7.077a0.609,0.609,0,0,1,.615-0.6,0.6,0.6,0,0,1,.612.6l-0.024,7.077A0.586,0.586,0,0,1,561.387,310.817Zm3.415-17.536a0.627,0.627,0,0,1-.869,0l-2.921-2.842-2.936,2.857a0.624,0.624,0,0,1-.867,0,0.585,0.585,0,0,1,0-.845l3.371-3.28a0.625,0.625,0,0,1,.868,0l3.354,3.264A0.586,0.586,0,0,1,564.8,293.281Zm-3.378,3.814a0.631,0.631,0,0,1-.435.176,0.6,0.6,0,0,1-.612-0.6L560.4,289.6a0.609,0.609,0,0,1,.615-0.6,0.6,0.6,0,0,1,.612.595l-0.024,7.078A0.591,0.591,0,0,1,561.424,297.1Z" transform="translate(-557 -289)"/>
</svg>
