<svg xmlns="http://www.w3.org/2000/svg" xmlns:xlink="http://www.w3.org/1999/xlink" width="20" height="20" viewBox="0 0 20 20">
  <defs>
    <style>
      .cls-1 {
        fill: #a7a7a7;
        fill-rule: evenodd;
        filter: url(#filter);
      }
    </style>
    <filter id="filter" x="314" y="337" width="20" height="20" filterUnits="userSpaceOnUse">
      <feFlood result="flood" flood-color="#5f6167"/>
      <feComposite result="composite" operator="in" in2="SourceGraphic"/>
      <feBlend result="blend" in2="SourceGraphic"/>
    </filter>
  </defs>
  <path id="grunderkrankung" class="cls-1" d="M333.082,340.581a3.037,3.037,0,0,1-2.658-2.659,3.132,3.132,0,0,0-4.819,3.956l-2.153,2.349a0.578,0.578,0,0,0-.1.43v2.506a0.421,0.421,0,0,0,.492.493H326.5a0.585,0.585,0,0,0,.443-0.116l2.2-2.164A3.118,3.118,0,0,0,333.082,340.581Zm-0.886,3.544a1.878,1.878,0,0,1-2.658,0,0.632,0.632,0,0,0-.444-0.183,0.585,0.585,0,0,0-.443.116l-2.412,2.345H324.6v-1.5l2.357-2.566a0.628,0.628,0,0,0-.046-0.873,1.891,1.891,0,0,1-.567-1.328,1.867,1.867,0,1,1,3.734-.008l0,0.133a0.619,0.619,0,0,0,.182.485,0.626,0.626,0,0,0,.485.182l0.132,0a1.852,1.852,0,0,1,1.323.54A1.881,1.881,0,0,1,332.2,344.125Zm-7.667,5.2a0.662,0.662,0,0,0-.577-0.417h-1.858v-1.883a0.667,0.667,0,0,0-1.116-.449l-2.1,2.024a3.135,3.135,0,0,0-3.958,4.824h0a3.035,3.035,0,0,1,2.658,2.658,3.133,3.133,0,0,0,4.822-3.952l2-2.074A0.711,0.711,0,0,0,324.529,349.326Zm-3.414,2.3a0.65,0.65,0,0,0,.008.9,1.889,1.889,0,0,1-1.33,3.224,1.871,1.871,0,0,1-1.328-.549,1.85,1.85,0,0,1-.54-1.322l0-.133a0.626,0.626,0,0,0-.666-0.667l-0.133,0a1.859,1.859,0,0,1-1.323-.54l-0.443.443,0.443-.443a1.88,1.88,0,0,1,2.658-2.659,0.671,0.671,0,0,0,.915.007l1.461-1.38v1.1a0.512,0.512,0,0,0,.556.556h1.085Zm-3.3-5.6,1.712,0.459a0.627,0.627,0,0,0,.324-1.211l-1.711-.459a0.627,0.627,0,0,0-.325,1.211m3.943-4.829,0.459,1.712a0.627,0.627,0,0,0,1.211-.325l-0.459-1.712a0.627,0.627,0,1,0-1.211.325m-2.618,1.886,1.253,1.253a0.626,0.626,0,0,0,.886-0.886l-1.253-1.253a0.626,0.626,0,1,0-.886.886m9.658,7.886-1.253-1.253a0.626,0.626,0,1,0-.886.886l1.253,1.253a0.626,0.626,0,1,0,.886-0.886m1.325-2.943-1.712-.459a0.627,0.627,0,0,0-.325,1.211l1.713,0.459a0.627,0.627,0,0,0,.324-1.211m-3.943,4.829-0.459-1.712a0.627,0.627,0,1,0-1.211.325l0.459,1.711a0.627,0.627,0,0,0,1.211-.324" transform="translate(-314 -337)"/>
</svg>
