<svg xmlns="http://www.w3.org/2000/svg" width="25" height="24.969" viewBox="0 0 25 24.969">
  <defs>
    <style>
      .cls-1 {
        fill: #0b092a;
        fill-rule: evenodd;
      }
    </style>
  </defs>
  <path id="phone" class="cls-1" d="M1163.89,225a6.108,6.108,0,0,0,5.84-4.725l0.25-1.073a0.866,0.866,0,0,0-.49-0.986l-6.83-3a0.862,0.862,0,0,0-.9.127l-2.23,1.863a19.7,19.7,0,0,1-6.74-6.739l1.87-2.231a0.844,0.844,0,0,0,.12-0.9l-3-6.823a0.858,0.858,0,0,0-.98-0.492l-1.08.252a6.038,6.038,0,0,0-4.69,6.411c0.01,0.133.03,0.266,0.05,0.4,0.81,5.155,6.42,10.693,6.77,11.037s5.91,5.985,11.06,6.8c0.14,0.022.27,0.039,0.4,0.052C1163.51,224.99,1163.7,225,1163.89,225Zm3.85-12.592a0.858,0.858,0,0,0,.86-0.862,10.229,10.229,0,0,0-10.22-10.221,0.863,0.863,0,0,0,0,1.725,8.505,8.505,0,0,1,8.5,8.5A0.864,0.864,0,0,0,1167.74,212.408Zm-3.74,0a0.864,0.864,0,0,0,.86-0.862,6.481,6.481,0,0,0-6.48-6.477,0.862,0.862,0,0,0,0,1.724,4.765,4.765,0,0,1,4.76,4.753A0.858,0.858,0,0,0,1164,212.408Z" transform="translate(-1145 -200.031)"/>
</svg>
