<svg xmlns="http://www.w3.org/2000/svg" xmlns:xlink="http://www.w3.org/1999/xlink" width="11" height="29" viewBox="0 0 11 29">
  <defs>
    <style>
      .cls-1 {
        fill: #274e8c;
        fill-rule: evenodd;
        filter: url(#filter);
      }
    </style>
    <filter id="filter" x="1045" y="197" width="11" height="29" filterUnits="userSpaceOnUse">
      <feFlood result="flood" flood-color="#274e8c"/>
      <feComposite result="composite" operator="in" in2="SourceGraphic"/>
      <feBlend result="blend" in2="SourceGraphic"/>
    </filter>
  </defs>
  <path id="hauszartz" class="cls-1" d="M1049.23,209.414c0,0.578.01,1.112,0,1.646a0.409,0.409,0,0,1-.19.262,6.031,6.031,0,0,0-.84.451,2.438,2.438,0,0,0-.68.825,1.232,1.232,0,0,0,.65,1.753,19.322,19.322,0,0,0,2.23.627c0.78,0.211,1.59.354,2.34,0.638a2.613,2.613,0,0,1,1.84,2.569,2.818,2.818,0,0,1-1.8,2.727c-0.36.165-.74,0.288-1.11,0.43,0-.493-0.01-0.95,0-1.406a0.31,0.31,0,0,1,.15-0.168c0.14-.09.29-0.163,0.43-0.248a1.316,1.316,0,0,0,.6-1.41,1,1,0,0,0-.8-0.9c-0.83-.23-1.68-0.393-2.52-0.616a14.1,14.1,0,0,1-2.06-.639,3.194,3.194,0,0,1-.75-5.265A6.5,6.5,0,0,1,1049.23,209.414Zm5.65-5.158a6.335,6.335,0,0,0-2.88-1.119c-1.13-.175-2.26-0.326-3.39-0.419a3.369,3.369,0,0,0-1.94.539,2.727,2.727,0,0,0-1.23,1.367,0.779,0.779,0,0,0,.29,1.069c-0.24.074-.48,0.144-0.73,0.22l0.29,0.1c-0.11.09-.19,0.154-0.27,0.218a6.16,6.16,0,0,0,1-.409,1.054,1.054,0,0,1,.38-0.109,4.366,4.366,0,0,0,2.37-.7,2.345,2.345,0,0,1,1.72-.3c0.13,0.011.27,0.025,0.4,0.042a8.013,8.013,0,0,1,2.59.66,1.465,1.465,0,0,1,.12,2.545c-0.43.237-.9,0.409-1.34,0.622a0.354,0.354,0,0,0-.21.208c-0.02.554-.01,1.11-0.01,1.687a8.407,8.407,0,0,0,2.64-1.128A3.273,3.273,0,0,0,1054.88,204.256Zm-8.2.219a0.478,0.478,0,0,1-.15-0.2,0.6,0.6,0,0,1,.6-0.429,0.344,0.344,0,0,1,.25.184A0.666,0.666,0,0,1,1046.68,204.475Zm2.77-2.12c-0.02-.364-0.02-0.71-0.06-1.051a0.7,0.7,0,0,0-.19-0.391,2.268,2.268,0,0,1-.6-2.574,2.182,2.182,0,1,1,3.43,2.529,0.615,0.615,0,0,0-.24.538v1.148Zm1.88,12.292c-0.45-.088-0.88-0.157-1.3-0.263a0.362,0.362,0,0,1-.19-0.278c-0.04-.618-0.06-1.238-0.08-1.857q-0.1-3.432-.22-6.864c0-.061.01-0.124,0.02-0.229,0.19,0.013.38,0.021,0.57,0.04,0.42,0.041.84,0.1,1.26,0.128a0.242,0.242,0,0,1,.26.316c-0.03.818-.05,1.637-0.08,2.455-0.07,2.1-.15,4.2-0.22,6.3C1051.35,214.464,1051.34,214.537,1051.33,214.647Zm-1.38,2.547c0.4,0.084.78,0.154,1.15,0.251a0.26,0.26,0,0,1,.13.223q-0.12,3.964-.26,7.928a0.356,0.356,0,0,1-.37.4,0.362,0.362,0,0,1-.37-0.438c-0.06-1.52-.12-3.041-0.17-4.561-0.04-1.112-.08-2.223-0.11-3.335C1049.94,217.521,1049.95,217.376,1049.95,217.194Zm-0.43,3.607c0.03,0.1.03,0.119,0.04,0.139a1.146,1.146,0,0,1-.72,1.509,4.878,4.878,0,0,0-2.17,2.3c-0.02.046-.05,0.093-0.07,0.139-0.09.173-.2,0.356-0.42,0.257s-0.17-.3-0.11-0.49a6.521,6.521,0,0,1,2.31-3.118C1048.74,221.276,1049.12,221.056,1049.52,220.8Zm-2.84-16.326a0.478,0.478,0,0,1-.15-0.2,0.6,0.6,0,0,1,.6-0.429,0.344,0.344,0,0,1,.25.184A0.666,0.666,0,0,1,1046.68,204.475Z" transform="translate(-1045 -197)"/>
</svg>
