<svg xmlns="http://www.w3.org/2000/svg" width="27" height="27" viewBox="0 0 27 27">
  <defs>
    <style>
      .cls-1 {
        fill: #c92d09;
        fill-rule: evenodd;
      }
    </style>
  </defs>
  <path id="medikation" class="cls-1" d="M1115.48,201.523a8.638,8.638,0,0,0-12.2,0l-9.76,9.757a8.626,8.626,0,0,0,12.2,12.2l9.76-9.758A8.638,8.638,0,0,0,1115.48,201.523Zm-1.22,10.977-4.88,4.879-9.76-9.758,4.88-4.878A6.9,6.9,0,0,1,1114.26,212.5Zm-1.22-8.538a0.863,0.863,0,1,0-1.22,1.22,3.451,3.451,0,0,1,0,4.879,0.862,0.862,0,1,0,1.22,1.219A5.188,5.188,0,0,0,1113.04,203.962Z" transform="translate(-1091 -199)"/>
</svg>
