<svg xmlns="http://www.w3.org/2000/svg" width="32.4" height="11.437" viewBox="0 0 32.4 11.437">
  <defs>
    <style>
      .cls-1 {
        fill: #fefefe;
        fill-rule: evenodd;
      }
    </style>
  </defs>
  <path id="BTM" class="cls-1" d="M1194.36,268.653h4.28a4.863,4.863,0,0,0,3.06-.875,2.891,2.891,0,0,0,1.13-2.438,2.95,2.95,0,0,0-.48-1.765,2.506,2.506,0,0,0-1.56-.906V262.59a1.9,1.9,0,0,0,1.27-.789,2.77,2.77,0,0,0,.48-1.679,2.407,2.407,0,0,0-1.09-2.2,6.892,6.892,0,0,0-3.53-.691h-3.56v11.422Zm2.43-9.438h1.27a3.1,3.1,0,0,1,1.52.286,1.008,1.008,0,0,1,.48.941,1.146,1.146,0,0,1-.44,1.008,2.593,2.593,0,0,1-1.43.305h-1.4v-2.54Zm1.5,4.461c1.35,0,2.03.474,2.03,1.422a1.408,1.408,0,0,1-.48,1.172,2.351,2.351,0,0,1-1.48.383h-1.57v-2.977h1.5Zm11.39-4.429h3.1v-2.016h-8.62v2.016h3.1v9.406h2.42v-9.406Zm11.95,9.406,2.95-8.945h0.07c-0.07,1.437-.1,2.323-0.11,2.656s-0.01.628-.01,0.883v5.406h2.26V257.231h-3.3l-2.87,8.734h-0.04l-2.71-8.734h-3.29v11.422h2.16V263.34q0-.913-0.15-3.648h0.07l2.75,8.961h2.22Z" transform="translate(-1194.38 -257.219)"/>
</svg>
