<?xml version="1.0" encoding="utf-8"?>
<!-- Generator: Adobe Illustrator 18.0.0, SVG Export Plug-In . SVG Version: 6.00 Build 0)  -->
<!DOCTYPE svg PUBLIC "-//W3C//DTD SVG 1.0//EN" "http://www.w3.org/TR/2001/REC-SVG-20010904/DTD/svg10.dtd">
<svg version="1.0" id="Layer_1" xmlns="http://www.w3.org/2000/svg" xmlns:xlink="http://www.w3.org/1999/xlink" x="0px" y="0px"
	 width="27.1px" height="28px" viewBox="0 0 27.1 28" enable-background="new 0 0 27.1 28" xml:space="preserve">
<g>
	<path d="M3.5,12.2C2.6,11,2,9.5,2,8c0-3.5,2.8-6.3,6.3-6.3c1.9,0,3.6,0.8,4.8,2.2l0.6,0.8l0.6-0.8c1.2-1.4,2.9-2.2,4.8-2.2
		c3.5,0,6.3,2.8,6.3,6.3c0,1.5-0.5,3-1.5,4.1l1.3,1.1c1.2-1.5,1.9-3.3,1.9-5.2c0-4.4-3.6-8-7.9-8c-2,0-4,0.8-5.4,2.2
		C12.3,0.8,10.3,0,8.3,0C3.9,0,0.4,3.6,0.4,8c0,1.9,0.7,3.8,1.9,5.2L3.5,12.2z"/>
	<polygon points="16.2,6.1 12.8,15.6 10.2,10 8.2,14.7 0,14.7 0,15.7 9.2,15.7 10.2,13.7 13,19.8 16.2,10.6 18.1,15.7 27,15.7 
		27,14.7 19.3,14.7 	"/>
	<path d="M14.2,25.7h-0.9l-6.4-7.9l-1.3,1l6.9,8.3c0,0,0.7,0.9,1.4,0.9c0.5,0,1-0.9,1-0.9l6.9-8.3l-1.3-0.9L14.2,25.7z"/>
</g>
</svg>
