<svg id="besuch" xmlns="http://www.w3.org/2000/svg" width="91.03" height="22" viewBox="0 0 91.03 22">
  <defs>
    <style>
      .cls-1 {
        fill: #131313;
        fill-rule: evenodd;
      }
    </style>
  </defs>
  <path id="BESUCH-2" data-name="BESUCH" class="cls-1" d="M1086.86,268.9h4.28a4.863,4.863,0,0,0,3.06-.875,2.891,2.891,0,0,0,1.13-2.438,2.95,2.95,0,0,0-.48-1.765,2.506,2.506,0,0,0-1.56-.906V262.84a1.9,1.9,0,0,0,1.27-.789,2.77,2.77,0,0,0,.48-1.679,2.407,2.407,0,0,0-1.09-2.2,6.892,6.892,0,0,0-3.53-.691h-3.56V268.9Zm2.43-9.438h1.27a3.1,3.1,0,0,1,1.52.286,1.008,1.008,0,0,1,.48.941,1.146,1.146,0,0,1-.44,1.008,2.593,2.593,0,0,1-1.43.305h-1.4v-2.54Zm1.5,4.461c1.35,0,2.03.474,2.03,1.422a1.408,1.408,0,0,1-.48,1.172,2.351,2.351,0,0,1-1.48.383h-1.57v-2.977h1.5Zm13.4,2.977h-4.15v-2.945h3.86v-1.985h-3.86v-2.508h4.15v-1.984h-6.58V268.9h6.58v-2Zm8.68-3.059a6.159,6.159,0,0,0-2.2-1.535,13.267,13.267,0,0,1-1.53-.8,1.626,1.626,0,0,1-.48-0.461,1.021,1.021,0,0,1-.15-0.558,1.075,1.075,0,0,1,.37-0.836,1.576,1.576,0,0,1,1.06-.32,4.86,4.86,0,0,1,1.17.148,11.4,11.4,0,0,1,1.51.524l0.79-1.883a11.864,11.864,0,0,0-1.7-.594,6.609,6.609,0,0,0-1.7-.211,4.248,4.248,0,0,0-2.83.867,2.939,2.939,0,0,0-1.03,2.383,2.986,2.986,0,0,0,.31,1.406,3.573,3.573,0,0,0,.84,1.055,6.989,6.989,0,0,0,1.57.945,15.683,15.683,0,0,1,1.48.774,2.2,2.2,0,0,1,.55.5,1.034,1.034,0,0,1,.19.6,1.057,1.057,0,0,1-.43.907,2.069,2.069,0,0,1-1.22.3,5.8,5.8,0,0,1-1.47-.211,13.918,13.918,0,0,1-1.96-.726v2.25a7.308,7.308,0,0,0,3.24.687,4.868,4.868,0,0,0,3.1-.89,2.958,2.958,0,0,0,1.11-2.438A3.03,3.03,0,0,0,1112.87,263.844Zm9.54-6.363v6.977a2.925,2.925,0,0,1-.54,1.949,2.16,2.16,0,0,1-1.72.621,2.206,2.206,0,0,1-1.76-.617,2.954,2.954,0,0,1-.53-1.938v-6.992h-2.42v7.359a4.013,4.013,0,0,0,1.22,3.09,4.877,4.877,0,0,0,3.43,1.129,5.873,5.873,0,0,0,2.53-.508,3.641,3.641,0,0,0,1.63-1.461,4.238,4.238,0,0,0,.57-2.218v-7.391h-2.41Zm11.26,2.078a13.5,13.5,0,0,1,1.29.531l0.78-1.968a7.662,7.662,0,0,0-3.34-.805,5.513,5.513,0,0,0-2.85.715,4.659,4.659,0,0,0-1.86,2.055,6.978,6.978,0,0,0-.65,3.121,6.4,6.4,0,0,0,1.32,4.339,4.786,4.786,0,0,0,3.81,1.512,8.078,8.078,0,0,0,3.14-.586v-2.031a9.053,9.053,0,0,1-2.91.6q-2.865,0-2.87-3.821a4.779,4.779,0,0,1,.75-2.863,2.474,2.474,0,0,1,2.12-1.027A3.846,3.846,0,0,1,1133.67,259.559Zm13.35-2.078h-2.42v4.477h-4.52v-4.477h-2.42V268.9h2.42v-4.93h4.52v4.93h2.42V257.481Z" transform="translate(-1056 -252)"/>
  <path id="besuch-3" data-name="besuch" class="cls-1" d="M1063.69,263.08a0.929,0.929,0,0,0-1.29,0,0.886,0.886,0,0,0,0,1.254l2.38,2.32a0.918,0.918,0,0,0,1.28,0l5.12-5.01a0.887,0.887,0,0,0,0-1.255,0.916,0.916,0,0,0-1.28,0l-4.48,4.384Zm15.4-8.031a1.438,1.438,0,1,0-1.34,2,1.378,1.378,0,0,0,.97-0.4v3.507a2.555,2.555,0,1,1-5.1,0V256.67a1.34,1.34,0,0,0,.94.38,1.475,1.475,0,0,0-.01-2.948,1.412,1.412,0,0,0-1.32.947,1.455,1.455,0,0,0-.89,1.365v3.743a4.093,4.093,0,0,0,.98,2.662,3.758,3.758,0,0,0,2.2,1.271,9.1,9.1,0,0,1-18.19-.309,8.915,8.915,0,0,1,6.05-8.4,2.282,2.282,0,1,0,1.98-3.386,2.273,2.273,0,0,0-2.29,2.109,10.393,10.393,0,0,0-5.03,3.609,9.953,9.953,0,0,0-2.04,6.063A10.338,10.338,0,0,0,1066.43,274a10.452,10.452,0,0,0,7.33-2.96,10.048,10.048,0,0,0,3.1-6.965,3.966,3.966,0,0,0,3.14-3.918v-3.743A1.487,1.487,0,0,0,1079.09,255.049Zm-1.34.326a0.2,0.2,0,1,1-.18.2A0.192,0.192,0,0,1,1077.75,255.375Zm-3.2,0a0.2,0.2,0,1,1-.18.2A0.192,0.192,0,0,1,1074.55,255.375Zm-10.21-1.124a1.02,1.02,0,1,1,1.02,1A1.015,1.015,0,0,1,1064.34,254.251Zm1.02,0.624a0.625,0.625,0,1,0-.64-0.625A0.635,0.635,0,0,0,1065.36,254.875Z" transform="translate(-1056 -252)"/>
</svg>
