<svg xmlns="http://www.w3.org/2000/svg" width="16" height="16" viewBox="0 0 16 16">
  <defs>
    <style>
      .cls-1 {
        fill: #1b346f;
        fill-rule: evenodd;
      }
    </style>
  </defs>
  <path id="kalender" class="cls-1" d="M56.194,426.1v-6.063a1.637,1.637,0,0,0-1.575-1.7H53.152v-0.783a0.571,0.571,0,0,0-1.141,0v0.783h-5.83v-0.783a0.571,0.571,0,0,0-1.141,0v0.783H43.7a1.744,1.744,0,0,0-1.7,1.7v9.249a1.682,1.682,0,0,0,1.7,1.63h7.346a3.619,3.619,0,0,0,3.3,2.084A3.679,3.679,0,0,0,58,429.279,3.59,3.59,0,0,0,56.194,426.1ZM43.7,419.478h1.34v0.835a0.571,0.571,0,0,0,1.141,0v-0.835h5.83v0.835a0.571,0.571,0,0,0,1.141,0v-0.835h1.467a0.568,0.568,0,0,1,.561.559v2.11H43.14v-2.11A0.568,0.568,0,0,1,43.7,419.478Zm0,10.421a0.618,0.618,0,0,1-.561-0.613v-6.122H55.18v2.489a3.624,3.624,0,0,0-.826-0.094,3.74,3.74,0,0,0-3.689,3.757,5.052,5.052,0,0,0,.037.583h-7Zm10.646,2.01a2.623,2.623,0,1,1,2.593-2.623A2.612,2.612,0,0,1,54.347,431.909Zm0.955-3.153H54.927v-0.989a0.571,0.571,0,0,0-1.141,0v1.519a0.617,0.617,0,0,0,.561.613H55.3A0.572,0.572,0,0,0,55.3,428.756Z" transform="translate(-42 -417)"/>
</svg>
