<svg xmlns="http://www.w3.org/2000/svg" width="17" height="15" viewBox="0 0 17 15">
  <defs>
    <style>
      .cls-1 {
        fill: #1b346f;
        fill-rule: evenodd;
      }
    </style>
  </defs>
  <path id="listen-verwalten" class="cls-1" d="M44.051,500.118a2.059,2.059,0,1,1,2.051-2.06A2.058,2.058,0,0,1,44.051,500.118Zm0-2.942a0.883,0.883,0,1,0,.879.882A0.882,0.882,0,0,0,44.051,497.176Zm0,8.383A2.059,2.059,0,1,1,46.1,503.5,2.058,2.058,0,0,1,44.051,505.559Zm0-2.942a0.883,0.883,0,1,0,.879.883A0.882,0.882,0,0,0,44.051,502.617Zm0,8.383a2.059,2.059,0,1,1,2.051-2.059A2.058,2.058,0,0,1,44.051,511Zm0-2.941a0.882,0.882,0,1,0,.879.882A0.881,0.881,0,0,0,44.051,508.059Zm14.362-9.412H47.862a0.589,0.589,0,0,1,0-1.177H58.413A0.589,0.589,0,0,1,58.413,498.647Zm0,5.441H47.862a0.588,0.588,0,0,1,0-1.176H58.413A0.588,0.588,0,0,1,58.413,504.088Zm0,5.441H47.862a0.588,0.588,0,0,1,0-1.176H58.413A0.588,0.588,0,0,1,58.413,509.529Z" transform="translate(-42 -496)"/>
</svg>
