<svg xmlns="http://www.w3.org/2000/svg" width="17" height="17" viewBox="0 0 17 17">
  <defs>
    <style>
      .cls-1 {
        fill: #1b346f;
        fill-rule: evenodd;
      }
    </style>
  </defs>
  <path id="patientliste" class="cls-1" d="M47.444,144.215a4.063,4.063,0,0,0,2.419-.8,3.668,3.668,0,1,0,.679-5.992A4.1,4.1,0,1,0,47.444,144.215Zm3.731-5.8a2.447,2.447,0,0,1,1.093-.255A2.494,2.494,0,1,1,50.7,142.6a4.067,4.067,0,0,0,.787-1.86v-0.009q0.013-.089.022-0.177l0-.044c0-.05.008-0.1,0.011-0.151,0-.017,0-0.034,0-0.051,0-.065,0-0.13,0-0.195s0-.145-0.006-0.216c0-.017,0-0.033,0-0.05,0-.055-0.008-0.11-0.013-0.165,0-.018,0-0.037-0.007-0.055-0.006-.053-0.013-0.105-0.021-0.157,0-.02-0.007-0.039-0.011-0.059-0.009-.05-0.018-0.1-0.028-0.15,0-.021-0.01-0.042-0.014-0.063-0.011-.048-0.022-0.1-0.035-0.143-0.006-.023-0.013-0.045-0.019-0.067-0.013-.045-0.026-0.09-0.04-0.134-0.008-.025-0.016-0.049-0.024-0.073-0.014-.041-0.029-0.083-0.045-0.125l-0.03-.076c-0.016-.039-0.032-0.078-0.049-0.116C51.186,138.446,51.181,138.432,51.175,138.419Zm-3.731-1.246a2.921,2.921,0,0,1,2.479,1.382c0.031,0.049.06,0.1,0.088,0.149l0.01,0.019c0.027,0.05.052,0.1,0.076,0.152l0.021,0.047c0.023,0.051.044,0.1,0.063,0.154l0.007,0.017c0.021,0.058.041,0.117,0.058,0.177l0.011,0.04c0.014,0.052.028,0.1,0.039,0.156L50.3,139.5q0.02,0.093.033,0.186c0,0.011,0,.022,0,0.034,0.007,0.051.012,0.1,0.017,0.154,0,0.017,0,.033,0,0.05,0,0.062.007,0.125,0.007,0.188s0,0.1,0,.15c0,0,0,0,0,.008a2.929,2.929,0,0,1-.852,1.915h0A2.929,2.929,0,1,1,47.444,137.173Zm10.389,9.73a7.518,7.518,0,0,0-3.3-2.117,0.6,0.6,0,0,0-.42.024,4.513,4.513,0,0,1-3.693,0,0.58,0.58,0,0,0-.416-0.024c-0.106.033-.209,0.07-0.3,0.1a0.629,0.629,0,0,0-.119.038,5.22,5.22,0,0,1-4.285,0,0.591,0.591,0,0,0-.416-0.024,8.511,8.511,0,0,0-3.728,2.4A0.594,0.594,0,0,0,41,147.7v4.736a0.581,0.581,0,0,0,.6.569H53.292a0.6,0.6,0,0,0,.62-0.569v-0.439h3.473A0.583,0.583,0,0,0,58,151.44V147.3A0.6,0.6,0,0,0,57.833,146.9Zm-5.141,4.945H42.148v-3.921a7.879,7.879,0,0,1,2.872-1.835,6.419,6.419,0,0,0,4.827,0l0.017,0,0.064,0.023,0.148,0.055,0.059,0.023,0.149,0.061,0.056,0.024,0.148,0.066,0.055,0.026,0.146,0.071,0.055,0.027c0.048,0.025.1,0.049,0.143,0.075l0.055,0.03q0.07,0.037.139,0.078l0.056,0.032,0.135,0.081,0.057,0.035,0.13,0.084,0.057,0.038,0.125,0.087,0.058,0.041,0.121,0.089,0.058,0.044,0.117,0.091,0.058,0.047,0.113,0.094,0.058,0.049,0.112,0.1,0.054,0.049c0.039,0.036.077,0.073,0.115,0.11,0.015,0.014.023,0.029,0.038,0.043a1.208,1.208,0,0,0,.149.158v3.921Zm4.089-1.007H53.911V147.7a0.609,0.609,0,0,0-.169-0.394c-0.072-.079-0.153-0.156-0.228-0.232-0.021-.022-0.047-0.043-0.068-0.064-0.055-.055-0.112-0.109-0.168-0.163l-0.074-.068c-0.058-.053-0.117-0.106-0.176-0.158l-0.063-.054q-0.119-.1-0.241-0.2a5.52,5.52,0,0,0,1.642-.389,6.073,6.073,0,0,1,2.414,1.557v3.312Z" transform="translate(-41 -136)"/>
</svg>
