<svg xmlns="http://www.w3.org/2000/svg" width="25" height="25" viewBox="0 0 25 25">
  <defs>
    <style>
      .cls-1 {
        fill: #5f6167;
        fill-rule: evenodd;
      }
    </style>
  </defs>
  <path id="todo" class="cls-1" d="M1381.5,38A12.5,12.5,0,1,0,1394,50.5,12.516,12.516,0,0,0,1381.5,38Zm0,23.333A10.833,10.833,0,1,1,1392.33,50.5,10.845,10.845,0,0,1,1381.5,61.333Zm7.39-13.889a0.943,0.943,0,0,0-.66.266l-6.73,6.377-6.72-6.368a0.943,0.943,0,0,0-1.61.669,0.975,0.975,0,0,0,.28.678l7.38,6.99a0.951,0.951,0,0,0,1.33.011l7.4-7.01a0.968,0.968,0,0,0,.27-0.668A0.942,0.942,0,0,0,1388.89,47.444Z" transform="translate(-1369 -38)"/>
</svg>
