<svg xmlns="http://www.w3.org/2000/svg" width="13" height="18" viewBox="0 0 13 18">
  <defs>
    <style>
      .cls-1 {
        fill: #b3b7c3;
        fill-rule: evenodd;
      }
    </style>
  </defs>
  <path id="user-gray" class="cls-1" d="M331.481,139.047a4.535,4.535,0,1,0-4.216-4.524A4.382,4.382,0,0,0,331.481,139.047Zm-2.348-4.524a2.354,2.354,0,1,1,2.348,2.527A2.445,2.445,0,0,1,329.133,134.523Zm8.568,6.928a8.378,8.378,0,0,0-3.681-2.516,0.921,0.921,0,0,0-.68.041,4.257,4.257,0,0,1-3.7,0,0.894,0.894,0,0,0-.67-0.041,8.41,8.41,0,0,0-3.692,2.517,1.078,1.078,0,0,0-.281.668v4.741A1.166,1.166,0,0,0,326.011,148H336.95a1.2,1.2,0,0,0,1.05-1.136V142.12A1.1,1.1,0,0,0,337.7,141.451Zm-10.844,4.573v-3.5a6.381,6.381,0,0,1,2.322-1.565,6.221,6.221,0,0,0,4.6,0,6.548,6.548,0,0,1,2.363,1.565v3.5h-9.286Z" transform="translate(-325 -130)"/>
</svg>
