<svg xmlns="http://www.w3.org/2000/svg" width="17" height="23" viewBox="0 0 17 23">
  <defs>
    <style>
      .cls-1 {
        fill: #5f6167;
        fill-rule: evenodd;
      }
    </style>
  </defs>
  <path id="video" class="cls-1" d="M1475.55,58.616a0.742,0.742,0,0,1-.75.778h-9.45a0.765,0.765,0,0,1-.77-0.778V40.334a0.809,0.809,0,0,1,.77-0.828h9.45a0.786,0.786,0,0,1,.75.828v2.107l1.58,0.24V40.334A2.3,2.3,0,0,0,1474.8,38h-9.45a2.323,2.323,0,0,0-2.35,2.334V58.616A2.366,2.366,0,0,0,1465.35,61h9.45a2.343,2.343,0,0,0,2.33-2.385V55.046l-1.58.24v3.329Zm-2.91-17.7a0.8,0.8,0,0,0-.79-0.8h-3.55a0.8,0.8,0,0,0,0,1.607h3.55A0.8,0.8,0,0,0,1472.64,40.913Zm-2.56,17.9a1.292,1.292,0,1,0-1.28-1.292A1.291,1.291,0,0,0,1470.08,58.814Zm0-1.59a0.3,0.3,0,1,1-.3.3A0.294,0.294,0,0,1,1470.08,57.225Zm6.56-5.865V46.63a1,1,0,0,0-.95-1h-5.21a0.923,0.923,0,0,0-.86,1v4.729a0.929,0.929,0,0,0,.86,1h5.21A1,1,0,0,0,1476.64,51.359Zm3.1-4.729a0.285,0.285,0,0,0-.12.027l-0.01,0-2.35.939s-0.01,0-.01,0l-0.01,0,0.01,0a0.238,0.238,0,0,0-.12.209v2.365a0.238,0.238,0,0,0,.12.209v0.006s0.01,0,.01,0l2.35,0.938v0a0.337,0.337,0,0,0,.13.027,0.258,0.258,0,0,0,.26-0.237V46.867A0.258,0.258,0,0,0,1479.74,46.63Z" transform="translate(-1463 -38)"/>
</svg>
