<svg xmlns="http://www.w3.org/2000/svg" viewBox="4371.429 491.429 18 18">
  <defs>
    <style>
      .cls-1 {
        fill: #79eb74;
      }

      .cls-2 {
        fill: #fff;
      }
    </style>
  </defs>
  <g id="check-green" transform="translate(4371.429 491.429)">
    <circle id="Ellipse_22_1_" class="cls-1" cx="9" cy="9" r="9" transform="translate(0 0)"/>
    <path id="Path_96" data-name="Path 96" class="cls-2" d="M33.02,37.028l-.028-.014a1.135,1.135,0,0,0-.783-.313,1.12,1.12,0,0,0-.8.328L26.27,42.183,24.29,40.217l-.014-.014a1.135,1.135,0,0,0-.783-.313,1.078,1.078,0,0,0-.8.342l-.014.014a1.122,1.122,0,0,0,.014,1.581l2.763,2.748a1.074,1.074,0,0,0,.783.313h.028a1.088,1.088,0,0,0,.783-.328l5.953-5.953.014-.014a1.051,1.051,0,0,0,.313-.8A1.138,1.138,0,0,0,33.02,37.028Z" transform="translate(-19.178 -31.474)"/>
  </g>
</svg>
