<svg xmlns="http://www.w3.org/2000/svg" viewBox="4069 411 17.446 15.5">
  <defs>
    <style>
      .cls-1 {
        fill: #00a2ff;
        fill-rule: evenodd;
      }
    </style>
  </defs>
  <path id="date" class="cls-1" d="M3315.64,1937.23h-2.1v-.609a.6.6,0,0,0-1.2,0v.609h-7.219v-.609a.6.6,0,0,0-1.2,0v.609h-2.105a1.817,1.817,0,0,0-1.807,1.822v10.642a1.817,1.817,0,0,0,1.807,1.826h13.833a1.817,1.817,0,0,0,1.807-1.826v-10.642a1.817,1.817,0,0,0-1.806-1.822Zm-13.833,1.214h2.105v.609a.6.6,0,1,0,1.2,0v-.609h7.219v.609a.6.6,0,1,0,1.2,0v-.609h2.105a.609.609,0,0,1,.6.609v1.826H3301.2v-1.826A.609.609,0,0,1,3301.807,1938.443Zm13.833,11.86h-13.833a.606.606,0,0,1-.6-.609v-7.6h15.043v7.6a.606.606,0,0,1-.6.609Z" transform="translate(769 -1525.02)"/>
</svg>
