<?xml version="1.0" encoding="utf-8"?>
<svg version="1.1" xmlns="http://www.w3.org/2000/svg" xmlns:xlink="http://www.w3.org/1999/xlink" x="0px" y="0px" viewBox="0 0 1000 1000" enable-background="new 0 0 1000 1000" xml:space="preserve">
<g><g transform="translate(0.000000,511.000000) scale(0.100000,-0.100000)"><path d="M426.8,2391.3c-181.6-94.4-276-297.7-221.5-482.9c65.4-217.9,377.6-664.5,700.8-1002.2c290.5-301.4,294.1-308.6,225.1-374c-36.3-36.3-268.7-239.6-515.6-453.9C372.3-135.9,154.5-342.9,136.3-379.2C114.5-415.5,100-513.6,100-597.1c0-123.5,21.8-174.3,123.5-276c105.3-105.3,148.9-123.4,286.9-123.4c185.2,0,177.9-3.7,947.7,668.1l497.5,432.1l254.2-119.8c286.9-130.7,795.2-308.6,991.3-345c72.6-14.5,138-36.3,145.2-50.9c10.9-10.9-54.5-330.4-141.6-704.4c-174.3-762.5-174.3-857,21.8-1020.4c188.8-159.7,515.6-101.7,628.2,116.2c29.1,54.5,119.8,410.3,207,791.6l159.8,693.6l762.5,21.8c417.6,10.9,795.2,29,835.2,43.6c65.4,18.2,105.3-54.5,381.3-671.8c170.7-381.3,345-726.2,388.5-769.8c50.8-47.2,145.2-83.5,261.4-94.4c170.6-14.5,192.4-7.3,312.3,112.5c199.7,199.7,181.6,319.5-145.3,1038.5c-148.9,326.8-268.7,599.1-265.1,602.8c7.3,3.6,108.9,43.6,228.8,90.8c297.8,116.2,610,272.3,878.7,443c127.1,79.9,243.3,138,261.4,130.7c18.2-3.6,268.7-217.9,551.9-468.4c286.9-250.5,559.2-475.7,602.8-497.4c43.6-25.4,145.3-43.6,225.1-43.6c283.2,0,479.3,308.6,366.7,577.3c-21.8,58.1-276,312.3-577.4,573.7L8753,1022.4l174.3,236c239.7,312.3,395.8,617.3,395.8,758.9c0,341.3-381.3,537.4-675.4,345c-47.2-29-134.4-152.5-203.4-279.6c-246.9-464.8-907.8-1049.4-1492.4-1318.1c-679-312.3-1281.8-432.1-2167.8-428.5c-904.1,0-1539.6,123.5-2200.5,428.5C2013.6,1026,1425.4,1519.8,1153,1962.8C869.8,2424,691.9,2529.3,426.8,2391.3z"/></g></g>
</svg>