<svg version="1.1" xmlns="http://www.w3.org/2000/svg" xmlns:xlink="http://www.w3.org/1999/xlink" x="0px" y="0px" viewBox="0 0 1000 1000" enable-background="new 0 0 1000 1000" xml:space="preserve">
<path d="M500,255.1c-135.3,0-244.9,109.8-244.9,244.9c0,135.2,109.7,244.9,244.9,244.9c135.3,0,244.9-109.7,244.9-244.9C744.9,364.7,635.3,255.1,500,255.1z M500,10C229.3,10,10,229.3,10,500c0,270.7,219.3,490,490,490c270.7,0,490-219.3,490-490C990,229.3,770.7,10,500,10z M500,891.9c-216.6,0-391.9-175.4-391.9-391.9c0-216.6,175.4-391.9,391.9-391.9c216.6,0,391.9,175.4,391.9,391.9C891.9,716.6,716.6,891.9,500,891.9z"/>
</svg>