<?xml version="1.0" encoding="iso-8859-1"?>
<!-- Generator: Adobe Illustrator 16.0.0, SVG Export Plug-In . SVG Version: 6.00 Build 0)  -->
<!DOCTYPE svg PUBLIC "-//W3C//DTD SVG 1.1//EN" "http://www.w3.org/Graphics/SVG/1.1/DTD/svg11.dtd">
<svg version="1.1" id="Capa_1" xmlns="http://www.w3.org/2000/svg" xmlns:xlink="http://www.w3.org/1999/xlink" x="0px" y="0px"
	 width="123.7px" height="123.7px" viewBox="0 0 123.7 123.7" style="enable-background:new 0 0 123.7 123.7;" xml:space="preserve"
	>
<g>
	<path d="M23.298,44.5c-0.1,0-0.1,0-0.2,0v73.2c0,3.3,2.7,6,6,6h65.5c3.3,0,6-2.7,6-6c0,0-0.1-73.2-0.2-73.2H23.298z M44.499,103
		c0,2.801-2.2,5-5,5c-2.8,0-5-2.199-5-5V64.4c0-2.8,2.2-5,5-5c2.8,0,5,2.2,5,5V103z M66.898,103c0,2.801-2.2,5-5,5s-5-2.199-5-5
		V64.4c0-2.8,2.2-5,5-5s5,2.2,5,5V103z M89.298,103c0,2.801-2.199,5-5,5c-2.799,0-5-2.199-5-5V64.4c0-2.8,2.201-5,5-5
		c2.801,0,5,2.2,5,5V103z"/>
	<path d="M100.499,20.1h-5.4h-5.4c-1.699,0-3-1.3-3-3V6.2c0-3.4-2.8-6.2-6.199-6.2H43.298c-3.4,0-6.2,2.8-6.2,6.2V17
		c0,1.7-1.3,3-3,3h-5.4h-5.4c-3.4,0-6.2,2.8-6.2,6.2v2.1c0,3.4,2.7,6.1,6,6.2c0.1,0,0.1,0,0.2,0h77.1c0.101,0,0.101,0,0.2,0
		c3.3-0.1,6-2.8,6-6.2v-2.1C106.698,22.8,103.898,20.1,100.499,20.1z M76.398,20L76.398,20h-28.9l0,0v-6.6c0-1.7,1.4-3.1,3.1-3.1
		h22.699c1.701,0,3.101,1.4,3.101,3.1V20z"/>
</g>
<g>
</g>
<g>
</g>
<g>
</g>
<g>
</g>
<g>
</g>
<g>
</g>
<g>
</g>
<g>
</g>
<g>
</g>
<g>
</g>
<g>
</g>
<g>
</g>
<g>
</g>
<g>
</g>
<g>
</g>
</svg>
