<svg xmlns="http://www.w3.org/2000/svg" viewBox="2817.4 1682 12.4 12.4">
  <defs>
    <style>
      .cls-1 {
        fill: #707070;
        fill-rule: evenodd;
      }
    </style>
  </defs>
  <path id="group" class="cls-1" d="M10.084,11.625V10.85H11.51l-.287-2.014L9.988,8.5l.192-.751,1.735.462.485,3.411ZM8.926,6.975V6.2a1.938,1.938,0,0,0,0-3.875V1.55a2.713,2.713,0,0,1,0,5.425ZM0,12.4.477,8.361,2.3,7.769l.238.737-1.35.44-.316,2.68H8.492l-.316-2.68-1.35-.44.238-.737,1.82.592L9.361,12.4ZM4.68,6.975A3.488,3.488,0,1,1,8.154,3.488,3.485,3.485,0,0,1,4.68,6.975Zm0-6.2a2.713,2.713,0,1,0,2.7,2.713A2.71,2.71,0,0,0,4.68.775Z" transform="translate(2817.4 1682)"/>
</svg>
