<svg xmlns="http://www.w3.org/2000/svg" viewBox="2818 1650 10.327 12.4">
  <defs>
    <style>
      .cls-1 {
        fill: #707070;
        fill-rule: evenodd;
      }
    </style>
  </defs>
  <path id="user" class="cls-1" d="M0,12.4.472,8.252,2.66,7.39l.293.72L1.2,8.8.884,11.625H9.452L9.132,8.8,7.383,8.11l.293-.72,2.187.862.468,4.148ZM5.08,6.975A3.52,3.52,0,0,1,1.537,3.487a3.543,3.543,0,0,1,7.085,0A3.519,3.519,0,0,1,5.08,6.975Zm0-6.2A2.737,2.737,0,0,0,2.325,3.487a2.756,2.756,0,0,0,5.511,0A2.737,2.737,0,0,0,5.08.775Z" transform="translate(2817.996 1650)"/>
</svg>
