<svg width="40" height="40" viewBox="0 0 40 40" fill="none" xmlns="http://www.w3.org/2000/svg">
<g clip-path="url(#clip0)">
<path d="M39.5204 32.5303L23.275 3.6917C21.8898 1.17308 18.1118 1.17308 16.7265 3.6917L0.481219 32.5303C-0.904002 35.0489 0.859048 38.1973 3.75549 38.1973H36.1202C39.1426 38.0714 40.9056 35.0489 39.5204 32.5303Z" fill="#E24C4B"/>
<path d="M20.0011 5.58081L36.2465 34.4194H3.75586L20.0011 5.58081Z" fill="white"/>
<path d="M17.3562 18.8036L18.3637 25.4781C18.4896 26.2336 19.1193 26.8633 20.0009 26.8633C20.7564 26.8633 21.5121 26.2336 21.638 25.4781L22.6455 18.8036C22.8973 17.1665 21.638 15.7813 20.0009 15.7813C18.3636 15.7812 17.2302 17.1665 17.3562 18.8036Z" fill="#3F4448"/>
<path d="M20.0005 31.271C20.8351 31.271 21.5117 30.5944 21.5117 29.7598C21.5117 28.9251 20.8351 28.2485 20.0005 28.2485C19.1659 28.2485 18.4893 28.9251 18.4893 29.7598C18.4893 30.5944 19.1659 31.271 20.0005 31.271Z" fill="#3F4448"/>
</g>
<defs>
<clipPath id="clip0">
<rect width="40" height="40" fill="white"/>
</clipPath>
</defs>
</svg>
