<svg width="18" height="16" viewBox="0 0 18 16" fill="none" xmlns="http://www.w3.org/2000/svg">
<path d="M15.2608 0H2.73917C1.22865 0 0 1.09213 0 2.43482V10.0869C0 11.4296 1.22865 12.5217 2.73917 12.5217H11.1858L14.9845 15.8984C15.0589 15.9645 15.1591 16 15.2608 16C15.311 16 15.3619 15.9916 15.4103 15.9735C15.5566 15.92 15.6522 15.7926 15.6522 15.6521V12.4966C16.9778 12.3276 18 11.3112 18 10.0869V2.43482C18 1.09213 16.7712 0 15.2608 0Z" fill="#F2C94C"/>
<path d="M10.0881 9.30912C10.0881 9.84036 9.60368 10.2711 9.0059 10.2711C8.40826 10.2711 7.92371 9.84036 7.92371 9.30912C7.92371 8.77789 8.40826 8.34717 9.0059 8.34717C9.60368 8.34717 10.0881 8.77789 10.0881 9.30912Z" fill="white"/>
<path d="M9.87064 2.41998C9.71742 2.20799 9.50086 2.08675 9.27628 2.08675H8.73504C8.51036 2.08675 8.2944 2.20799 8.14127 2.41998C7.98805 2.63184 7.90956 2.91823 7.92581 3.21177L8.15426 6.64654C8.18558 7.216 8.55803 7.66282 9.00561 7.66282C9.44952 7.66282 9.82188 7.216 9.8527 6.65216L10.086 3.20679C10.1023 2.91759 10.0233 2.63107 9.87064 2.41998Z" fill="white"/>
</svg>
