<svg width="22" height="22" viewBox="0 0 22 22" fill="none" xmlns="http://www.w3.org/2000/svg">
<path d="M19.2223 17.3815C19.1479 17.2135 19.1311 16.9687 19.1935 16.7959C19.6759 15.4279 20.1703 14.0671 20.6839 12.7087C21.2311 11.2663 21.6559 9.8143 21.4423 8.2375C21.1999 6.4471 20.4655 4.8967 19.1431 3.6727C18.4975 3.0775 17.7415 2.6095 16.9927 2.0527C17.0503 1.8943 17.1439 1.6471 17.2351 1.3999C17.3839 0.991901 17.2687 0.672701 16.9255 0.545501C16.5727 0.415901 16.2775 0.562301 16.1119 0.958301C16.0039 1.2127 15.9079 1.4695 15.8023 1.7335C14.8039 1.4887 13.8175 1.3903 12.8167 1.5343C9.83347 1.9615 7.68067 3.5263 6.51667 6.3175C5.80387 8.0335 5.21587 9.8023 4.58227 11.5495C4.50547 11.7655 4.38307 11.8927 4.17427 11.9863C3.11347 12.4615 2.05987 12.9511 0.999067 13.4335C0.715867 13.5607 0.504667 13.7407 0.511867 14.0767C0.519067 14.4247 0.763867 14.5639 1.05187 14.6671C3.03187 15.3775 5.00707 16.0951 6.99187 16.7911C7.28947 16.8967 7.39267 17.0143 7.37587 17.3431C7.27507 19.5463 9.34147 21.1879 11.4799 20.6287C12.3463 20.4031 13.0063 19.8967 13.5031 19.1431C13.6063 19.1791 13.6999 19.2127 13.7935 19.2439C15.8047 19.9639 17.8159 20.6839 19.8271 21.4087C20.1295 21.5167 20.4079 21.5623 20.6575 21.3055C20.9167 21.0367 20.8087 20.7607 20.6743 20.4775C20.1799 19.4527 19.6879 18.4231 19.2223 17.3815ZM10.1191 19.4599C9.16147 19.1839 8.52787 18.3247 8.59507 17.3455C9.84787 17.7919 11.0743 18.2311 12.3055 18.6703C11.9551 19.3423 10.9495 19.6999 10.1191 19.4599Z" fill="#878A92"/>
</svg>
