<svg width="14" height="14" viewBox="0 0 14 14" fill="none" xmlns="http://www.w3.org/2000/svg">
<path d="M11.2028 9.8518C11.1006 9.7496 11.0866 9.5732 11.165 9.4514C11.781 8.5036 12.1422 7.3752 12.1422 6.1628C12.1422 2.814 9.4178 0.0910034 6.0718 0.0910034C2.723 0.0910034 0 2.814 0 6.1628C0 9.5102 2.723 12.2332 6.0718 12.2332C7.3752 12.2332 8.582 11.8146 9.5732 11.1118C9.6894 11.0278 9.8644 11.039 9.9666 11.1398L12.1366 13.3098C12.1506 13.3238 12.166 13.3378 12.1814 13.349C12.2066 13.37 12.3116 13.468 12.4124 13.5702L12.67 13.8264C12.7722 13.9272 12.9374 13.9272 13.0382 13.8264L13.923 12.9416C14.0252 12.8394 14.0252 12.6742 13.9244 12.572L11.2028 9.8518ZM9.744 8.9908C9.5438 9.2512 9.3184 9.4892 9.0692 9.7006C8.26 10.388 7.2142 10.8052 6.0718 10.8052C3.5112 10.8052 1.428 8.722 1.428 6.1628C1.428 3.6036 3.5112 1.519 6.0718 1.519C8.631 1.519 10.7142 3.6022 10.7142 6.1628C10.7142 7.2268 10.3488 8.2068 9.744 8.9908Z" fill="#878A92"/>
</svg>
