<svg id="_0" data-name="0" xmlns="http://www.w3.org/2000/svg" xmlns:xlink="http://www.w3.org/1999/xlink" width="20" height="16" viewBox="0 0 20 16">
  <defs>
    <style>
      .cls-1 {
        fill: #dc4646;
        filter: url(#filter);
      }

      .cls-2 {
        fill: #fff;
        fill-rule: evenodd;
      }
    </style>
    <filter id="filter" x="0" y="0" width="20" height="16" filterUnits="userSpaceOnUse">
      <feFlood result="flood" flood-color="#2bae2f"/>
      <feComposite result="composite" operator="in" in2="SourceGraphic"/>
      <feBlend result="blend" in2="SourceGraphic"/>
    </filter>
  </defs>
  <rect id="Rounded_Rectangle_1124" data-name="Rounded Rectangle 1124" class="cls-1" width="20" height="16" rx="8" ry="8"/>
  <path id="_0-2" data-name="0" class="cls-2" d="M11.648,4.647A2.162,2.162,0,0,0,9.706,3.611a2.159,2.159,0,0,0-1.95.994A5.732,5.732,0,0,0,7.117,7.65a5.621,5.621,0,0,0,.661,3.016,2.15,2.15,0,0,0,1.928,1.029,2.169,2.169,0,0,0,1.963-1,5.735,5.735,0,0,0,.642-3.04A5.6,5.6,0,0,0,11.648,4.647ZM8.422,5.16a1.348,1.348,0,0,1,1.284-.776A1.349,1.349,0,0,1,11,5.171a5.758,5.758,0,0,1,.4,2.479,5.8,5.8,0,0,1-.4,2.484,1.348,1.348,0,0,1-1.292.792,1.347,1.347,0,0,1-1.284-.781,5.751,5.751,0,0,1-.4-2.495A5.713,5.713,0,0,1,8.422,5.16Z"/>
</svg>
