<svg id="_2" data-name="2" xmlns="http://www.w3.org/2000/svg" xmlns:xlink="http://www.w3.org/1999/xlink" width="20" height="16" viewBox="0 0 20 16">
  <defs>
    <style>
      .cls-1 {
        fill: #dc4646;
        filter: url(#filter);
      }

      .cls-2 {
        fill: #fff;
        fill-rule: evenodd;
      }
    </style>
    <filter id="filter" x="0" y="0" width="20" height="16" filterUnits="userSpaceOnUse">
      <feFlood result="flood" flood-color="orange"/>
      <feComposite result="composite" operator="in" in2="SourceGraphic"/>
      <feBlend result="blend" in2="SourceGraphic"/>
    </filter>
  </defs>
  <rect id="Rounded_Rectangle_1124" data-name="Rounded Rectangle 1124" class="cls-1" width="20" height="16" rx="8" ry="8"/>
  <path id="_2-2" data-name="2" class="cls-2" d="M12.268,10.76H8.229V10.717L9.948,9.035a9.379,9.379,0,0,0,1.568-1.848,2.94,2.94,0,0,0,.419-1.477,1.949,1.949,0,0,0-.628-1.523,2.5,2.5,0,0,0-1.735-.567,3.62,3.62,0,0,0-2.363.9L7.681,5.131a3.693,3.693,0,0,1,.975-0.585,2.66,2.66,0,0,1,.927-0.161,1.461,1.461,0,0,1,1.058.368,1.32,1.32,0,0,1,.381,1,2.276,2.276,0,0,1-.15.833,3.479,3.479,0,0,1-.451.795A15.236,15.236,0,0,1,9.174,8.74L7.107,10.819v0.768h5.162V10.76Z"/>
</svg>
