<svg id="_3" data-name="3" xmlns="http://www.w3.org/2000/svg" width="20" height="16" viewBox="0 0 20 16">
  <defs>
    <style>
      .cls-1 {
        fill: #dc4646;
      }

      .cls-2 {
        fill: #fff;
        fill-rule: evenodd;
      }
    </style>
  </defs>
  <rect id="Rounded_Rectangle_1124" data-name="Rounded Rectangle 1124" class="cls-1" width="20" height="16" rx="8" ry="8"/>
  <path id="_3-2" data-name="3" class="cls-2" d="M11.339,4.145a2.716,2.716,0,0,0-1.778-.524,4.05,4.05,0,0,0-1.329.218,3.761,3.761,0,0,0-1.115.6l0.451,0.6A4.353,4.353,0,0,1,8.61,4.524a3.307,3.307,0,0,1,.972-0.14,1.627,1.627,0,0,1,1.072.328,1.109,1.109,0,0,1,.395.9,1.331,1.331,0,0,1-.537,1.125,2.361,2.361,0,0,1-1.456.406H8.272V7.913H9.045q2.245,0,2.245,1.429,0,1.6-2.036,1.6a5.144,5.144,0,0,1-2.181-.516V11.27a3.9,3.9,0,0,0,1.007.33,6.419,6.419,0,0,0,1.141.094,3.542,3.542,0,0,0,2.213-.6,2.056,2.056,0,0,0,.779-1.727A1.771,1.771,0,0,0,11.758,8.1a2.248,2.248,0,0,0-1.4-.6V7.451a2.111,2.111,0,0,0,1.2-.639,1.791,1.791,0,0,0,.422-1.23A1.764,1.764,0,0,0,11.339,4.145Z"/>
</svg>
