<svg id="ok" xmlns="http://www.w3.org/2000/svg" xmlns:xlink="http://www.w3.org/1999/xlink" width="16" height="16" viewBox="0 0 16 16">
  <defs>
    <style>
      .cls-1, .cls-2 {
        fill: #dc4646;
      }

      .cls-1 {
        filter: url(#filter);
      }

      .cls-2 {
        fill-rule: evenodd;
        filter: url(#filter-2);
      }
    </style>
    <filter id="filter" x="0" y="0" width="16" height="16" filterUnits="userSpaceOnUse">
      <feFlood result="flood" flood-color="#2bae2f"/>
      <feComposite result="composite" operator="in" in2="SourceGraphic"/>
      <feBlend result="blend" in2="SourceGraphic"/>
    </filter>
    <filter id="filter-2" x="3" y="5" width="10" height="8" filterUnits="userSpaceOnUse">
      <feFlood result="flood" flood-color="#fff"/>
      <feComposite result="composite" operator="in" in2="SourceGraphic"/>
      <feBlend result="blend" in2="SourceGraphic"/>
    </filter>
  </defs>
  <circle class="cls-1" cx="8" cy="8" r="8"/>
  <path class="cls-2" d="M6.66,13.011a0.916,0.916,0,0,1-.68-0.309L3.29,9.743a1.132,1.132,0,0,1,0-1.494,0.9,0.9,0,0,1,1.359,0L6.66,10.46l4.7-5.169a0.9,0.9,0,0,1,1.359,0,1.132,1.132,0,0,1,0,1.494L7.34,12.7A0.916,0.916,0,0,1,6.66,13.011Z"/>
</svg>
