<?xml version="1.0" encoding="UTF-8" standalone="no"?>
<!-- Created with Inkscape (http://www.inkscape.org/) -->

<svg
   xmlns:dc="http://purl.org/dc/elements/1.1/"
   xmlns:cc="http://creativecommons.org/ns#"
   xmlns:rdf="http://www.w3.org/1999/02/22-rdf-syntax-ns#"
   xmlns:svg="http://www.w3.org/2000/svg"
   xmlns="http://www.w3.org/2000/svg"
   version="1.1"
   width="17"
   height="17"
   viewBox="0 0 16.033789 16.033789"
   id="Capa_1"
   xml:space="preserve"><metadata
     id="metadata45"><rdf:RDF><cc:Work
         rdf:about=""><dc:format>image/svg+xml</dc:format><dc:type
           rdf:resource="http://purl.org/dc/dcmitype/StillImage" /><dc:title></dc:title></cc:Work></rdf:RDF></metadata><defs
     id="defs43" /><g
     transform="matrix(0.03673873,0,0,0.03673873,-1.3252683,-1.7073438)"
     id="g3"><g
       transform="matrix(0.95449998,0,0,0.90376355,22.179074,46.472584)"
       id="g5"><path
         d="m 239.7,260.2 c 38.65386,1.99273 76.378,-21.59537 90.95425,-57.53406 17.67412,-41.53569 18.95909,-89.35307 8.43794,-132.850315 C 328.87309,29.938244 290.47638,1.9662477 249.97559,0.35566406 206.87335,-3.9658399 160.45199,19.917321 146.16599,62.272412 132.9385,103.44926 134.3512,149.26023 147.17597,190.39616 c 11.20337,37.22985 44.55115,67.8994 84.43164,69.40515 2.69207,0.22246 5.3916,0.3526 8.09239,0.39869 z M 164.6,107.3 c 0.11133,-31.983552 16.45651,-67.221055 49.47781,-76.226001 35.51214,-11.406976 82.17769,1.096699 96.28952,38.600464 11.93385,33.962777 10.31611,71.964837 1.5732,106.491687 -7.10188,30.54601 -33.31202,57.42267 -66.05862,56.91656 -30.25062,3.1628 -60.40497,-15.18635 -70.55056,-44.09472 C 164.81924,163.30483 162.65037,134.75905 164.6,107.3 z"
         id="path7"
         style="fill:#6e6e6e" /><path
         d="m 446.8,383.6 c 0.75198,-31.56857 -8.61264,-69.86346 -41.45333,-82.22198 -32.02807,-8.7725 -62.64218,-22.54594 -90.32948,-40.92099 -24.31428,-6.90867 -22.61134,28.65486 -1.21887,31.06821 25.9366,15.9574 54.45459,27.2066 83.53244,35.82098 24.20039,13.08404 22.48376,44.65425 22.37061,68.37644 5.49094,27.69631 -28.31126,29.69134 -46.59344,38.90343 -96.85405,32.47735 -207.0559,28.83665 -299.694063,-15.31867 -19.419036,-12.99092 -8.249012,-46.58062 -6.729785,-67.37234 6.484148,-31.2066 43.460698,-28.63022 65.916188,-41.55703 18.07367,-9.72286 40.08191,-16.69712 53.25832,-32.80774 4.94004,-25.63736 -26.7283,-18.08434 -37.17825,-5.47547 -23.26581,14.09889 -49.3036,22.22627 -74.834588,30.85272 -32.899595,15.34981 -38.893302,55.519 -37.736377,87.93994 -0.148704,20.49176 1.061515,46.4783 25.139063,52.525 92.952062,44.91162 202.817562,50.27274 301.629052,22.78916 26.69339,-8.34822 54.12063,-17.46212 77.01001,-33.83916 7.74793,-14.51855 6.34137,-32.75168 6.9125,-48.7625 z"
         id="path9"
         style="fill:#6e6e6e" /></g></g><g
     transform="translate(0,-466.86622)"
     id="g11" /><g
     transform="translate(0,-466.86622)"
     id="g13" /><g
     transform="translate(0,-466.86622)"
     id="g15" /><g
     transform="translate(0,-466.86622)"
     id="g17" /><g
     transform="translate(0,-466.86622)"
     id="g19" /><g
     transform="translate(0,-466.86622)"
     id="g21" /><g
     transform="translate(0,-466.86622)"
     id="g23" /><g
     transform="translate(0,-466.86622)"
     id="g25" /><g
     transform="translate(0,-466.86622)"
     id="g27" /><g
     transform="translate(0,-466.86622)"
     id="g29" /><g
     transform="translate(0,-466.86622)"
     id="g31" /><g
     transform="translate(0,-466.86622)"
     id="g33" /><g
     transform="translate(0,-466.86622)"
     id="g35" /><g
     transform="translate(0,-466.86622)"
     id="g37" /><g
     transform="translate(0,-466.86622)"
     id="g39" /></svg>