<svg xmlns="http://www.w3.org/2000/svg" width="10.031" height="19" viewBox="0 0 10.031 19">
  <defs>
    <style>
      .cls-1 {
        fill: #fff;
        fill-rule: evenodd;
      }
    </style>
  </defs>
  <path id="arr-left" class="cls-1" d="M832.992,1222.5a1.4,1.4,0,0,0,.362.95l7.655,8.19a1.1,1.1,0,0,0,.815.37,1.107,1.107,0,0,0,.849-0.4,1.425,1.425,0,0,0-.032-1.86l-6.771-7.25,6.771-7.25a1.412,1.412,0,0,0,.032-1.85,1.1,1.1,0,0,0-1.664-.04l-7.655,8.2A1.392,1.392,0,0,0,832.992,1222.5Z" transform="translate(-833 -1213)"/>
</svg>
