<svg xmlns="http://www.w3.org/2000/svg" width="10" height="19" viewBox="0 0 10 19">
  <defs>
    <style>
      .cls-1 {
        fill: #fff;
        fill-rule: evenodd;
      }
    </style>
  </defs>
  <path id="arr-right" class="cls-1" d="M960.005,1222.5a1.4,1.4,0,0,1-.361.95l-7.655,8.19a1.1,1.1,0,0,1-.816.37,1.109,1.109,0,0,1-.849-0.4,1.427,1.427,0,0,1,.032-1.86l6.772-7.25-6.772-7.25a1.414,1.414,0,0,1-.032-1.85,1.1,1.1,0,0,1,1.665-.04l7.655,8.2A1.391,1.391,0,0,1,960.005,1222.5Z" transform="translate(-950 -1213)"/>
</svg>
