<svg xmlns="http://www.w3.org/2000/svg" xmlns:xlink="http://www.w3.org/1999/xlink" width="18" height="19" viewBox="0 0 18 19">
  <defs>
    <style>
      .cls-1 {
        fill: #a7a7a7;
        fill-rule: evenodd;
        filter: url(#filter);
      }
    </style>
    <filter id="filter" x="315" y="192" width="18" height="19" filterUnits="userSpaceOnUse">
      <feFlood result="flood" flood-color="#5f6167"/>
      <feComposite result="composite" operator="in" in2="SourceGraphic"/>
      <feBlend result="blend" in2="SourceGraphic"/>
    </filter>
  </defs>
  <path id="aufnahmedatum" class="cls-1" d="M324.6,193.781v-1.187a0.6,0.6,0,0,0-1.2,0v1.187a0.6,0.6,0,0,0,1.2,0m-7.8,6.531h-1.2a0.594,0.594,0,1,0,0,1.188h1.2a0.594,0.594,0,1,0,0-1.188m15.6,0h-1.2a0.594,0.594,0,1,0,0,1.188h1.2a0.594,0.594,0,1,0,0-1.188m-2.885-5.7-0.848.84a0.589,0.589,0,0,0,0,.84,0.605,0.605,0,0,0,.848,0l0.848-.84a0.589,0.589,0,0,0,0-.84,0.605,0.605,0,0,0-.848,0m-11.879.84,0.848,0.84a0.607,0.607,0,0,0,.849,0,0.59,0.59,0,0,0,0-.84l-0.849-.84a0.605,0.605,0,0,0-.848,0,0.589,0.589,0,0,0,0,.84M330,207.437h-0.6v-6.531a5.4,5.4,0,0,0-10.8,0v6.531H318a1.79,1.79,0,0,0-1.8,1.782v1.187a0.6,0.6,0,0,0,.175.42,0.61,0.61,0,0,0,.425.174h14.4a0.61,0.61,0,0,0,.425-0.174,0.6,0.6,0,0,0,.176-0.42v-1.187A1.792,1.792,0,0,0,330,207.437Zm-10.2-6.531a4.123,4.123,0,0,1,1.231-2.938,4.226,4.226,0,0,1,5.937,0,4.119,4.119,0,0,1,1.231,2.938v6.531h-8.4v-6.531Zm10.8,8.906H317.4v-0.593a0.6,0.6,0,0,1,.6-0.594h12a0.6,0.6,0,0,1,.6.594v0.593Zm-4.2-8.312a0.6,0.6,0,0,1-.6-0.594,1.792,1.792,0,0,0-1.8-1.781,0.594,0.594,0,1,1,0-1.188,2.988,2.988,0,0,1,3,2.969A0.6,0.6,0,0,1,326.4,201.5Z" transform="translate(-315 -192)"/>
</svg>
