<svg xmlns="http://www.w3.org/2000/svg" width="23" height="23" viewBox="0 0 23 23">
  <defs>
    <style>
      .cls-1 {
        fill: #00a2ff;
        fill-rule: evenodd;
      }
    </style>
  </defs>
  <path id="cross-blue" class="cls-1" d="M3355.96,73a2.023,2.023,0,0,0,1.44-3.466l-8.03-8.034,8.03-8.034a2.039,2.039,0,0,0-2.88-2.886l-8.03,8.036-8.03-8.036a2.023,2.023,0,0,0-1.44-.579,2.023,2.023,0,0,0-1.44,3.466l8.03,8.034-8.03,8.035a2.042,2.042,0,0,0,2.89,2.885l8.02-8.035,8.03,8.036A2.039,2.039,0,0,0,3355.96,73Z" transform="translate(-3335 -50)"/>
</svg>
