<svg xmlns="http://www.w3.org/2000/svg" width="18" height="18" viewBox="0 0 18 18">
  <defs>
    <style>
      .cls-1 {
        fill: #5f6167;
        fill-rule: evenodd;
      }
    </style>
  </defs>
  <path id="gewicht" class="cls-1" d="M539.93,258.25q-1.077-4.373-2.192-8.734a2.034,2.034,0,0,0-1.59-1.555,2.5,2.5,0,0,0-.547-0.05c-0.747-.006-1.532,0-2.266,0v-0.844h0.308c0.962,0,1.923.022,2.884,0.01a3.2,3.2,0,0,0,3.077-3.208,0.8,0.8,0,0,0-.82-0.868q-7.783,0-15.567,0a0.8,0.8,0,0,0-.822.869,3.2,3.2,0,0,0,3.074,3.205c0.969,0.012,1.939-.01,2.908-0.01h0.242v0.845c-0.838,0-1.582,0-2.364,0a2.086,2.086,0,0,0-2,1.6q-1.107,4.363-2.187,8.735a2.171,2.171,0,0,0,2.039,2.747q6.891,0.009,13.783,0A2.17,2.17,0,0,0,539.93,258.25ZM525.6,245.861a1.98,1.98,0,0,1-1.714-1.622h14.23c0.18,0.628-.857,1.451-1.259,1.564a1.683,1.683,0,0,1-.459.056Q531,245.864,525.6,245.861Zm6.164,1.2V247.9h-1.572v-0.837h1.572Zm6.364,12.54q-3.546,0-7.093,0h-7.041a0.619,0.619,0,0,1-.654-0.89q1.1-4.5,2.2-8.991a0.61,0.61,0,0,1,.689-0.572q4.809,0,9.618,0a0.607,0.607,0,0,1,.693.565q1.107,4.507,2.21,9.017A0.611,0.611,0,0,1,538.127,259.6Zm-7.1-9.242a4.093,4.093,0,1,0,3.888,4.094A4.007,4.007,0,0,0,531.023,250.362Zm-0.046,6.608a2.529,2.529,0,1,1,2.533-2.529A2.53,2.53,0,0,1,530.977,256.97Zm0.053-4.674a0.628,0.628,0,0,0-.629.628v1.569a0.629,0.629,0,0,0,1.257,0v-1.569A0.628,0.628,0,0,0,531.03,252.3Z" transform="translate(-522 -243)"/>
</svg>
