<svg xmlns="http://www.w3.org/2000/svg" xmlns:xlink="http://www.w3.org/1999/xlink" width="22" height="23" viewBox="0 0 22 23">
  <defs>
    <style>
      .cls-1 {
        fill: #0b092a;
        fill-rule: evenodd;
        filter: url(#filter);
      }
    </style>
    <filter id="filter" x="1306" y="201" width="22" height="23" filterUnits="userSpaceOnUse">
      <feFlood result="flood" flood-color="#383838"/>
      <feComposite result="composite" operator="in" in2="SourceGraphic"/>
      <feBlend result="blend" in2="SourceGraphic"/>
    </filter>
  </defs>
  <path id="TODO" class="cls-1" d="M1313.33,219.49H1328v-0.9h-14.67v0.9Zm0.46,2.255h12.83v-0.9h-12.83v0.9Zm0,1.8h12.83v-0.9h-12.83v0.9Zm-1.83-4.961a0.458,0.458,0,0,0-.46-0.451h-5.04a0.452,0.452,0,0,0-.46.451v4.961a0.452,0.452,0,0,0,.46.451h5.04a0.458,0.458,0,0,0,.46-0.451v-4.961Zm-0.92,4.51h-4.12v-4.059h4.12V223.1Zm2.29-12.177H1328v-0.9h-14.67v0.9Zm13.29,1.353h-12.83v0.9h12.83v-0.9Zm-12.83,2.706h12.83v-0.9h-12.83v0.9Zm-0.46-13.529v0.9H1328v-0.9h-14.67Zm13.29,2.254h-12.83v0.9h12.83v-0.9Zm-12.83,2.706h12.83v-0.9h-12.83v0.9Zm-7.33.452h5.04a0.459,0.459,0,0,0,.46-0.452v-4.96a0.458,0.458,0,0,0-.46-0.451h-5.04a0.452,0.452,0,0,0-.46.451v4.96A0.453,0.453,0,0,0,1306.46,206.863Zm0.14-3.305a0.622,0.622,0,0,1,.85,0l0.8,0.786,2.22-2.184a0.622,0.622,0,0,1,.85,0,0.593,0.593,0,0,1,0,.836l-2.65,2.6a0.588,0.588,0,0,1-.42.173,0.626,0.626,0,0,1-.43-0.174l-1.22-1.2A0.577,0.577,0,0,1,1306.6,203.558Zm-0.14,11.873h5.04a0.458,0.458,0,0,0,.46-0.451v-4.961a0.458,0.458,0,0,0-.46-0.451h-5.04a0.452,0.452,0,0,0-.46.451v4.961A0.452,0.452,0,0,0,1306.46,215.431Zm0.14-3.305a0.624,0.624,0,0,1,.85,0l0.8,0.787,2.22-2.185a0.623,0.623,0,0,1,.85,0,0.593,0.593,0,0,1,0,.836l-2.65,2.6a0.585,0.585,0,0,1-.42.174,0.626,0.626,0,0,1-.43-0.174l-1.22-1.2A0.578,0.578,0,0,1,1306.6,212.126Z" transform="translate(-1306 -201)"/>
</svg>
