<svg xmlns="http://www.w3.org/2000/svg" width="26" height="23" viewBox="0 0 26 23">
  <defs>
    <style>
      .cls-1 {
        fill: #2bae2f;
        fill-rule: evenodd;
      }
    </style>
  </defs>
  <path id="calendar-green" class="cls-1" d="M1327.39,252.781h-3.12V251.9a0.925,0.925,0,0,0-1.85,0v0.878h-10.68V251.9a0.93,0.93,0,0,0-1.86,0v0.878h-3.11a2.788,2.788,0,0,0-2.77,2.732v15.8a2.752,2.752,0,0,0,2.77,2.69h20.62a2.622,2.622,0,0,0,2.61-2.69v-15.8A2.658,2.658,0,0,0,1327.39,252.781Zm-20.62,1.859h3.11v0.873a0.93,0.93,0,0,0,1.86,0V254.64h10.68v0.873a0.925,0.925,0,0,0,1.85,0V254.64h3.12a0.89,0.89,0,0,1,.91.873V258.2h-22.44v-2.689A0.884,0.884,0,0,1,1306.77,254.64Zm20.62,17.5h-20.62a0.851,0.851,0,0,1-.91-0.832V260.06h22.44v11.249A0.857,0.857,0,0,1,1327.39,272.141Z" transform="translate(-1304 -251)"/>
</svg>
