<svg xmlns="http://www.w3.org/2000/svg" width="18" height="18" viewBox="0 0 18 18">
  <defs>
    <style>
      .cls-1 {
        fill: #1b1b1b;
         
        fill-rule: evenodd;
      }
    </style>
  </defs>
  <path id="info-black" class="cls-1" d="M1056.5,148a8.5,8.5,0,1,1,8.5-8.5A8.508,8.508,0,0,1,1056.5,148Zm0-15.828a7.328,7.328,0,1,0,7.33,7.328A7.338,7.338,0,0,0,1056.5,132.172Zm0,11.285a0.592,0.592,0,0,1-.59-0.586v-4.543a0.59,0.59,0,0,1,1.18,0v4.543A0.592,0.592,0,0,1,1056.5,143.457Zm-0.04-6.595a0.584,0.584,0,0,1-.58-0.586V136.2a0.585,0.585,0,1,1,1.17,0v0.073A0.586,0.586,0,0,1,1056.46,136.862Z" transform="translate(-1047.5 -130.5)"/>
</svg>
