<?xml version="1.0" encoding="iso-8859-1"?>
<!-- Generator: Adobe Illustrator 19.0.0, SVG Export Plug-In . SVG Version: 6.00 Build 0)  -->
<svg version="1.1" id="Capa_1" xmlns="http://www.w3.org/2000/svg" xmlns:xlink="http://www.w3.org/1999/xlink" x="0px" y="0px"
	 viewBox="0 0 512 512" style="enable-background:new 0 0 512 512;" xml:space="preserve">
<g>
	<g>
		<path d="M491.992,0H372c-11.046,0-20,8.954-20,20s8.954,20,20,20h71.716L275.179,208.536C246.222,185.667,209.678,172,170,172
			C76.262,172,0,248.262,0,342s76.262,170,170,170s170-76.262,170-170c0-39.678-13.667-76.222-36.537-105.18L472,68.284V140
			c0,11.046,8.954,20,20,20c11.046,0,20-8.954,20-20V20C512,9.113,503.121-0.004,491.992,0z M170,472c-71.682,0-130-58.318-130-130
			s58.318-130,130-130c71.681,0,130,58.341,130,130C300,413.682,241.682,472,170,472z"/>
	</g>
</g>
<g>
</g>
<g>
</g>
<g>
</g>
<g>
</g>
<g>
</g>
<g>
</g>
<g>
</g>
<g>
</g>
<g>
</g>
<g>
</g>
<g>
</g>
<g>
</g>
<g>
</g>
<g>
</g>
<g>
</g>
</svg>
