<svg xmlns="http://www.w3.org/2000/svg" width="27" height="25" viewBox="0 0 27 25">
  <defs>
    <style>
      .cls-1 {
        fill: #5f6167;
        fill-rule: evenodd;
      }
    </style>
  </defs>
  <path id="messages" class="cls-1" d="M1426.5,47.072a2.118,2.118,0,1,0,2.1,2.118A2.11,2.11,0,0,0,1426.5,47.072Zm-6,0a2.118,2.118,0,1,0,2.1,2.118A2.11,2.11,0,0,0,1420.5,47.072Zm6-9.078c-7.44,0-13.5,5.023-13.5,11.2a10.2,10.2,0,0,0,3.7,7.7L1415.28,63l7.54-3.044a16.123,16.123,0,0,0,3.68.428c7.44,0,13.5-5.023,13.5-11.2S1433.94,37.993,1426.5,37.993Zm0,20.578a14.409,14.409,0,0,1-3.36-.4,1.476,1.476,0,0,0-.9.067l-4.42,1.783,0.68-2.9a1.508,1.508,0,0,0-.5-1.5,8.467,8.467,0,0,1-3.2-6.429c0-5.173,5.25-9.381,11.7-9.381s11.7,4.208,11.7,9.381S1432.95,58.571,1426.5,58.571Zm6-11.5a2.118,2.118,0,1,0,2.1,2.118A2.11,2.11,0,0,0,1432.5,47.072Z" transform="translate(-1413 -38)"/>
</svg>
