<svg xmlns="http://www.w3.org/2000/svg" viewBox="749 942 12 10.435"><defs><style>.a{fill:#8e8e8e;}</style></defs><path class="a" d="M11.478,0H.522A.523.523,0,0,0,0,.522V7.187A.512.512,0,0,0,.522,7.7h6.13V9.913a.566.566,0,0,0,.365.5.507.507,0,0,0,.2.026.535.535,0,0,0,.4-.183L9.783,7.7h1.7A.512.512,0,0,0,12,7.187V.522A.523.523,0,0,0,11.478,0Zm-.522,6.652H9.548a.648.648,0,0,0-.43.183L7.7,8.491v-1.3a.493.493,0,0,0-.47-.535H1.043V1.043h9.913ZM2.426,2.87a.523.523,0,0,1,.522-.522H6.73a.522.522,0,1,1,0,1.043H2.948A.523.523,0,0,1,2.426,2.87Zm5.726.4A.548.548,0,0,1,8,2.909a.474.474,0,0,1,.157-.365.515.515,0,0,1,.365-.157.474.474,0,0,1,.365.157.548.548,0,0,1,.157.365.474.474,0,0,1-.157.365.515.515,0,0,1-.365.157A.655.655,0,0,1,8.152,3.274Z" transform="translate(749 942)"/></svg>