<svg xmlns="http://www.w3.org/2000/svg" viewBox="1065 759 17.333 17.247"><defs><style>.a{fill:#fff;}</style></defs><g transform="translate(1065.025 758.925)"><path class="a" d="M.85,17.322a.853.853,0,0,1-.6-.259.871.871,0,0,1-.259-.778l.907-5.227a1.03,1.03,0,0,1,.259-.475L11.347.431a1.388,1.388,0,0,1,1.858,0L16.92,4.146a1.243,1.243,0,0,1,.389.907,1.177,1.177,0,0,1-.389.907L6.725,16.112a1.03,1.03,0,0,1-.475.259l-5.27.907A.159.159,0,0,1,.85,17.322Zm1.728-5.7L1.93,15.378l3.758-.648.13-.13,9.59-9.59L12.3,1.9Z" transform="translate(0 0)"/><path class="a" d="M24.084,13.048a.853.853,0,0,1-.6-.259l-4.32-4.32a.855.855,0,0,1,1.21-1.21l4.32,4.32a.835.835,0,0,1,0,1.21A.784.784,0,0,1,24.084,13.048Z" transform="translate(-10.75 -3.934)"/></g></svg>