<svg width="24" height="24" viewBox="0 0 24 24" fill="none" xmlns="http://www.w3.org/2000/svg">
<rect width="24" height="24" rx="12" fill="white"/>
<g clip-path="url(#clip0)">
<path d="M16.5 11.5H12.5V7.49997C12.5 7.22403 12.276 7 12 7C11.724 7 11.5 7.22403 11.5 7.49997V11.5H7.49997C7.22403 11.5 7 11.724 7 12C7 12.276 7.22403 12.5 7.49997 12.5H11.5V16.5C11.5 16.776 11.724 17 12 17C12.276 17 12.5 16.776 12.5 16.5V12.5H16.5C16.776 12.5 17 12.276 17 12C17 11.724 16.776 11.5 16.5 11.5Z" fill="#009FE4"/>
</g>
<defs>
<clipPath id="clip0">
<rect width="10" height="10" fill="white" transform="translate(7 7)"/>
</clipPath>
</defs>
</svg>
