<svg height="512" viewBox="0 0 64 64" width="512" xmlns="http://www.w3.org/2000/svg"><g id="insurance-clipboard-document-report-security"><path d="m24 5a3 3 0 1 0 3 3 3 3 0 0 0 -3-3zm0 4a1 1 0 1 1 1-1 1 1 0 0 1 -1 1z"/><path d="m11 33h4v2h-4z"/><path d="m17 33h15v2h-15z"/><path d="m11 39h4v2h-4z"/><path d="m11 45h4v2h-4z"/><path d="m11 51h4v2h-4z"/><path d="m61 35h-1a15.113 15.113 0 0 1 -9-3l-2.4-1.8a.99.99 0 0 0 -1.2 0l-1.4 1.05v-20.25a3.009 3.009 0 0 0 -3-3h-8.18a3.01 3.01 0 0 0 -2.82-2h-2.34a6 6 0 0 0 -11.32 0h-2.34a3.01 3.01 0 0 0 -2.82 2h-8.18a3.009 3.009 0 0 0 -3 3v48a3.009 3.009 0 0 0 3 3h38a3.016 3.016 0 0 0 2.35-1.15l2.22 1.05a.975.975 0 0 0 .86 0l8.78-4.17a8.961 8.961 0 0 0 4.79-7.95v-13.78a1 1 0 0 0 -1-1zm-26-25h8a1 1 0 0 1 1 1v21.69a15.237 15.237 0 0 1 -2 1.05v-20.74a1 1 0 0 0 -1-1h-6zm-20-1a1 1 0 0 1 1-1h3.1a.988.988 0 0 0 .98-.8 4 4 0 0 1 7.84 0 .988.988 0 0 0 .98.8h3.1a1 1 0 0 1 1 1v4h-18zm-1 6h20a1 1 0 0 0 1-1h5v20.44a15.03 15.03 0 0 1 -4 .56h-1a1 1 0 0 0 -1 1v3h-17v2h17v4h-17v2h17v2.78a9.867 9.867 0 0 0 .08 1.22h-17.08v2h17.61a9.027 9.027 0 0 0 1.91 3h-28.52v-42h5a1 1 0 0 0 1 1zm29 45h-38a1 1 0 0 1 -1-1v-48a1 1 0 0 1 1-1h8v2h-6a1 1 0 0 0 -1 1v44a1 1 0 0 0 1 1h32.36l4.02 1.91a1.007 1.007 0 0 1 -.38.09zm17-10.22a6.953 6.953 0 0 1 -3.69 6.16l-8.31 3.95-8.29-3.94a6.975 6.975 0 0 1 -3.71-6.17v-12.78a17.1 17.1 0 0 0 10.2-3.4l1.8-1.35 1.8 1.35a17.1 17.1 0 0 0 10.2 3.4z"/><path d="m30 21h-3v-3a1 1 0 0 0 -1-1h-4a1 1 0 0 0 -1 1v3h-3a1 1 0 0 0 -1 1v4a1 1 0 0 0 1 1h3v3a1 1 0 0 0 1 1h4a1 1 0 0 0 1-1v-3h3a1 1 0 0 0 1-1v-4a1 1 0 0 0 -1-1zm-1 4h-3a1 1 0 0 0 -1 1v3h-2v-3a1 1 0 0 0 -1-1h-3v-2h3a1 1 0 0 0 1-1v-3h2v3a1 1 0 0 0 1 1h3z"/><path d="m57.15 38.78a19.042 19.042 0 0 1 -8.55-3.58.99.99 0 0 0 -1.2 0 19.042 19.042 0 0 1 -8.55 3.58 1.008 1.008 0 0 0 -.85.99v10.01a4.994 4.994 0 0 0 2.58 4.37l.06.03 6.93 3.29a.975.975 0 0 0 .86 0l6.99-3.32a5.006 5.006 0 0 0 2.58-4.37v-10.01a1.008 1.008 0 0 0 -.85-.99zm-1.15 11a2.959 2.959 0 0 1 -1.5 2.59l-6.5 3.09-6.48-3.07a3 3 0 0 1 -1.52-2.61v-9.17a21.108 21.108 0 0 0 8-3.38 21.108 21.108 0 0 0 8 3.38z"/><path d="m43.707 47.293-1.414 1.414 3 3a1 1 0 0 0 1.414 0l8-8-1.414-1.414-7.293 7.293z"/></g></svg>