<svg width="18" height="18" viewBox="0 0 18 18" fill="none" xmlns="http://www.w3.org/2000/svg">
<path d="M15.4997 1.5003H13.9993V0H12.9994V1.5003H4.99975V0H3.9998V1.5003H2.50032C1.12172 1.5003 0 2.62196 0 4.00049V15.4998C0 16.8783 1.12172 18 2.50032 18H15.4997C16.8783 18 18 16.8783 18 15.4998V6.4998V5.4999V3.99961C17.9991 2.62107 16.8774 1.5003 15.4997 1.5003ZM16.9992 15.4989C16.9992 16.3255 16.3263 16.9983 15.4997 16.9983H2.50032C1.67281 16.9983 0.999951 16.3255 0.999951 15.4989V6.4998H16.9992V15.4989ZM16.9992 5.4999H0.999951V3.99961C0.999951 3.17213 1.67281 2.49931 2.50032 2.49931H4.00069V3.49921H4.99975V2.5002H12.9994V3.5001H13.9993V2.5002H15.4997C16.3263 2.5002 16.9992 3.17213 16.9992 3.99961V5.4999Z" fill="#333333"/>
<path d="M10.4212 8.25H9.51681C9.23256 8.25 9 8.4756 9 8.75134C9 9.02708 9.23256 9.25268 9.51681 9.25268H10.4212C10.7055 9.25268 10.938 9.02708 10.938 8.75134C10.938 8.4756 10.7106 8.25 10.4212 8.25Z" fill="#333333"/>
<path d="M14.1722 8.25H13.2678C12.9835 8.25 12.751 8.4756 12.751 8.75134C12.751 9.02708 12.9835 9.25268 13.2678 9.25268H14.1722C14.4564 9.25268 14.689 9.02708 14.689 8.75134C14.689 8.4756 14.4616 8.25 14.1722 8.25Z" fill="#333333"/>
<path d="M6.67122 8.25H5.76681C5.48256 8.25 5.25 8.4756 5.25 8.75134C5.25 9.02708 5.48256 9.25268 5.76681 9.25268H6.67122C6.95546 9.25268 7.18802 9.02708 7.18802 8.75134C7.18802 8.4756 6.96063 8.25 6.67122 8.25Z" fill="#333333"/>
<path d="M3.67122 11.25H2.76681C2.48256 11.25 2.25 11.4756 2.25 11.7513C2.25 12.0271 2.48256 12.2527 2.76681 12.2527H3.67122C3.95546 12.2527 4.18802 12.0271 4.18802 11.7513C4.18802 11.4756 3.96063 11.25 3.67122 11.25Z" fill="#333333"/>
<path d="M7.42122 11.25H6.51681C6.23256 11.25 6 11.4756 6 11.7513C6 12.0271 6.23256 12.2527 6.51681 12.2527H7.42122C7.70546 12.2527 7.93802 12.0271 7.93802 11.7513C7.93802 11.4756 7.71063 11.25 7.42122 11.25Z" fill="#333333"/>
<path d="M3.67122 14.25H2.76681C2.48256 14.25 2.25 14.4756 2.25 14.7513C2.25 15.0271 2.48256 15.2527 2.76681 15.2527H3.67122C3.95546 15.2527 4.18802 15.0271 4.18802 14.7513C4.18802 14.4756 3.96063 14.25 3.67122 14.25Z" fill="#333333"/>
<path d="M11.1712 11.25H10.2668C9.98256 11.25 9.75 11.4756 9.75 11.7513C9.75 12.0271 9.98256 12.2527 10.2668 12.2527H11.1712C11.4555 12.2527 11.688 12.0271 11.688 11.7513C11.688 11.4756 11.4606 11.25 11.1712 11.25Z" fill="#333333"/>
<path d="M7.42122 14.25H6.51681C6.23256 14.25 6 14.4756 6 14.7513C6 15.0271 6.23256 15.2527 6.51681 15.2527H7.42122C7.70546 15.2527 7.93802 15.0271 7.93802 14.7513C7.93802 14.4756 7.71063 14.25 7.42122 14.25Z" fill="#333333"/>
<path d="M14.9222 11.25H14.0178C13.7335 11.25 13.501 11.4756 13.501 11.7513C13.501 12.0271 13.7335 12.2527 14.0178 12.2527H14.9222C15.2064 12.2527 15.439 12.0271 15.439 11.7513C15.439 11.4756 15.2116 11.25 14.9222 11.25Z" fill="#333333"/>
<path d="M11.1712 14.25H10.2668C9.98256 14.25 9.75 14.4756 9.75 14.7513C9.75 15.0271 9.98256 15.2527 10.2668 15.2527H11.1712C11.4555 15.2527 11.688 15.0271 11.688 14.7513C11.688 14.4756 11.4606 14.25 11.1712 14.25Z" fill="#333333"/>
</svg>
