<svg width="20" height="20" viewBox="0 0 20 20" fill="none" xmlns="http://www.w3.org/2000/svg">
<g clip-path="url(#clip0)">
<path d="M18.4592 12.564C18.1841 12.564 17.9611 12.787 17.9611 13.0621V17.4848C17.9601 18.3097 17.2918 18.9783 16.4668 18.9791H2.49052C1.66553 18.9783 0.99718 18.3097 0.996207 17.4848V4.50468C0.99718 3.67989 1.66553 3.01134 2.49052 3.01037H6.91313C7.18826 3.01037 7.41124 2.78739 7.41124 2.51226C7.41124 2.23733 7.18826 2.01416 6.91313 2.01416H2.49052C1.11567 2.01572 0.00155657 3.12983 0 4.50468V17.4849C0.00155657 18.8598 1.11567 19.9739 2.49052 19.9755H16.4668C17.8416 19.9739 18.9558 18.8598 18.9573 17.4849V13.0621C18.9573 12.787 18.7343 12.564 18.4592 12.564Z" fill="black"/>
<path d="M18.7597 0.732217C17.8843 -0.143161 16.4651 -0.143161 15.5898 0.732217L6.70328 9.6187C6.64238 9.6796 6.59841 9.75509 6.57545 9.83798L5.40685 14.0569C5.35879 14.2299 5.40763 14.4151 5.53449 14.5421C5.66154 14.669 5.84677 14.7178 6.01975 14.67L10.2386 13.5012C10.3215 13.4782 10.397 13.4342 10.4579 13.3733L19.3442 4.48667C20.2182 3.61071 20.2182 2.19267 19.3442 1.31671L18.7597 0.732217ZM7.7886 9.94246L15.0615 2.66937L17.4071 5.01494L10.134 12.288L7.7886 9.94246ZM7.32007 10.8826L9.19399 12.7568L6.60191 13.4749L7.32007 10.8826ZM18.6399 3.78232L18.1116 4.31059L15.7659 1.96483L16.2943 1.43657C16.7805 0.950332 17.5689 0.950332 18.0552 1.43657L18.6399 2.02106C19.1253 2.50788 19.1253 3.2957 18.6399 3.78232Z" fill="black"/>
</g>
<defs>
<clipPath id="clip0">
<rect width="20" height="20" fill="white"/>
</clipPath>
</defs>
</svg>
