<svg id="Capa_1" enable-background="new 0 0 512.131 512.131" height="512" viewBox="0 0 512.131 512.131" width="512" xmlns="http://www.w3.org/2000/svg"><g><path d="m356.868 252.083c-1.342-3.091-2.265-6.351-2.745-9.689-1.248-8.672-3.646-17.153-7.126-25.209-1.642-3.801-6.053-5.554-9.859-3.91-3.803 1.643-5.553 6.057-3.91 9.859 2.954 6.838 4.989 14.037 6.048 21.396.671 4.658 1.96 9.208 3.831 13.522l16.28 37.54c6.876 15.854 4.68 33.488-5.874 47.172-8.992 11.658-22.302 18.15-36.605 18.204 4.146-8.734 6.475-18.492 6.475-28.786v-69.019c0-8.365-6.551-15.091-14.915-15.312l-42.433-1.118c-14.471-.382-28.623-5.623-39.851-14.757l-2.793-2.273c-2.606-2.121-5.88-3.089-9.222-2.735-3.341.357-6.337 1.998-8.436 4.621-11.009 13.755-17.072 31.032-17.072 48.649v51.944c0 10.294 2.329 20.051 6.475 28.786-14.302-.053-27.613-6.545-36.604-18.204-10.555-13.684-12.751-31.317-5.875-47.172l16.28-37.539c1.871-4.315 3.16-8.865 3.831-13.523 2.881-20.022 12.888-38.345 28.176-51.591s34.849-20.541 55.077-20.541c22.86 0 44.251 9.023 60.231 25.408 2.891 2.967 7.64 3.024 10.605.133s3.025-7.641.133-10.605c-18.827-19.305-44.031-29.936-70.97-29.936-23.836 0-46.885 8.596-64.899 24.204s-29.806 37.198-33.201 60.791c-.48 3.339-1.403 6.599-2.745 9.69l-16.28 37.54c-9.081 20.939-6.181 44.229 7.759 62.302 11.924 15.46 29.59 24.076 48.57 24.075 3.012 0 6.062-.226 9.123-.667 5.291 6.325 11.72 11.663 18.968 15.707v14.474l-38.347 15.384c-26.868 10.78-44.229 36.453-44.229 65.403v18.329c0 4.143 3.357 7.5 7.5 7.5s7.5-3.357 7.5-7.5v-18.329c0-22.788 13.666-42.996 34.815-51.481l34.517-13.848c4.311 12.396 16.105 21.319 29.95 21.319s25.639-8.924 29.95-21.319l34.521 13.85c.906.363 1.863.784 3.013 1.325 1.032.485 2.118.715 3.188.715 2.815 0 5.514-1.593 6.792-4.31 1.763-3.748.153-8.216-3.595-9.979-1.421-.668-2.634-1.2-3.815-1.674l-38.347-15.385v-13.409c8.067-4.151 15.196-9.871 20.968-16.772 3.062.442 6.109.667 9.123.667 18.979 0 36.647-8.616 48.57-24.075 13.939-18.072 16.84-41.362 7.759-62.302zm-85.14 158.504c0 9.211-7.494 16.705-16.706 16.705s-16.706-7.494-16.706-16.705v-13.423c5.646 1.54 11.579 2.378 17.706 2.378 5.408 0 10.663-.658 15.706-1.868zm-15.706-26.045c-28.871 0-52.36-23.488-52.36-52.359v-51.944c0-13.384 4.334-26.524 12.251-37.281l.805.655c13.784 11.213 31.158 17.646 48.922 18.115l42.432 1.118c.175.005.312.145.312.318v69.019c-.002 28.871-23.491 52.359-52.362 52.359z"/><path d="m345.886 443.801c-3.381 2.393-4.182 7.074-1.788 10.454 6.677 9.433 10.206 20.514 10.206 32.047v18.329c0 4.143 3.357 7.5 7.5 7.5s7.5-3.357 7.5-7.5v-18.329c0-14.655-4.482-28.733-12.964-40.713-2.393-3.382-7.074-4.182-10.454-1.788z"/><path d="m114.255 112.32c-16.707-11.416-37.605-13.553-57.339-5.854-14.395 5.614-25.904 17.05-31.58 31.374-3.693 9.323-5.217 18.857-4.526 28.338.302 4.131 3.882 7.239 8.025 6.936 4.131-.301 7.236-3.894 6.936-8.025-.525-7.209.656-14.518 3.511-21.723 4.146-10.464 12.561-18.819 23.086-22.925 15.044-5.868 30.873-4.314 43.425 4.264 12.268 8.382 19.591 22.243 19.591 37.077 0 9.31-2.825 18.236-8.169 25.817-.062.088-.122.178-.181.268l-25.199 39.23c-.776 1.21-1.189 2.616-1.189 4.054v3.416h-2.631v-37.547c7.618-.684 13.61-7.096 13.61-14.889v-12.307c0-8.247-6.71-14.957-14.957-14.957h-12.307c-8.247 0-14.957 6.71-14.957 14.957v12.307c0 7.792 5.993 14.205 13.61 14.889v37.548h-2.631v-3.416c0-1.438-.413-2.844-1.189-4.054l-22.932-35.701c-2.238-3.485-6.878-4.495-10.364-2.257-3.484 2.238-4.495 6.879-2.257 10.364l21.742 33.849v5.373c0 2.145.634 4.141 1.713 5.826v7.766c0 12.065 9.816 21.882 21.883 21.882h3.07c12.066 0 21.883-9.816 21.883-21.882v-7.766c1.079-1.685 1.713-3.681 1.713-5.826v-5.373l23.925-37.247c7.074-10.094 10.813-21.959 10.813-34.323 0-19.793-9.767-38.283-26.128-49.463zm-27.631 57.504.048 12.264-5.759.02c-.133-.007-.265-.02-.4-.02-.155 0-.307.014-.459.023l-5.651.02-.043-12.264zm2.308 82.493c0 3.795-3.088 6.882-6.883 6.882h-3.07c-3.795 0-6.883-3.087-6.883-6.882v-2.75h16.836z"/><path d="m255.022 133.167c36.715 0 66.584-29.869 66.584-66.584 0-36.714-29.869-66.583-66.584-66.583s-66.584 29.869-66.584 66.583c0 36.715 29.869 66.584 66.584 66.584zm0-118.167c28.443 0 51.584 23.14 51.584 51.583s-23.141 51.584-51.584 51.584-51.584-23.141-51.584-51.584 23.141-51.583 51.584-51.583z"/><path d="m241.834 91.611c1.464 1.464 3.384 2.196 5.303 2.196s3.839-.732 5.304-2.196l35.038-35.038c2.929-2.93 2.929-7.678 0-10.607-2.93-2.928-7.678-2.928-10.607 0l-29.734 29.735-5.046-5.045c-2.928-2.928-7.677-2.929-10.606.001-2.929 2.929-2.929 7.678.001 10.606z"/><path d="m490.902 149.175c-1.386-4.269-5.006-7.32-9.447-7.966l-31.169-4.529-13.939-28.245c-1.986-4.023-6.007-6.522-10.493-6.522-4.485 0-8.506 2.499-10.492 6.522l-13.94 28.245-31.17 4.529c-4.44.646-8.06 3.697-9.445 7.965-1.386 4.267-.251 8.862 2.961 11.993l22.555 21.985-5.325 31.045c-.757 4.422 1.027 8.807 4.656 11.443 3.629 2.638 8.35 2.979 12.322.891l27.879-14.657 27.88 14.657c1.727.908 3.596 1.356 5.455 1.356 2.416 0 4.816-.758 6.868-2.248 3.629-2.638 5.412-7.022 4.653-11.443l-5.324-31.043 22.553-21.985c3.212-3.131 4.348-7.727 2.962-11.993zm-37.228 24.445c-2.758 2.688-4.017 6.56-3.366 10.358l4.487 26.165-23.496-12.353c-1.705-.896-3.575-1.345-5.445-1.345s-3.741.448-5.446 1.344l-23.497 12.354 4.488-26.167c.65-3.797-.608-7.669-3.365-10.355l-19.01-18.529 26.273-3.817c3.812-.556 7.105-2.949 8.807-6.401l11.749-23.806 11.747 23.802c1.703 3.455 4.997 5.849 8.812 6.404l26.27 3.817z"/><path d="m334.549 96.204c11.445 4.464 22.534 9.932 33.097 16.281-3.302 1.551-5.069 5.316-3.996 8.919.97 3.255 3.953 5.36 7.185 5.36.709 0 1.43-.102 2.145-.314l14.208-4.232c3.179-.946 5.358-3.87 5.358-7.188v-15.368c0-4.143-3.357-7.5-7.5-7.5s-7.5 3.357-7.5 7.5v1.296c-11.936-7.353-24.524-13.649-37.546-18.729-3.859-1.506-8.207.402-9.713 4.262-1.504 3.859.403 8.207 4.262 9.713z"/><path d="m136.672 114.676c1.339 0 2.695-.358 3.919-1.11 7.002-4.302 14.293-8.224 21.744-11.714l-.39 1.46c-1.07 4.001 1.307 8.112 5.309 9.183.648.173 1.3.256 1.941.256 3.312 0 6.345-2.213 7.241-5.565l4.58-17.138c1.02-3.813-1.092-7.765-4.829-9.036l-13.744-4.678c-3.918-1.338-8.182.761-9.516 4.684-.965 2.834-.131 5.839 1.883 7.795-7.558 3.591-14.954 7.601-22.07 11.973-3.529 2.169-4.633 6.787-2.465 10.316 1.416 2.304 3.877 3.574 6.397 3.574z"/></g></svg>