<svg width="24" height="24" viewBox="0 0 24 24" fill="none" xmlns="http://www.w3.org/2000/svg">
<g clip-path="url(#clip0)">
<path d="M16.9465 13.6138L16.1393 12.5177C15.426 11.5491 14.282 10.9708 13.079 10.9708H9.88267C9.2215 10.9708 8.63271 11.2852 8.25672 11.7719H3.70642C2.57378 11.7719 1.65231 12.6933 1.65231 13.826C1.65231 14.06 1.69164 14.285 1.76406 14.4947C1.30099 14.5616 0.868236 14.7869 0.546111 15.1354C0.158174 15.5552 -0.0386073 16.1223 0.0062989 16.6914C0.0816739 17.6461 0.829237 18.4145 1.76683 18.558C1.67406 18.8249 1.63596 19.1107 1.65906 19.3969C1.74442 20.4551 2.65581 21.284 3.73389 21.284H4.2033C4.11199 21.5533 4.07585 21.8409 4.1012 22.1284C4.19369 23.1779 5.10452 24.0001 6.17477 24.0001H11.9785C13.2516 24.0001 14.4737 23.6111 15.5127 22.8754L17.2729 21.6289H24V13.6138H16.9465ZM3.70642 13.1781H7.83489C7.87225 13.682 8.09167 14.1361 8.4281 14.4738H3.70642C3.34919 14.4738 3.05856 14.1832 3.05856 13.826C3.05856 13.4687 3.34924 13.1781 3.70642 13.1781ZM22.5874 20.2226H16.8253L14.6999 21.7278C13.8999 22.2943 12.9588 22.5938 11.9785 22.5938H6.17477C5.82663 22.5938 5.53117 22.3352 5.50202 22.005C5.48552 21.8177 5.54739 21.6371 5.67616 21.4965C5.80164 21.3595 5.96899 21.284 6.14725 21.284H8.43541V19.8777H3.73385C3.38327 19.8777 3.08758 19.6169 3.06077 19.2838C3.0461 19.1017 3.10652 18.9271 3.23088 18.7923C3.35594 18.6567 3.52483 18.5821 3.70642 18.5821H8.43541V17.1758H2.08385C1.7313 17.1758 1.43453 16.9144 1.40819 16.5807C1.39385 16.3988 1.45441 16.2245 1.57881 16.0899C1.70388 15.9546 1.87263 15.8801 2.05394 15.8801H8.43541V14.4811C8.80699 14.8504 9.31849 15.079 9.88253 15.079H11.1431C11.466 16.5557 12.7841 17.6647 14.3562 17.6647H15.0554V16.2585H14.3562C13.3182 16.2585 12.4737 15.414 12.4737 14.3759V13.6728H9.88258C9.52539 13.6728 9.23486 13.3822 9.23486 13.0249C9.23486 12.6677 9.52549 12.3771 9.88272 12.3771H13.0791C13.8369 12.3771 14.5576 12.7414 15.007 13.3516L16.2356 15.0201H22.5875V20.2226H22.5874Z" fill="black"/>
<path d="M21.0049 2.72166H18.5489L16.778 1.44337H10.4213V0H6.15007V1.44337H3.33701C2.17385 1.44337 1.22754 2.38969 1.22754 3.55284C1.22754 4.716 2.17385 5.66231 3.33701 5.66231H6.15012V7.01545H10.4213V5.66231H16.8131L18.5839 4.12791H21.0049V2.72166H21.0049ZM3.33701 4.25606C2.94926 4.25606 2.63379 3.94059 2.63379 3.55284C2.63379 3.16509 2.94926 2.84963 3.33701 2.84963H6.15012V4.25606H3.33701ZM9.01502 5.6092H7.55632V1.40625H9.01502V5.6092ZM16.2885 4.25606H10.4213V2.84963H16.3235L17.1899 3.47503L16.2885 4.25606Z" fill="black"/>
<path d="M21.054 11.1554C19.8798 11.1554 18.9246 10.2002 18.9246 9.02598C18.9246 8.72621 19.01 8.19437 19.7488 7.04143C20.1185 6.46449 21.054 5.26196 21.054 5.26196C21.054 5.26196 21.9894 6.46454 22.3591 7.04143C23.0979 8.19437 23.1833 8.72621 23.1833 9.02598C23.1834 10.2001 22.2281 11.1554 21.054 11.1554ZM21.054 7.61298C20.642 8.23618 20.3363 8.81804 20.3308 9.02663C20.3308 9.4247 20.6552 9.74912 21.054 9.74912C21.4526 9.74912 21.7769 9.42493 21.7771 9.0264C21.7714 8.81753 21.4658 8.23599 21.054 7.61298Z" fill="black"/>
</g>
<defs>
<clipPath id="clip0">
<rect width="24" height="24" fill="white"/>
</clipPath>
</defs>
</svg>
