<svg xmlns="http://www.w3.org/2000/svg" viewBox="503 2459 22.025 25.5"><defs><style>.a{fill:#707070;fill-rule:evenodd;}</style></defs><path class="a" d="M19.087,14.927v3.826A6.68,6.68,0,0,1,12.48,25.5a6.68,6.68,0,0,1-6.607-6.75V14.959A6.7,6.7,0,0,1,0,8.253v-4.5A2.237,2.237,0,0,1,1.57,1.608,2.2,2.2,0,0,1,3.67,0a2.228,2.228,0,0,1,2.2,2.251A2.227,2.227,0,0,1,3.67,4.5,2.194,2.194,0,0,1,1.688,3.22a.755.755,0,0,0-.221.533v4.5A5.2,5.2,0,0,0,6.606,13.5a5.2,5.2,0,0,0,5.139-5.25v-4.5a.755.755,0,0,0-.221-.533A2.193,2.193,0,0,1,9.543,4.5a2.227,2.227,0,0,1-2.2-2.249A2.228,2.228,0,0,1,9.543,0a2.2,2.2,0,0,1,2.1,1.605,2.237,2.237,0,0,1,1.571,2.144v4.5A6.7,6.7,0,0,1,7.34,14.959v3.794A5.2,5.2,0,0,0,12.48,24a5.2,5.2,0,0,0,5.139-5.25V14.927a3.672,3.672,0,1,1,1.469,0ZM3.67,3a.75.75,0,1,0-.734-.75A.743.743,0,0,0,3.67,3ZM9.543,1.5a.75.75,0,1,0,.734.751A.744.744,0,0,0,9.543,1.5ZM18.353,9a2.251,2.251,0,1,0,2.2,2.251A2.23,2.23,0,0,0,18.353,9Zm0,3a.75.75,0,1,1,.734-.75A.742.742,0,0,1,18.353,12Z" transform="translate(503.001 2458.997)"/></svg>