<svg xmlns="http://www.w3.org/2000/svg" viewBox="777 2462 22 22"><defs><style>.a{fill:#707070;}</style></defs><g transform="translate(777 2462)"><path class="a" d="M4.688,10.5H6.75a.66.66,0,0,0,.619-.481l.756-2.131,2.131,6.325a.638.638,0,0,0,1.237,0l1.237-3.644h1.581a.688.688,0,0,0,0-1.375H12.25a.66.66,0,0,0-.619.481l-.756,2.063L8.744,5.413A.7.7,0,0,0,8.125,5a.66.66,0,0,0-.619.481L6.269,9.125H4.688a.688.688,0,0,0,0,1.375Z" transform="translate(-1.25 -1.563)"/><path class="a" d="M13.612,2.887l-.481.481A6.751,6.751,0,0,1,15.125,8.25a7.042,7.042,0,0,1-1.994,4.881A6.751,6.751,0,0,1,8.25,15.125a7.042,7.042,0,0,1-4.881-1.994,6.972,6.972,0,0,1,0-9.763,6.972,6.972,0,0,1,9.763,0l.481-.481.481-.481a8.3,8.3,0,0,0-11.687,0,8.3,8.3,0,0,0,0,11.688,8.3,8.3,0,0,0,11.688,0A8.277,8.277,0,0,0,16.5,8.25a8.4,8.4,0,0,0-2.406-5.844Z"/><path class="a" d="M27.15,24.263l.481-.481-3.163-3.163A1.872,1.872,0,0,0,23.025,20a1.979,1.979,0,0,0-1.444.619l-.962.962A2.1,2.1,0,0,0,20,23.025a1.979,1.979,0,0,0,.619,1.444l3.163,3.163a2.1,2.1,0,0,0,1.444.619,1.979,1.979,0,0,0,1.444-.619l.962-.962a2.1,2.1,0,0,0,.619-1.444,1.979,1.979,0,0,0-.619-1.444l-.481.481-.481.481a.665.665,0,0,1,0,.963l-.962.962a.665.665,0,0,1-.963,0l-3.162-3.163a.665.665,0,0,1,0-.963l.962-.962a.665.665,0,0,1,.963,0l3.163,3.163Z" transform="translate(-6.25 -6.25)"/><path class="a" d="M21.75,20.788l-1.581-1.581a.681.681,0,0,0-.962.962l1.581,1.581a.681.681,0,0,0,.962-.962" transform="translate(-5.938 -5.938)"/></g></svg>