<?xml version="1.0" encoding="UTF-8" standalone="no"?>
<svg
   xmlns:dc="http://purl.org/dc/elements/1.1/"
   xmlns:cc="http://creativecommons.org/ns#"
   xmlns:rdf="http://www.w3.org/1999/02/22-rdf-syntax-ns#"
   xmlns:svg="http://www.w3.org/2000/svg"
   xmlns="http://www.w3.org/2000/svg"
   xmlns:sodipodi="http://sodipodi.sourceforge.net/DTD/sodipodi-0.dtd"
   xmlns:inkscape="http://www.inkscape.org/namespaces/inkscape"
   viewBox="1538 2194 15 15"
   version="1.1"
   id="svg7"
   sodipodi:docname="iconMedikamente.svg"
   inkscape:version="0.92.3 (2405546, 2018-03-11)">
  <metadata
     id="metadata11">
    <rdf:RDF>
      <cc:Work
         rdf:about="">
        <dc:format>image/svg+xml</dc:format>
        <dc:type
           rdf:resource="http://purl.org/dc/dcmitype/StillImage" />
      </cc:Work>
    </rdf:RDF>
  </metadata>
  <sodipodi:namedview
     pagecolor="#ffffff"
     bordercolor="#666666"
     borderopacity="1"
     objecttolerance="10"
     gridtolerance="10"
     guidetolerance="10"
     inkscape:pageopacity="0"
     inkscape:pageshadow="2"
     inkscape:window-width="1920"
     inkscape:window-height="1015"
     id="namedview9"
     showgrid="false"
     inkscape:zoom="15.733333"
     inkscape:cx="7.5"
     inkscape:cy="7.5"
     inkscape:window-x="0"
     inkscape:window-y="0"
     inkscape:window-maximized="1"
     inkscape:current-layer="svg7" />
  <defs
     id="defs4">
    <style
       id="style2">
      .cls-1 {
        fill: #bfc5ce;
        fill-rule: evenodd;
      }
    </style>
  </defs>
  <path
     id="iconMedikamente"
     class="cls-1"
     d="M2749.5,1416a7.5,7.5,0,1,0,7.5,7.5A7.5,7.5,0,0,0,2749.5,1416Zm0,14.318a6.818,6.818,0,1,1,6.818-6.818,6.818,6.818,0,0,1-6.818,6.818Zm3.406-8.182h-2.042v-2.047a.68.68,0,0,0-.682-.677h-1.365a.68.68,0,0,0-.682.677v2.047h-2.047a.685.685,0,0,0-.682.682v1.365a.685.685,0,0,0,.682.682h2.047v2.042a.681.681,0,0,0,.682.682h1.365a.681.681,0,0,0,.682-.682v-2.042h2.042a.681.681,0,0,0,.682-.682v-1.365a.681.681,0,0,0-.682-.682Zm0,2.047h-2.724v2.724h-1.365v-2.724h-2.729v-1.365h2.729v-2.729h1.365v2.729h2.724Z"
     transform="translate(-1204 778)"
     style="stroke:none;stroke-opacity:1;fill:#000000;fill-opacity:1" />
</svg>
