<svg width="24" height="24" viewBox="0 0 24 24" fill="none" xmlns="http://www.w3.org/2000/svg">
<path d="M20.4853 3.51469C18.2188 1.24823 15.2053 0 12 0C8.79469 0 5.78123 1.24823 3.51469 3.51469C1.24823 5.78123 0 8.79469 0 12C0 15.2053 1.24823 18.2188 3.51469 20.4853C5.78123 22.7518 8.79469 24 12 24C15.2053 24 18.2188 22.7518 20.4853 20.4853C22.7518 18.2188 24 15.2053 24 12C24 8.79469 22.7518 5.78123 20.4853 3.51469ZM19.4909 19.4909C17.49 21.4918 14.8297 22.5938 12 22.5938C9.1703 22.5938 6.51 21.4918 4.50909 19.4909C2.50819 17.49 1.40625 14.8297 1.40625 12C1.40625 9.1703 2.50819 6.51 4.50909 4.50909C6.51 2.50819 9.1703 1.40625 12 1.40625C14.8297 1.40625 17.49 2.50819 19.4909 4.50909C21.4918 6.51 22.5938 9.1703 22.5938 12C22.5938 14.8297 21.4918 17.49 19.4909 19.4909Z" fill="black"/>
<path d="M14.9646 9.03381V4.89404H9.03381V9.03381H4.89404V14.9646H9.03381V19.1043H14.9646V14.9646H19.1043V9.03381H14.9646ZM17.6981 13.5583H13.5584V17.6981H10.4401V13.5583H6.30034V10.4401H10.4401V6.30029H13.5584V10.4401H17.6981V13.5583Z" fill="black"/>
</svg>
