<svg width="24" height="24" viewBox="0 0 24 24" fill="none" xmlns="http://www.w3.org/2000/svg">
<path d="M21.6251 10.8434C20.3156 10.8434 19.2503 11.9088 19.2503 13.2183C19.2503 14.2831 19.9547 15.1864 20.922 15.4869V21.0415C20.922 21.8969 20.2261 22.5927 19.3708 22.5927C18.5155 22.5927 17.8196 21.8969 17.8196 21.0415V18.7057C17.8196 17.0749 16.4929 15.7483 14.8622 15.7483C13.2314 15.7483 11.9048 17.0749 11.9048 18.7057V21.0415C11.9048 21.8969 11.2089 22.5927 10.3535 22.5927C9.49816 22.5927 8.80231 21.8969 8.80231 21.0415V16.0976C11.0889 15.8294 13.041 14.2679 13.7831 12.0432L16.0448 5.26362C16.3464 4.35969 16.1998 3.39781 15.6427 2.62471C15.0856 1.8516 14.2196 1.40825 13.2667 1.40825H11.5804V0.000366211H10.1743V4.22225H11.5804V2.81441H13.2667C13.762 2.81441 14.2123 3.04489 14.5018 3.4468C14.7915 3.84866 14.8677 4.34872 14.7109 4.81859L12.4492 11.5982C11.8238 13.4731 10.0757 14.7327 8.09928 14.7327C6.12289 14.7327 4.37474 13.473 3.74928 11.5982L1.48757 4.81864C1.33082 4.34872 1.40699 3.8487 1.69658 3.4468C1.98622 3.04489 2.43641 2.81441 2.93178 2.81441H4.61816V4.22225H6.02431V0.000366211H4.61816V1.40821H2.93178C1.97886 1.40821 1.1128 1.8516 0.555743 2.62471C-0.00131888 3.39781 -0.147897 4.35964 0.15365 5.26362L2.41532 12.0432C3.15749 14.2679 5.10959 15.8295 7.39615 16.0976V21.0415C7.39615 22.6722 8.72281 23.9989 10.3535 23.9989C11.9843 23.9989 13.3109 22.6722 13.3109 21.0415V18.7057C13.3109 17.8503 14.0068 17.1544 14.8622 17.1544C15.7175 17.1544 16.4134 17.8503 16.4134 18.7057V21.0415C16.4134 22.6722 17.7401 23.9989 19.3708 23.9989C21.0015 23.9989 22.3282 22.6722 22.3282 21.0415V15.4869C23.2955 15.1864 23.9999 14.2832 23.9999 13.2183C24 11.9087 22.9346 10.8434 21.6251 10.8434ZM21.6251 14.187C21.091 14.187 20.6565 13.7524 20.6565 13.2182C20.6565 12.6841 21.091 12.2495 21.6251 12.2495C22.1592 12.2495 22.5938 12.6841 22.5938 13.2182C22.5938 13.7524 22.1592 14.187 21.6251 14.187Z" fill="#333333"/>
</svg>
