<svg xmlns="http://www.w3.org/2000/svg" width="8.9" height="13.031" viewBox="0 0 8.9 13.031">
  <defs>
    <style>
      .cls-1 {
        fill: #555;
        fill-rule: evenodd;
      }
    </style>
  </defs>
  <path id="arr-sort" class="cls-1" d="M2048.25,837.624l3.4-3.518,3.4,3.518a0.618,0.618,0,0,0,.87.017,0.61,0.61,0,0,0,.01-0.865l-3.84-3.976a0.609,0.609,0,0,0-.88,0l-3.84,3.976a0.582,0.582,0,0,0-.17.424A0.607,0.607,0,0,0,2048.25,837.624Zm6.79,3.019-3.39,3.518-3.4-3.518a0.618,0.618,0,0,0-.87-0.017,0.61,0.61,0,0,0-.02.865l3.84,3.976a0.621,0.621,0,0,0,.89,0l3.84-3.976a0.629,0.629,0,0,0,.17-0.424,0.592,0.592,0,0,0-.19-0.441A0.618,0.618,0,0,0,2055.04,840.643Z" transform="translate(-2047.19 -832.625)"/>
</svg>
