<?xml version="1.0" encoding="UTF-8" standalone="no"?>
<!DOCTYPE svg PUBLIC "-//W3C//DTD SVG 1.1//EN" "http://www.w3.org/Graphics/SVG/1.1/DTD/svg11.dtd">
<svg width="100%" height="100%" viewBox="0 0 200 200" version="1.1" xmlns="http://www.w3.org/2000/svg" xmlns:xlink="http://www.w3.org/1999/xlink" xml:space="preserve" xmlns:serif="http://www.serif.com/" style="fill-rule:evenodd;clip-rule:evenodd;stroke-linecap:round;stroke-linejoin:round;stroke-miterlimit:1.5;">
    <g transform="matrix(1.10268,0,0,1.10268,-10.2679,-12.6341)">
        <path d="M188.161,57.294L188.161,188.795L11.839,188.795L11.839,57.294L188.161,57.294ZM180.127,64.905L19.873,64.905L19.873,181.184L180.127,181.184L180.127,64.905Z" style="stroke:rgb(235,235,235);stroke-width:0.91px;"/>
    </g>
    <g transform="matrix(1.18908,0,0,1,-18.9075,0)">
        <path d="M175.685,76.903L100,1.218L24.315,76.903L100,152.588L175.685,76.903ZM164.903,76.903L100,12L35.097,76.903L100,141.806L164.903,76.903Z"/>
    </g>
    <g transform="matrix(1.17955,0,0,1.1978,-17.9554,-24.4297)">
        <rect x="19.873" y="64.905" width="160.254" height="116.279" style="fill:yellow;"/>
    </g>
    <g transform="matrix(0.67129,0,0,0.864464,-2.16009,14.8018)">
        <text x="152px" y="181.789px" text-anchor="middle" style="font-family:'ArialMT', 'Arial', sans-serif;font-size:158.366px;">###</text>
    </g>
</svg>