<svg xmlns="http://www.w3.org/2000/svg" viewBox="873.696 1624 6.19 10">
  <defs>
    <style>
      .cls-1 {
        fill: #D8D8D8;
      }
    </style>
  </defs>
  <path id="arr-right-blue" class="cls-1" d="M9.683.286A1,1,0,0,0,8.968,0a1.033,1.033,0,0,0-.746.317L5,3.667,1.778.317A1.033,1.033,0,0,0,1.032,0,1,1,0,0,0,.317.286.973.973,0,0,0,0,1.016a1.006,1.006,0,0,0,.286.73L4.254,5.873a1.035,1.035,0,0,0,1.492,0L9.714,1.746A1.032,1.032,0,0,0,10,1.016,1,1,0,0,0,9.683.286Z" transform="translate(873.696 1634) rotate(-90)"/>
</svg>
