<svg xmlns="http://www.w3.org/2000/svg" viewBox="1086 1832 12.75 12.75">
  <defs>
    <style>
      .cls-1 {
        fill: #707070;
      }
    </style>
  </defs>
  <path id="btnMore" class="cls-1" d="M9.563,5.506a.869.869,0,1,0,.869.869A.854.854,0,0,0,9.563,5.506Zm0,1.159a.29.29,0,1,1,.29-.29A.274.274,0,0,1,9.563,6.665ZM3.188,5.506a.869.869,0,1,0,.869.869A.854.854,0,0,0,3.188,5.506Zm0,1.159a.29.29,0,0,1,0-.58.29.29,0,0,1,0,.58ZM6.375,5.506a.869.869,0,1,0,.869.869A.854.854,0,0,0,6.375,5.506Zm0,1.159a.29.29,0,1,1,.29-.29A.274.274,0,0,1,6.375,6.665ZM6.375,0A6.375,6.375,0,1,0,12.75,6.375,6.357,6.357,0,0,0,6.375,0Zm0,12.17a5.8,5.8,0,1,1,5.8-5.8A5.812,5.812,0,0,1,6.375,12.17Z" transform="translate(1086 1832)"/>
</svg>
