<svg xmlns="http://www.w3.org/2000/svg" viewBox="243 2681 14.157 13.696">
  <defs>
    <style>
      .cls-1 {
        fill: #afafaf;
      }
    </style>
  </defs>
  <path id="print" class="cls-1" d="M13.542,2.308H10.464V.462C10.464.2,10.326,0,10.079,0h-6c-.246,0-.385.2-.385.462V2.308H.616a.6.6,0,0,0-.616.6V9.972a.644.644,0,0,0,.616.646H2.878l-.369,2.4a.563.563,0,0,0,.123.462.556.556,0,0,0,.415.215h8.079a.6.6,0,0,0,.415-.231.5.5,0,0,0,.123-.431l-.385-2.416h2.262a.644.644,0,0,0,.616-.646V2.908A.6.6,0,0,0,13.542,2.308ZM4.617.923H9.541V2.308H4.617Zm-.954,11.7.585-3.847H9.91l.585,3.847Zm9.264-3.232H11.1l-.2-1.262a.52.52,0,0,0-.539-.431H3.786a.532.532,0,0,0-.539.431L3.062,9.387H1.231V3.539h11.7ZM2.816,5.078a.453.453,0,0,1,.462-.462H4.724a.462.462,0,0,1,0,.923H3.278A.463.463,0,0,1,2.816,5.078Z" transform="translate(243 2681)"/>
</svg>
