<svg xmlns="http://www.w3.org/2000/svg" viewBox="1245.5 1557.497 16.121 16.003">
  <defs>
    <style>
      .cls-1 {
        fill: #446272;
      }
    </style>
  </defs>
  <path id="settings" class="cls-1" d="M-1238.432-1541.493a1.156,1.156,0,0,1-1.051-.934l-.117-.409a7.746,7.746,0,0,1-1.051-.41l-.468.234a1.7,1.7,0,0,1-.526.117h-.116a2.094,2.094,0,0,1-.643-.117l-.058-.058-1.4-1.4a1.233,1.233,0,0,1-.058-1.461l.176-.35a7.815,7.815,0,0,1-.409-1.051l-.467-.117q-.876-.351-.877-1.051v-1.986a1.108,1.108,0,0,1,.935-1.051l.409-.117a7.815,7.815,0,0,1,.409-1.051l-.234-.409c-.058-.234-.35-.877.117-1.344l1.4-1.4a.965.965,0,0,1,.7-.293,1.249,1.249,0,0,1,.7.234l.351.175a4.416,4.416,0,0,1,1.051-.409l.059-.409a1.062,1.062,0,0,1,1.051-.934h1.985a1.107,1.107,0,0,1,1.052.934l.116.409a7.854,7.854,0,0,1,1.051.409l.468-.175a1.221,1.221,0,0,1,.642-.234h.059a.941.941,0,0,1,.76.351l1.344,1.343a1.165,1.165,0,0,1,.117,1.344l-.058.058-.234.35a7.7,7.7,0,0,1,.409,1.051l.351.117a1.175,1.175,0,0,1,.993.934l.117.117v2.045a1.158,1.158,0,0,1-.935,1.051l-.409.117a7.856,7.856,0,0,1-.409,1.051l.175.292a1.144,1.144,0,0,1-.058,1.4l-1.519,1.46a.876.876,0,0,1-.643.234,1.382,1.382,0,0,1-.7-.176l-.351-.234a7.751,7.751,0,0,1-1.051.41l-.117.467q-.35.876-1.051.876Zm-2.278-3.679a1.185,1.185,0,0,1,.643.175,3.883,3.883,0,0,0,1.226.526,1.29,1.29,0,0,1,.877.934l.058.234h.817l.058-.292a1.315,1.315,0,0,1,.877-.876,5.555,5.555,0,0,0,1.227-.526,1.262,1.262,0,0,1,1.284,0l.176.117.526-.526-.117-.233a1.053,1.053,0,0,1,0-1.285,3.889,3.889,0,0,0,.526-1.227,1.2,1.2,0,0,1,.877-.934l.233-.058v-.818l-.233-.058a1.315,1.315,0,0,1-.877-.876,5.54,5.54,0,0,0-.526-1.227,1.052,1.052,0,0,1,0-1.285l.117-.175-.526-.526-.234.116a1.174,1.174,0,0,1-.643.175,1.173,1.173,0,0,1-.642-.175,7.736,7.736,0,0,0-1.227-.467,1.293,1.293,0,0,1-.877-.934l-.058-.234h-.759l-.117.292a1.136,1.136,0,0,1-.877.817,5.566,5.566,0,0,0-1.226.526,1.263,1.263,0,0,1-1.285,0l-.234-.116-.526.526.176.35a1.053,1.053,0,0,1,0,1.285,3.878,3.878,0,0,0-.526,1.227,1.317,1.317,0,0,1-.877.876l-.233.059v.76l.233.059a1.315,1.315,0,0,1,.877.876,5.531,5.531,0,0,0,.526,1.227,1.053,1.053,0,0,1,0,1.285l-.176.175.526.526.234-.117a1.183,1.183,0,0,1,.643-.175Zm-.76-4.323a3.975,3.975,0,0,1,3.972-3.971,3.975,3.975,0,0,1,3.972,3.971,3.939,3.939,0,0,1-3.972,3.972A3.939,3.939,0,0,1-1241.47-1549.495Zm1.811,0a2.195,2.195,0,0,0,2.161,2.162,2.195,2.195,0,0,0,2.161-2.162,2.195,2.195,0,0,0-2.161-2.161A2.195,2.195,0,0,0-1239.659-1549.495Z" transform="translate(2491 3114.993)"/>
</svg>
