<svg xmlns="http://www.w3.org/2000/svg" viewBox="2914.005 1653 9.009 9">
  <defs>
    <style>
      .cls-1 {
        fill: #00a2ff;
      }
    </style>
  </defs>
  <path id="cross-blue" class="cls-1" d="M8.725,7.619a.772.772,0,0,1,0,1.107.793.793,0,0,1-1.107,0L4.454,5.561,1.29,8.725a.757.757,0,0,1-.553.225.757.757,0,0,1-.553-.225.772.772,0,0,1,0-1.107L3.348,4.454.183,1.29a.772.772,0,0,1,0-1.107.772.772,0,0,1,1.107,0L4.454,3.348,7.619.183a.772.772,0,0,1,1.107,0,.772.772,0,0,1,0,1.107L5.561,4.454Z" transform="translate(2914.055 1653.05)"/>
</svg>
