<?xml version="1.0" encoding="utf-8"?>
<!-- Generator: Adobe Illustrator 18.0.0, SVG Export Plug-In . SVG Version: 6.00 Build 0)  -->
<!DOCTYPE svg PUBLIC "-//W3C//DTD SVG 1.1//EN" "http://www.w3.org/Graphics/SVG/1.1/DTD/svg11.dtd">
<svg version="1.1" id="Layer_1" xmlns="http://www.w3.org/2000/svg" xmlns:xlink="http://www.w3.org/1999/xlink" x="0px" y="0px"
	 viewBox="0 0 59 59" enable-background="new 0 0 59 59" xml:space="preserve">
<g>
	<circle fill="#E9F1F7" cx="29.5" cy="29.5" r="29.5"/>
	<path fill="#949FA6" d="M7.3,21.4c3.6-3.1,8.6-4.4,13.3-3.5c0.7,0.2,0.2,2.4-0.4,2.2l0,0c-4.1-0.7-8.4,0.4-11.5,3
		C8.3,23.5,6.7,21.9,7.3,21.4z"/>
	<path fill="#949FA6" d="M9,29.7c-0.2-0.4,0.3-0.6,1-1c3.7,3,10.5,3.2,14.7,0c0.7,0.4,1.2,0.6,1,1C21.5,37.6,13.2,37.6,9,29.7z"/>
	<path fill="#949FA6" d="M35.4,47.2H23.6c-1.3,0-1.3-3.9,0-3.9h11.8C36.7,43.3,36.7,47.2,35.4,47.2z"/>
	<path fill="#949FA6" d="M50,29.7c-4.1,7.9-12.5,7.9-16.6,0c-0.2-0.4,0.4-0.6,1-1c3.7,3,10.5,3.2,14.7,0
		C49.7,29.1,50.2,29.3,50,29.7z"/>
	<path fill="#949FA6" d="M50.3,23.3L50.3,23.3c-3.1-2.7-7.4-3.8-11.5-3c-0.6,0.1-1.1-2-0.4-2.2c4.7-0.9,9.6,0.5,13.3,3.5
		C52.3,22.1,50.7,23.7,50.3,23.3z"/>
</g>
</svg>
