<svg xmlns="http://www.w3.org/2000/svg" viewBox="4260.72 642.145 18.355 18.355">
  <defs>
    <style>
      .cls-1 {
        fill: #bfc5ce;
        fill-rule: evenodd;
      }
    </style>
  </defs>
  <path id="iconDozation" class="cls-1" d="M2743.119,1494.645l-.829-.83,1.431-1.431.83.824Zm12.858-12.858-.83-.829,2.822-2.822.823.829Zm3.838-1.747-2.921-2.921.829-.83,2.921,2.921Zm-9.961,11.993-.823-.824,6.467-6.467-3.307-3.307-6.468,6.467-.823-.824,7.291-7.3,4.959,4.959Zm-2.734-3.587-.97-.97.824-.824.97.964Zm1.753-1.752-.97-.97.824-.824.969.964Zm1.752-1.753-.969-.97.824-.824.969.964Zm-3.248,8.12a3.505,3.505,0,0,1-2.477-5.982l.823.824a2.338,2.338,0,0,0,3.307,3.307l.824.824A3.5,3.5,0,0,1,2747.378,1493.062Z" transform="translate(1518.43 -834.145)"/>
</svg>
