<svg xmlns="http://www.w3.org/2000/svg" viewBox="4374.72 551.144 16 16">
  <defs>
    <style>
      .cls-1 {
        fill: #585858;
        fill-rule: evenodd;
      }
    </style>
  </defs>
  <path id="iconDozationAct" class="cls-1" d="M2743.013,1492.29l-.723-.723,1.247-1.247.723.718Zm11.208-11.208-.723-.723,2.46-2.459.718.723Zm3.346-1.522-2.546-2.546.723-.723,2.546,2.546Zm-8.683,10.454-.718-.718,5.637-5.637-2.883-2.882-5.637,5.637-.718-.718,6.355-6.36,4.323,4.323Zm-2.383-3.127-.845-.845.718-.718.845.84Zm1.528-1.528-.845-.845.718-.718.845.84Zm1.527-1.528-.845-.845.718-.718.845.84Zm-2.831,7.078a3.056,3.056,0,0,1-2.159-5.215l.718.718a2.038,2.038,0,0,0,2.882,2.882l.718.718A3.052,3.052,0,0,1,2746.725,1490.91Z" transform="translate(1632.43 -925.145)"/>
</svg>
