<svg xmlns="http://www.w3.org/2000/svg" viewBox="570 626 19.625 20.151"><defs><style>.a{fill:#fff;}</style></defs><path class="a" d="M-565.687-605.849a.918.918,0,0,1-.914-.906v-2.5h-2.492a.9.9,0,0,1-.641-.266.9.9,0,0,1-.266-.642.9.9,0,0,1,.257-.642.9.9,0,0,1,.635-.273h2.515v-2.492a.9.9,0,0,1,.892-.914h.022a.909.909,0,0,1,.914.892v2.507h2.485a.9.9,0,0,1,.9.9v.015a.906.906,0,0,1-.893.914h-2.507v2.492a.9.9,0,0,1-.892.914Zm4.711-3.451a1.555,1.555,0,0,0,.258-.878v-.022a1.531,1.531,0,0,0-.361-.981h4.777l-.31-2.64-1.453-.472a.438.438,0,0,1-.287-.553l.3-.944a.477.477,0,0,1,.221-.258.426.426,0,0,1,.339-.03l2.323.76a.45.45,0,0,1,.3.369l.6,5.117a.372.372,0,0,1,.007.089.443.443,0,0,1-.443.442Zm7.2-.98a.443.443,0,0,1-.442-.443v-.988a.443.443,0,0,1,.442-.442h1.312l-.25-1.777-1.291-.347a.445.445,0,0,1-.317-.538l.243-.959a.433.433,0,0,1,.207-.273.455.455,0,0,1,.338-.044l2.212.589a.435.435,0,0,1,.325.362l.619,4.314a.243.243,0,0,1,0,.1.444.444,0,0,1-.443.443Zm-11.908-4.866h-.03a1.579,1.579,0,0,0-.744.2.439.439,0,0,1,.3-.361l2.323-.76a.451.451,0,0,1,.338.029.452.452,0,0,1,.221.258l.3.944a.444.444,0,0,1-.287.553l-.907.3A1.584,1.584,0,0,0-565.687-615.146Zm10.5-1.069h-.066a.451.451,0,0,1-.436-.435v-.988a.456.456,0,0,1,.133-.31.411.411,0,0,1,.31-.133,2.033,2.033,0,0,0,2.035-2.028,2.042,2.042,0,0,0-.59-1.437,1.988,1.988,0,0,0-1.43-.6.45.45,0,0,1-.45-.442v-.988a.442.442,0,0,1,.436-.443h.066a3.917,3.917,0,0,1,3.9,3.834,3.854,3.854,0,0,1-1.1,2.78,3.909,3.909,0,0,1-2.743,1.187Zm-5.486,0a4.908,4.908,0,0,1-4.9-4.873A4.9,4.9,0,0,1-560.695-626h.022a4.913,4.913,0,0,1,4.9,4.874v.022a4.9,4.9,0,0,1-4.873,4.889Zm-3.016-4.9a3.021,3.021,0,0,0,3.009,3.03h.014a3.022,3.022,0,0,0,3.016-3.009v-.014a3.028,3.028,0,0,0-3.008-3.016h-.015A3.024,3.024,0,0,0-563.689-621.119Z" transform="translate(1140 1252)"/></svg>