<svg xmlns="http://www.w3.org/2000/svg" viewBox="348 2385 19.463 21"><defs><style>.a{fill:#6b6b6b;fill-rule:evenodd;}</style></defs><path class="a" d="M4687,4052.022v-6.587a1.47,1.47,0,0,1,1.751-.891c0-2.167.015-4.267,0-6.372a1.136,1.136,0,0,1,.651-1.173h10.792c1.106,1.209,2.146,2.474,3.329,3.6a3.237,3.237,0,0,1,1.157,3,6.882,6.882,0,0,0,0,.983c1-.164,1.572.185,1.793,1.03v6.326a1.5,1.5,0,0,1-1.793,1.06c0,1.337-.01,2.623,0,3.908a1.006,1.006,0,0,1-.7,1.1H4689.4a1.106,1.106,0,0,1-.651-1.178c.032-.348.006-.7.006-1.05v-2.786A1.5,1.5,0,0,1,4687,4052.022Zm2.607-7.473h13.44a2.814,2.814,0,0,0,.548-.015.355.355,0,0,0,.256-.21c.021-.61.011-1.224.011-1.88h-.5c-1.03,0-2.054.005-3.083,0-.563,0-.65-.082-.65-.6v-3.56c0-.154-.015-.307-.021-.461h-10Zm.015,8.451v3.918h14.208V4053Zm4.876-.994c.968,0,1.921.072,2.853-.021a3.006,3.006,0,0,0,2.3-1.265,3.536,3.536,0,0,0,.543-2.125,2.715,2.715,0,0,0-2.172-2.638,9.57,9.57,0,0,0-3.1-.1c-.364.031-.461.118-.461.461.021,1.757.01,3.509.01,5.265C4694.473,4051.715,4694.488,4051.843,4694.5,4052.007Zm-4.072,0v-2.125a10.879,10.879,0,0,0,1.526-.159,1.918,1.918,0,0,0,1.639-2.033,1.764,1.764,0,0,0-1.757-1.8c-.83-.087-1.675,0-2.515-.02a.32.32,0,0,0-.39.389c.01,1.844.005,3.688.01,5.532a1.291,1.291,0,0,0,.032.22Zm10.705-.005h1.47v-2.458h2.27v-1.183h-2.249V4047h2.428v-1.121h-3.918Zm-5.122-5.055c.9-.077,1.778-.108,2.295.707a2.237,2.237,0,0,1-.036,2.49,2.21,2.21,0,0,1-2.259.814Zm-5.578,1.762v-1.767c.574-.092,1.147-.179,1.532.318a.843.843,0,0,1-.036,1.07,1.46,1.46,0,0,1-1.5.379Z" transform="translate(-4339 -1652)"/></svg>