<svg xmlns="http://www.w3.org/2000/svg" viewBox="3995 533 18.418 18.418">
  <defs>
    <style>
      .cls-1 {
        fill: #707070;
        fill-rule: evenodd;
      }
    </style>
  </defs>
  <path id="iconMedikamente" class="cls-1" d="M2751.209,1416a9.209,9.209,0,1,0,9.209,9.209A9.209,9.209,0,0,0,2751.209,1416Zm0,17.58a8.371,8.371,0,1,1,8.372-8.371,8.371,8.371,0,0,1-8.372,8.371Zm4.183-10.047h-2.507v-2.513a.835.835,0,0,0-.838-.832h-1.676a.835.835,0,0,0-.838.832v2.513h-2.513a.841.841,0,0,0-.838.838v1.675a.841.841,0,0,0,.838.838h2.513v2.507a.836.836,0,0,0,.838.838h1.676a.836.836,0,0,0,.838-.838v-2.507h2.507a.837.837,0,0,0,.838-.838v-1.675a.836.836,0,0,0-.838-.838Zm0,2.513h-3.345v3.345h-1.676v-3.345h-3.351v-1.675h3.351v-3.351h1.676v3.351h3.345Z" transform="translate(1253 -883)"/>
</svg>
