<svg xmlns="http://www.w3.org/2000/svg" viewBox="2048 2195 13 13">
  <defs>
    <style>
      .cls-1 {
        fill: #bfc5ce;
      }
    </style>
  </defs>
  <g id="done" transform="translate(2048 2195)">
    <g id="Group_32" data-name="Group 32" transform="translate(3.698 4.483)">
      <path id="Path_92" data-name="Path 92" class="cls-1" d="M39.017,46.946a.443.443,0,0,1-.314-.134l-1.569-1.569a.452.452,0,0,1,.639-.639l1.244,1.255,2.824-2.824a.452.452,0,1,1,.639.639l-3.138,3.138A.488.488,0,0,1,39.017,46.946Z" transform="translate(-37 -42.9)"/>
    </g>
    <path id="Path_93" data-name="Path 93" class="cls-1" d="M6.5,13A6.5,6.5,0,1,1,13,6.5,6.5,6.5,0,0,1,6.5,13ZM6.5.9a5.6,5.6,0,1,0,5.6,5.6A5.605,5.605,0,0,0,6.5.9Z"/>
  </g>
</svg>
