<svg xmlns="http://www.w3.org/2000/svg" viewBox="1719.398 2223 15 13.798">
  <defs>
    <style>
      .cls-1 {
        fill: #bfc5ce;
        fill-rule: evenodd;
      }
    </style>
  </defs>
  <path id="iconComment" class="cls-1" d="M8657.22,937.094a1.406,1.406,0,1,1,1.405-1.406A1.407,1.407,0,0,1,8657.22,937.094Zm0-1.875a.469.469,0,1,0,.467.469A.468.468,0,0,0,8657.22,935.219Zm3.28,1.875a1.406,1.406,0,1,1,1.406-1.406A1.406,1.406,0,0,1,8660.5,937.094Zm0-1.875a.469.469,0,1,0,.469.469A.468.468,0,0,0,8660.5,935.219Zm3.28,1.875a1.406,1.406,0,1,1,1.406-1.406A1.406,1.406,0,0,1,8663.78,937.094Zm0-1.875a.469.469,0,1,0,.47.469A.469.469,0,0,0,8663.78,935.219ZM8653,944.828v-13.8h15v9.843h-10.78v-.937h9.842v-7.968h-13.125v10.106l1.5-1.954.74.572Z" transform="translate(-6933.602 1291.97)"/>
</svg>
