<svg xmlns="http://www.w3.org/2000/svg" width="16" height="14" viewBox="0 0 16 14">
  <defs>
    <style>
      .cls-1 {
        fill: #959595;
        fill-rule: evenodd;
      }
    </style>
  </defs>
  <path id="date" class="cls-1" d="M2946.24,567.077h-1.77v-0.4a0.675,0.675,0,0,0-1.35,0v0.4h-6.24v-0.4a0.68,0.68,0,0,0-1.36,0v0.4h-1.76a1.757,1.757,0,0,0-1.76,1.75v9.422a1.757,1.757,0,0,0,1.76,1.751h12.48a1.757,1.757,0,0,0,1.76-1.751v-9.422A1.757,1.757,0,0,0,2946.24,567.077Zm-12.48,1.346h1.76v0.4a0.68,0.68,0,0,0,1.36,0v-0.4h6.24v0.4a0.675,0.675,0,0,0,1.35,0v-0.4h1.77a0.4,0.4,0,0,1,.4.4v1.48h-13.28v-1.48A0.4,0.4,0,0,1,2933.76,568.423Zm12.48,10.23h-12.48a0.4,0.4,0,0,1-.4-0.4v-6.6h13.28v6.6A0.4,0.4,0,0,1,2946.24,578.653Z" transform="translate(-2932 -566)"/>
</svg>
