<svg xmlns="http://www.w3.org/2000/svg" width="21.22" height="18.063" viewBox="0 0 21.22 18.063">
  <defs>
    <style>
      .cls-1 {
        fill: #8e8e8e;
        fill-rule: evenodd;
      }
    </style>
  </defs>
  <path id="historyback" class="cls-1" d="M2987.97,528.031a9.007,9.007,0,0,1-8.96,9.031,8.824,8.824,0,0,1-5.06-1.585,0.929,0.929,0,0,1-.24-1.289,0.917,0.917,0,0,1,1.28-.235,7.043,7.043,0,0,0,4.02,1.256,7.179,7.179,0,1,0-7.1-7.438l2.15-2.171a0.925,0.925,0,1,1,1.31,1.307l-3.52,3.554a0.922,0.922,0,0,1-1.31,0l-3.52-3.554a0.925,0.925,0,1,1,1.31-1.307l1.76,1.776A8.949,8.949,0,0,1,2987.97,528.031Zm-9-5.256a0.922,0.922,0,0,0-.92.926v4.33a0.956,0.956,0,0,0,.29.653l1.98,1.99a0.925,0.925,0,0,0,.66.273,0.908,0.908,0,0,0,.65-0.27,0.93,0.93,0,0,0-.01-1.31l-1.73-1.719V523.7A0.922,0.922,0,0,0,2978.97,522.775Z" transform="translate(-2966.75 -519)"/>
</svg>
