<svg xmlns="http://www.w3.org/2000/svg" width="98.03" height="90.938" viewBox="0 0 98.03 90.938">
  <defs>
    <style>
      .cls-1 {
        fill: #2d7ee1;
        fill-rule: evenodd;
      }
    </style>
  </defs>
  <path id="besuch_active" class="cls-1" d="M2932.38,779.829a3.659,3.659,0,0,0-2.61-1.075,3.7,3.7,0,0,0-2.62,1.076,3.646,3.646,0,0,0,.01,5.19l9.68,9.591a3.723,3.723,0,0,0,5.23,0l20.92-20.716a3.642,3.642,0,0,0,.01-5.187,3.714,3.714,0,0,0-5.23,0l-18.31,18.127Zm62.91-33.2a5.888,5.888,0,0,0-5.45-3.914,6.1,6.1,0,0,0,.01,12.191,5.543,5.543,0,0,0,3.94-1.655v14.5c0,6.175-4.67,11.209-10.41,11.22-5.74-.011-10.41-5.045-10.41-11.22V753.33a5.456,5.456,0,0,0,3.82,1.572,6.1,6.1,0,0,0-.01-12.191,5.765,5.765,0,0,0-5.39,3.914,6.034,6.034,0,0,0-3.66,5.644v15.475a17.012,17.012,0,0,0,4.01,11.006,15.321,15.321,0,0,0,8.99,5.254,37.152,37.152,0,1,1-49.61-35.984,9.36,9.36,0,1,0,8.1-14,9.358,9.358,0,0,0-9.36,8.718,42.484,42.484,0,0,0-20.54,14.922,41.631,41.631,0,0,0-8.33,25.067,42.666,42.666,0,0,0,72.57,30.012,41.8,41.8,0,0,0,12.62-28.8c7.38-1.435,12.84-8.261,12.84-16.2V752.269A6.143,6.143,0,0,0,2995.29,746.625Zm-5.46,1.35a0.839,0.839,0,1,1-.72.833A0.791,0.791,0,0,1,2989.83,747.975Zm-13.07,0a0.839,0.839,0,1,1-.72.833A0.791,0.791,0,0,1,2976.76,747.975Zm-41.72-4.648a4.18,4.18,0,1,1,4.18,4.141A4.183,4.183,0,0,1,2935.04,743.327Zm4.18,2.579a2.581,2.581,0,1,0-2.6-2.581A2.6,2.6,0,0,0,2939.22,745.906Z" transform="translate(-2901 -734.031)"/>
</svg>
