<svg xmlns="http://www.w3.org/2000/svg" width="39" height="39" viewBox="0 0 39 39">
  <defs>
    <style>
      .cls-1 {
        fill-rule: evenodd;
      }
    </style>
  </defs>
  <path id="clock" class="cls-1" d="M5289.5,16585a19.5,19.5,0,1,1,19.5-19.5A19.493,19.493,0,0,1,5289.5,16585Zm0-36.3a16.8,16.8,0,1,0,16.81,16.8A16.8,16.8,0,0,0,5289.5,16548.7Zm6.39,18.1h-6.39a1.341,1.341,0,0,1-1.35-1.3v-9.4a1.346,1.346,0,1,1,2.69,0v8.1h5.05A1.3,1.3,0,1,1,5295.89,16566.8Z" transform="translate(-5270 -16546)"/>
</svg>
