<svg xmlns="http://www.w3.org/2000/svg" width="39" height="39" viewBox="0 0 39 39">
  <metadata><?xpacket begin="﻿" id="W5M0MpCehiHzreSzNTczkc9d"?>
<x:xmpmeta xmlns:x="adobe:ns:meta/" x:xmptk="Adobe XMP Core 5.6-c142 79.160924, 2017/07/13-01:06:39        ">
   <rdf:RDF xmlns:rdf="http://www.w3.org/1999/02/22-rdf-syntax-ns#">
      <rdf:Description rdf:about=""/>
   </rdf:RDF>
</x:xmpmeta>
                                                                                                    
                                                                                                    
                                                                                                    
                                                                                                    
                                                                                                    
                                                                                                    
                                                                                                    
                                                                                                    
                                                                                                    
                                                                                                    
                                                                                                    
                                                                                                    
                                                                                                    
                                                                                                    
                                                                                                    
                                                                                                    
                                                                                                    
                                                                                                    
                                                                                                    
                                                                                                    
                           
<?xpacket end="w"?></metadata>
<defs>
    <style>
      .cls-1 {
        fill-rule: evenodd;
      }
    </style>
  </defs>
  <path id="datetime" class="cls-1" d="M2656.94,3271.87l-8.22-8.09v-11.79h-2.43v12.83l8.96,8.81Zm-10.33,9.58a14.543,14.543,0,0,1-1.48-.15,15.2,15.2,0,0,1-1.88-.36c-0.22-.05-0.43-0.13-0.64-0.2a16.809,16.809,0,0,1-7.07-4.25l-0.05.05a17.3,17.3,0,0,1,8.54-29.13l-0.48-2.41a19.724,19.724,0,0,0,3.89,39v-0.03c0.05,0,.1.02,0.15,0.02a19.162,19.162,0,0,0,10.69-3.25l-1.34-2.06A16.648,16.648,0,0,1,2646.61,3281.45Zm20.39-17.13c0-.36-0.08-0.71-0.1-1.07a14.22,14.22,0,0,0-.14-1.59c-0.07-.56-0.18-1.11-0.3-1.66a18.09,18.09,0,0,0-.47-1.75,12.876,12.876,0,0,0-.45-1.23,18.761,18.761,0,0,0-.93-2.04c-0.14-.25-0.28-0.5-0.42-0.74a19.986,19.986,0,0,0-1.49-2.18c-0.11-.14-0.23-0.28-0.34-0.41-0.35-.43-0.66-0.88-1.05-1.28l-0.09.09a19.437,19.437,0,0,0-9.9-5.46l-0.48,2.41a17.115,17.115,0,0,1,9.71,5.87c0.08,0.09.15,0.18,0.23,0.27a18.69,18.69,0,0,1,1.35,1.98c0.11,0.2.22,0.39,0.33,0.58a17.063,17.063,0,0,1,.85,1.84c0.13,0.35.26,0.69,0.37,1.04,0.17,0.51.3,1.04,0.42,1.57a13.635,13.635,0,0,1,.26,1.42c0.07,0.46.1,0.94,0.13,1.41a17.27,17.27,0,0,1-2.74,10.42l2.03,1.36a19.659,19.659,0,0,0,3.14-10.85H2667Z" transform="translate(-2628 -3245)"/>
</svg>
