<svg xmlns="http://www.w3.org/2000/svg" width="89" height="88.97" viewBox="0 0 89 88.97">
  <metadata><?xpacket begin="﻿" id="W5M0MpCehiHzreSzNTczkc9d"?>
<x:xmpmeta xmlns:x="adobe:ns:meta/" x:xmptk="Adobe XMP Core 5.6-c142 79.160924, 2017/07/13-01:06:39        ">
   <rdf:RDF xmlns:rdf="http://www.w3.org/1999/02/22-rdf-syntax-ns#">
      <rdf:Description rdf:about=""/>
   </rdf:RDF>
</x:xmpmeta>
                                                                                                    
                                                                                                    
                                                                                                    
                                                                                                    
                                                                                                    
                                                                                                    
                                                                                                    
                                                                                                    
                                                                                                    
                                                                                                    
                                                                                                    
                                                                                                    
                                                                                                    
                                                                                                    
                                                                                                    
                                                                                                    
                                                                                                    
                                                                                                    
                                                                                                    
                                                                                                    
                           
<?xpacket end="w"?></metadata>
<defs>
    <style>
      .cls-1 {
        fill: #2d7ee1;
        fill-rule: evenodd;
      }
    </style>
  </defs>
  <path id="datein-ov" class="cls-1" d="M4935.43,2513.37h-23.47v-1.78a9.8,9.8,0,0,0-9.79-9.79h-1.79a6.18,6.18,0,0,0-6.16-5.78,46.909,46.909,0,0,0-14.17,2.18l-24.08,7.22a9.753,9.753,0,0,0-6.98,9.38v51.07a9.775,9.775,0,0,0,6.22,9.12l19.54,8.59a22.4,22.4,0,0,0,7.9,1.43,6.18,6.18,0,0,0,6.17-6.17v-2.5h13.35c4.77,0,8.29-2.2,9.41-5.79h23.85a2.559,2.559,0,0,0,2.56-2.56v-52.06A2.559,2.559,0,0,0,4935.43,2513.37Zm-35.04,0v-6.45h1.78a4.669,4.669,0,0,1,4.67,4.67v1.78h-6.45Zm-5.12,8.34a1.034,1.034,0,0,1-.59.97l-6.76,1.85a6.184,6.184,0,0,0-4.22,5.86v48.45a1.061,1.061,0,0,1-1.06,1.06,17.107,17.107,0,0,1-5.96-1.06l-19.54-8.59a4.7,4.7,0,0,1-3.03-4.38V2514.8a4.632,4.632,0,0,1,3.33-4.47l24.08-7.23a41.993,41.993,0,0,1,12.7-1.97,1.058,1.058,0,0,1,1.05,1.06v19.52Zm-6.45,29.99,9.01-9.01,9.76,9.76a2.635,2.635,0,0,0,3.62,0l6.87-6.87,14.8,14.79v5.06h-44.06V2551.7Zm27.45-11.55-6.87,6.87-9.76-9.76a2.615,2.615,0,0,0-3.62,0l-7.2,7.2v-14.07a1.029,1.029,0,0,1,.59-0.96l6.76-1.86a6.152,6.152,0,0,0,4.22-5.86v-3.22h32.49v34.65l-12.99-12.99A2.559,2.559,0,0,0,4916.27,2540.15Zm-10.9,30.4a7.173,7.173,0,0,1-3.2.67h-13.35v-0.67h16.55Zm21.05-41.6a6.9,6.9,0,1,0-6.89,6.89A6.9,6.9,0,0,0,4926.42,2528.95Zm-8.67,0a1.78,1.78,0,1,1,1.78,1.78A1.771,1.771,0,0,1,4917.75,2528.95Z" transform="translate(-4849 -2496.03)"/>
</svg>
