<svg xmlns="http://www.w3.org/2000/svg" width="63" height="56" viewBox="0 0 63 56">
  <defs>
    <style>
      .cls-1 {
        fill: #303030;
        fill-rule: evenodd;
      }
    </style>
  </defs>
  <path id="date" class="cls-1" d="M2762.48,1556.39h-7.6v-2.19a2.175,2.175,0,1,0-4.35,0v2.19h-26.06v-2.19a2.175,2.175,0,1,0-4.35,0v2.19h-7.6a6.562,6.562,0,0,0-6.52,6.59v38.43a6.556,6.556,0,0,0,6.52,6.59h49.96a6.556,6.556,0,0,0,6.52-6.59v-38.43A6.562,6.562,0,0,0,2762.48,1556.39Zm-49.96,4.39h7.6v2.2a2.175,2.175,0,1,0,4.35,0v-2.2h26.06v2.2a2.175,2.175,0,1,0,4.35,0v-2.2h7.6a2.2,2.2,0,0,1,2.18,2.2v6.59h-54.32v-6.59A2.2,2.2,0,0,1,2712.52,1560.78Zm49.96,42.83h-49.96a2.2,2.2,0,0,1-2.18-2.2v-27.45h54.32v27.45A2.2,2.2,0,0,1,2762.48,1603.61Z" transform="translate(-2706 -1552)"/>
</svg>
