<svg xmlns="http://www.w3.org/2000/svg" width="33" height="32" viewBox="0 0 33 32">
  <metadata><?xpacket begin="﻿" id="W5M0MpCehiHzreSzNTczkc9d"?>
<x:xmpmeta xmlns:x="adobe:ns:meta/" x:xmptk="Adobe XMP Core 5.6-c142 79.160924, 2017/07/13-01:06:39        ">
   <rdf:RDF xmlns:rdf="http://www.w3.org/1999/02/22-rdf-syntax-ns#">
      <rdf:Description rdf:about=""/>
   </rdf:RDF>
</x:xmpmeta>
                                                                                                    
                                                                                                    
                                                                                                    
                                                                                                    
                                                                                                    
                                                                                                    
                                                                                                    
                                                                                                    
                                                                                                    
                                                                                                    
                                                                                                    
                                                                                                    
                                                                                                    
                                                                                                    
                                                                                                    
                                                                                                    
                                                                                                    
                                                                                                    
                                                                                                    
                                                                                                    
                           
<?xpacket end="w"?></metadata>
<defs>
    <style>
      .cls-1 {
        fill: #fff;
        fill-rule: evenodd;
      }
    </style>
  </defs>
  <path id="delete" class="cls-1" d="M4948.15,2985.27a2.707,2.707,0,0,1,0,3.92,2.911,2.911,0,0,1-4.03,0l-11.63-11.27-11.62,11.27a2.924,2.924,0,0,1-4.04,0,2.724,2.724,0,0,1,0-3.92l11.62-11.27-11.62-11.28a2.712,2.712,0,0,1,0-3.91,2.924,2.924,0,0,1,4.04,0l11.62,11.27,11.63-11.27a2.911,2.911,0,0,1,4.03,0,2.7,2.7,0,0,1,0,3.91L4936.53,2974Z" transform="translate(-4916 -2958)"/>
</svg>
