<svg xmlns="http://www.w3.org/2000/svg" width="33" height="32" viewBox="0 0 33 32">
  <defs>
    <style>
      .cls-1 {
        fill: #ff2b4e;
        fill-rule: evenodd;
      }
    </style>
  </defs>
  <path id="delete" class="cls-1" d="M4179.15,1692.27a2.707,2.707,0,0,1,0,3.92,2.868,2.868,0,0,1-2.02.81,2.9,2.9,0,0,1-2.02-.81l-11.62-11.28-11.62,11.28a2.924,2.924,0,0,1-4.04,0,2.707,2.707,0,0,1,0-3.92l11.62-11.27-11.62-11.28a2.7,2.7,0,0,1,0-3.91,2.924,2.924,0,0,1,4.04,0l11.62,11.27,11.62-11.27a2.924,2.924,0,0,1,4.04,0,2.7,2.7,0,0,1,0,3.91L4167.53,1681Z" transform="translate(-4147 -1665)"/>
</svg>
