<svg xmlns="http://www.w3.org/2000/svg" width="14.031" height="14" viewBox="0 0 14.031 14">  <metadata><?xpacket begin="﻿" id="W5M0MpCehiHzreSzNTczkc9d"?><x:xmpmeta xmlns:x="adobe:ns:meta/" x:xmptk="Adobe XMP Core 5.6-c138 79.159824, 2016/09/14-01:09:01        ">   <rdf:RDF xmlns:rdf="http://www.w3.org/1999/02/22-rdf-syntax-ns#">      <rdf:Description rdf:about=""/>   </rdf:RDF></x:xmpmeta>                                                                                                                                                                                                                                                                                                                                                                                                                                                                                                                                                                                                                                                                                                                                                                                                                                                                                                                                                                                                                                                                                                                                                                                                                                                                                                                                                                                                                                                                                                                                                                                                                                                                                                                                                                                                                                                                                                                                                                                                                                                                                                           <?xpacket end="w"?></metadata><defs>    <style>      .cls-1 {        fill: #7e7689;        fill-rule: evenodd;      }    </style>  </defs>  <path id="Shape_13_copy" data-name="Shape 13 copy" class="cls-1" d="M242.742,788a0.9,0.9,0,0,1-.618-0.244l-3.879-3.688a0.8,0.8,0,0,1,0-1.179,0.907,0.907,0,0,1,1.238,0l3.26,3.1,7.76-7.377a0.908,0.908,0,0,1,1.239,0,0.806,0.806,0,0,1,0,1.179l-8.379,7.966A0.9,0.9,0,0,1,242.742,788Zm0-4.379a0.894,0.894,0,0,1-.618-0.244l-3.879-3.687a0.8,0.8,0,0,1,0-1.179,0.907,0.907,0,0,1,1.238,0l3.26,3.1,7.76-7.378a0.908,0.908,0,0,1,1.239,0,0.806,0.806,0,0,1,0,1.179l-8.379,7.965A0.9,0.9,0,0,1,242.742,783.621Z" transform="translate(-238 -774)"/></svg>