<svg xmlns="http://www.w3.org/2000/svg" width="31" height="30" viewBox="0 0 31 30">
  <metadata><?xpacket begin="﻿" id="W5M0MpCehiHzreSzNTczkc9d"?>
<x:xmpmeta xmlns:x="adobe:ns:meta/" x:xmptk="Adobe XMP Core 5.6-c142 79.160924, 2017/07/13-01:06:39        ">
   <rdf:RDF xmlns:rdf="http://www.w3.org/1999/02/22-rdf-syntax-ns#">
      <rdf:Description rdf:about=""/>
   </rdf:RDF>
</x:xmpmeta>
                                                                                                    
                                                                                                    
                                                                                                    
                                                                                                    
                                                                                                    
                                                                                                    
                                                                                                    
                                                                                                    
                                                                                                    
                                                                                                    
                                                                                                    
                                                                                                    
                                                                                                    
                                                                                                    
                                                                                                    
                                                                                                    
                                                                                                    
                                                                                                    
                                                                                                    
                                                                                                    
                           
<?xpacket end="w"?></metadata>
<defs>
    <style>
      .cls-1 {
        fill: #fff;
        fill-rule: evenodd;
      }
    </style>
  </defs>
  <path id="filter_ov" class="cls-1" d="M2953.86,3123.72a1.413,1.413,0,0,0-1.24-.72h-28.23a1.413,1.413,0,0,0-1.24.72,1.3,1.3,0,0,0,.15,1.4l10.98,15.62v10.32a1.851,1.851,0,0,0,1.86,1.94h4.73a1.851,1.851,0,0,0,1.86-1.94v-10.32l10.98-15.62A1.3,1.3,0,0,0,2953.86,3123.72Zm-13.63,15.84a1.389,1.389,0,0,0-.32.76v9.95h-2.81v-9.95a1.389,1.389,0,0,0-.32-0.76l-3.34-4.74a7.96,7.96,0,0,1,2.47-.38,10.182,10.182,0,0,1,2.63.4,11.217,11.217,0,0,0,2.87.43,15.9,15.9,0,0,0,1.91-.09Zm5.16-7.29h-0.03a10.082,10.082,0,0,1-3.92.62,9.467,9.467,0,0,1-2.29-.36,12.777,12.777,0,0,0-3.23-.48,11.811,11.811,0,0,0-3.95.72l-4.92-7.04h22.91Zm-2.91-2.25a1.349,1.349,0,0,1-.42-0.96,1.39,1.39,0,0,1,.42-0.97,1.438,1.438,0,0,1,1.99,0,1.349,1.349,0,0,1,.42.97,1.31,1.31,0,0,1-.42.96,1.443,1.443,0,0,1-.99.4A1.468,1.468,0,0,1,2942.48,3130.02Z" transform="translate(-2923 -3123)"/>
</svg>
