<svg xmlns="http://www.w3.org/2000/svg" width="61" height="73" viewBox="0 0 61 73">
  <defs>
    <style>
      .cls-1 {
        fill: #303030;
        fill-rule: evenodd;
      }
    </style>
  </defs>
  <path id="location" class="cls-1" d="M2736.35,1288a2.523,2.523,0,0,1-1.78-.74l-19.9-19.9a0.236,0.236,0,0,0-.05-0.05,31.44,31.44,0,0,1,0-43.28l0.05-.05a30.667,30.667,0,0,1,43.36,43.38l-19.9,19.9A2.523,2.523,0,0,1,2736.35,1288Zm-18.1-24.18,18.1,18.1,18.12-18.12a25.633,25.633,0,0,0-36.22-36.28A26.417,26.417,0,0,0,2718.25,1263.82Zm18.1-5.35a12.59,12.59,0,1,1,12.58-12.59A12.6,12.6,0,0,1,2736.35,1258.47Zm0-20.14a7.55,7.55,0,1,0,7.55,7.55A7.563,7.563,0,0,0,2736.35,1238.33Z" transform="translate(-2706 -1215)"/>
</svg>
