<svg xmlns="http://www.w3.org/2000/svg" width="48" height="51" viewBox="0 0 48 51">
  <defs>
    <style>
      .cls-1 {
        fill: #2d7ee1;
        fill-rule: evenodd;
      }
    </style>
  </defs>
  <path id="pdf1G" class="cls-1" d="M4488,5620.49v-16.01c0.73-1.88,2.33-2.37,4.33-2.16,0-5.26.02-10.36-.02-15.47a2.756,2.756,0,0,1,1.6-2.85h26.62c2.72,2.93,5.28,6.01,8.21,8.75,2.25,2.1,3.3,4.35,2.85,7.27a17.206,17.206,0,0,0-.01,2.39c2.46-.4,3.87.44,4.42,2.5v15.36c-0.61,2.09-2.24,2.73-4.42,2.57,0,3.26-.03,6.38.01,9.5a2.444,2.444,0,0,1-1.73,2.66h-35.95a2.659,2.659,0,0,1-1.6-2.86c0.07-.84.02-1.7,0.02-2.55v-6.77C4490.21,5623.02,4488.72,5622.34,4488,5620.49Zm6.43-18.16h33.14a6.838,6.838,0,0,0,1.36-.03,0.9,0.9,0,0,0,.63-0.52c0.05-1.48.03-2.96,0.03-4.56h-1.23c-2.54,0-5.07.01-7.61,0-1.39,0-1.6-.2-1.6-1.46-0.01-2.88,0-5.76-.01-8.64,0-.37-0.03-0.75-0.05-1.12h-24.66v16.33Zm0.03,20.53v9.51h35.05v-9.51h-35.05Zm12.03-2.42c2.39,0,4.73.18,7.03-.05a7.444,7.444,0,0,0,5.69-3.07,8.423,8.423,0,0,0,1.34-5.16,6.615,6.615,0,0,0-5.36-6.4,24.235,24.235,0,0,0-7.65-.25c-0.89.08-1.14,0.3-1.13,1.13,0.04,4.26.02,8.52,0.02,12.78C4506.43,5619.73,4506.47,5620.04,4506.49,5620.44Zm-10.04,0v-5.16a27.456,27.456,0,0,0,3.76-.39c2.89-.71,4.09-2.5,4.05-4.94s-1.61-4.09-4.33-4.37c-2.05-.21-4.14-0.02-6.21-0.04a0.773,0.773,0,0,0-.96.93c0.03,4.48.02,8.96,0.02,13.43a3.926,3.926,0,0,0,.08.54h3.59Zm26.41-.01h3.61v-5.97h5.61v-2.87h-5.55v-3.31h5.99v-2.73h-9.66v14.88Zm-12.64-12.27c2.21-.2,4.38-0.27,5.65,1.71a5.35,5.35,0,0,1-.08,6.05c-1.22,1.95-3.32,2.1-5.57,1.97v-9.73Zm-13.75,4.27v-4.28c1.4-.23,2.82-0.44,3.77.77a2.026,2.026,0,0,1-.08,2.59C4499.24,5612.62,4497.92,5612.65,4496.47,5612.43Z" transform="translate(-4488 -5584)"/>
</svg>
