<svg xmlns="http://www.w3.org/2000/svg" width="36" height="36" viewBox="0 0 36 36">
  <defs>
    <style>
      .cls-1 {
        fill: #2d7ee1;
        fill-rule: evenodd;
      }
    </style>
  </defs>
  <path id="plus" class="cls-1" d="M3327.56,3336.71a2.246,2.246,0,0,1-2.29,2.29,2.382,2.382,0,0,1-1.65-.71,2.426,2.426,0,0,1-.71-1.65l-0.2-13.36-13.36-.21a2.313,2.313,0,0,1-1.65-.7,2.382,2.382,0,0,1-.71-1.65,2.246,2.246,0,0,1,2.29-2.29l13.36,0.21-0.2-13.36a2.232,2.232,0,0,1,2.28-2.29,2.418,2.418,0,0,1,2.36,2.36l0.2,13.36,13.36,0.2a2.418,2.418,0,0,1,2.36,2.36,2.232,2.232,0,0,1-2.29,2.28l-13.36-.2Z" transform="translate(-3307 -3303)"/>
</svg>
