<svg xmlns="http://www.w3.org/2000/svg" width="31" height="30" viewBox="0 0 31 30">
  <metadata><?xpacket begin="﻿" id="W5M0MpCehiHzreSzNTczkc9d"?>
<x:xmpmeta xmlns:x="adobe:ns:meta/" x:xmptk="Adobe XMP Core 5.6-c142 79.160924, 2017/07/13-01:06:39        ">
   <rdf:RDF xmlns:rdf="http://www.w3.org/1999/02/22-rdf-syntax-ns#">
      <rdf:Description rdf:about=""/>
   </rdf:RDF>
</x:xmpmeta>
                                                                                                    
                                                                                                    
                                                                                                    
                                                                                                    
                                                                                                    
                                                                                                    
                                                                                                    
                                                                                                    
                                                                                                    
                                                                                                    
                                                                                                    
                                                                                                    
                                                                                                    
                                                                                                    
                                                                                                    
                                                                                                    
                                                                                                    
                                                                                                    
                                                                                                    
                                                                                                    
                           
<?xpacket end="w"?></metadata>
<defs>
    <style>
      .cls-1 {
        fill: #fff;
        fill-rule: evenodd;
      }
    </style>
  </defs>
  <path id="print_ov" class="cls-1" d="M2729.64,3128.05h-6.74v-4.04a0.883,0.883,0,0,0-.85-1.01h-13.11a0.89,0.89,0,0,0-.86,1.01v4.04h-6.73a1.328,1.328,0,0,0-1.35,1.33v15.46a1.406,1.406,0,0,0,1.35,1.42h4.93l-0.8,5.24a1.371,1.371,0,0,0,.27,1.02,1.246,1.246,0,0,0,.89.48h17.7a1.291,1.291,0,0,0,.9-0.5,1.207,1.207,0,0,0,.27-0.95l-0.8-5.29h4.93a1.406,1.406,0,0,0,1.35-1.42v-15.46A1.328,1.328,0,0,0,2729.64,3128.05Zm-19.54-3.03h10.78v3.03H2710.1v-3.03Zm-2.08,25.62,1.28-8.43h12.39l1.28,8.43h-14.95Zm20.27-7.08h-3.99l-0.43-2.75a1.146,1.146,0,0,0-1.16-.96h-14.43a1.139,1.139,0,0,0-1.16.96l-0.43,2.75h-4v-12.81h25.6v12.81Zm-22.12-9.44a1.007,1.007,0,0,1,1.01-1.01h3.17a1.01,1.01,0,1,1,0,2.02h-3.17A1.007,1.007,0,0,1,2706.17,3134.12Z" transform="translate(-2700 -3123)"/>
</svg>
