<svg xmlns="http://www.w3.org/2000/svg" width="44.69" height="36" viewBox="0 0 44.69 36">
  <defs>
    <style>
      .cls-1 {
        fill: #1470e0;
        fill-rule: evenodd;
      }
    </style>
  </defs>
  <path id="sorting_arrows" class="cls-1" d="M2472.83,2855.61l-7.73,8.21v-26.44a1.7,1.7,0,1,0-3.39,0v26.44l-7.73-8.21a1.618,1.618,0,0,0-2.4,0,1.9,1.9,0,0,0,0,2.56l10.62,11.3a1.635,1.635,0,0,0,2.41,0l10.62-11.3a1.9,1.9,0,0,0,0-2.56A1.618,1.618,0,0,0,2472.83,2855.61Zm22.44-9.78-10.63-11.3a1.623,1.623,0,0,0-2.4,0l-10.62,11.3a1.892,1.892,0,0,0,0,2.56,1.618,1.618,0,0,0,2.4,0l7.72-8.21v26.44a1.7,1.7,0,1,0,3.4,0v-26.44l7.73,8.21a1.618,1.618,0,0,0,2.4,0A1.9,1.9,0,0,0,2495.27,2845.83Z" transform="translate(-2451.09 -2834)"/>
</svg>