<svg xmlns="http://www.w3.org/2000/svg" width="40" height="40" viewBox="0 0 40 40">
  <metadata><?xpacket begin="﻿" id="W5M0MpCehiHzreSzNTczkc9d"?>
<x:xmpmeta xmlns:x="adobe:ns:meta/" x:xmptk="Adobe XMP Core 5.6-c142 79.160924, 2017/07/13-01:06:39        ">
   <rdf:RDF xmlns:rdf="http://www.w3.org/1999/02/22-rdf-syntax-ns#">
      <rdf:Description rdf:about=""/>
   </rdf:RDF>
</x:xmpmeta>
                                                                                                    
                                                                                                    
                                                                                                    
                                                                                                    
                                                                                                    
                                                                                                    
                                                                                                    
                                                                                                    
                                                                                                    
                                                                                                    
                                                                                                    
                                                                                                    
                                                                                                    
                                                                                                    
                                                                                                    
                                                                                                    
                                                                                                    
                                                                                                    
                                                                                                    
                                                                                                    
                           
<?xpacket end="w"?></metadata>
<defs>
    <style>
      .cls-1 {
        fill: #5b5b5b;
        fill-rule: evenodd;
      }
    </style>
  </defs>
  <path id="tag" class="cls-1" d="M4348.18,2812.91a2.725,2.725,0,1,0,2.73,2.73A2.734,2.734,0,0,0,4348.18,2812.91Zm0,3.64a0.91,0.91,0,1,1,.91-0.91A0.913,0.913,0,0,1,4348.18,2816.55Zm10.91,10.9a0.907,0.907,0,0,0,.64-0.26l1.82-1.82a0.875,0.875,0,0,0,.27-0.64,0.912,0.912,0,0,0-1.55-.65l-1.82,1.82A0.905,0.905,0,0,0,4359.09,2827.45Zm-4.54,2.73a0.905,0.905,0,0,0,1.55.64l0.91-.9a0.95,0.95,0,0,0,.26-0.65,0.905,0.905,0,0,0-1.55-.64l-0.91.91A0.907,0.907,0,0,0,4354.55,2830.18Zm4.54,4.55a0.875,0.875,0,0,0,.64-0.27l3.64-3.64a0.909,0.909,0,1,0-1.29-1.28l-3.63,3.64a0.875,0.875,0,0,0-.27.64A0.913,0.913,0,0,0,4359.09,2834.73Zm20.64-14.28-18.18-18.18a0.875,0.875,0,0,0-.64-0.27h-12.73a2.734,2.734,0,0,0-2.73,2.73,0.91,0.91,0,0,0,1.82,0,0.913,0.913,0,0,1,.91-0.91h12.35l17.28,17.27-2.09,2.09a0.909,0.909,0,1,0,1.29,1.28l2.72-2.73A0.894,0.894,0,0,0,4379.73,2820.45Zm-23.63-12.73a0.94,0.94,0,0,0-.65-0.27h-12.72a2.734,2.734,0,0,0-2.73,2.73v12.73a0.875,0.875,0,0,0,.27.64l18.18,18.18a0.894,0.894,0,0,0,1.28,0l14.55-14.54a0.905,0.905,0,0,0,0-1.29Zm2.99,32.09-17.27-17.28v-12.35a0.907,0.907,0,0,1,.91-0.91h12.35l17.27,17.28Z" transform="translate(-4340 -2802)"/>
</svg>
