<svg xmlns="http://www.w3.org/2000/svg" width="40" height="35" viewBox="0 0 40 35">
  <metadata><?xpacket begin="﻿" id="W5M0MpCehiHzreSzNTczkc9d"?>
<x:xmpmeta xmlns:x="adobe:ns:meta/" x:xmptk="Adobe XMP Core 5.6-c142 79.160924, 2017/07/13-01:06:39        ">
   <rdf:RDF xmlns:rdf="http://www.w3.org/1999/02/22-rdf-syntax-ns#">
      <rdf:Description rdf:about=""/>
   </rdf:RDF>
</x:xmpmeta>
                                                                                                    
                                                                                                    
                                                                                                    
                                                                                                    
                                                                                                    
                                                                                                    
                                                                                                    
                                                                                                    
                                                                                                    
                                                                                                    
                                                                                                    
                                                                                                    
                                                                                                    
                                                                                                    
                                                                                                    
                                                                                                    
                                                                                                    
                                                                                                    
                                                                                                    
                                                                                                    
                           
<?xpacket end="w"?></metadata>
<defs>
    <style>
      .cls-1 {
        fill: #146edc;
        fill-rule: evenodd;
      }
    </style>
  </defs>
  <path id="upload" class="cls-1" d="M4931,2707.41a1.383,1.383,0,0,1-1.38-1.38v-23.66a1.38,1.38,0,0,1,2.76,0v23.66A1.383,1.383,0,0,1,4931,2707.41Zm15.86,8.6h-31.72a4.146,4.146,0,0,1-4.14-4.13v-18.57a1.38,1.38,0,1,1,2.76,0v18.57a1.374,1.374,0,0,0,1.38,1.37h31.72a1.374,1.374,0,0,0,1.38-1.37v-18.57a1.38,1.38,0,1,1,2.76,0v18.57A4.146,4.146,0,0,1,4946.86,2716.01Zm-5.03-21.46a1.378,1.378,0,0,1-.98-0.41l-9.85-9.82-9.85,9.82a1.375,1.375,0,1,1-1.95-1.94l10.82-10.8a1.376,1.376,0,0,1,.98-0.4,1.336,1.336,0,0,1,.97.4l10.83,10.8A1.38,1.38,0,0,1,4941.83,2694.55Z" transform="translate(-4911 -2681)"/>
</svg>
