<svg xmlns="http://www.w3.org/2000/svg" width="62.94" height="74" viewBox="0 0 62.94 74">
  <defs>
    <style>
      .cls-1 {
        fill: #303030;
        fill-rule: evenodd;
      }
    </style>
  </defs>
  <path id="user" class="cls-1" d="M2734.97,1093.62c-11.91,0-21.6-9.33-21.6-20.81s9.69-20.81,21.6-20.81,21.59,9.34,21.59,20.81S2746.87,1093.62,2734.97,1093.62Zm0-37c-9.27,0-16.8,7.26-16.8,16.19s7.53,16.19,16.8,16.19,16.79-7.26,16.79-16.19S2744.23,1056.62,2734.97,1056.62Zm32.01,69.38h-62.96l2.85-24.76,13.34-5.14,1.78,4.29-10.67,4.11-1.94,16.87h52.24l-1.95-16.87-10.66-4.11,1.78-4.29,13.33,5.14Z" transform="translate(-2704.03 -1052)"/>
</svg>
