<svg xmlns="http://www.w3.org/2000/svg" width="101.97" height="90.97" viewBox="0 0 101.97 90.97">
  <metadata><?xpacket begin="﻿" id="W5M0MpCehiHzreSzNTczkc9d"?>
<x:xmpmeta xmlns:x="adobe:ns:meta/" x:xmptk="Adobe XMP Core 5.6-c142 79.160924, 2017/07/13-01:06:39        ">
   <rdf:RDF xmlns:rdf="http://www.w3.org/1999/02/22-rdf-syntax-ns#">
      <rdf:Description rdf:about=""/>
   </rdf:RDF>
</x:xmpmeta>
                                                                                                    
                                                                                                    
                                                                                                    
                                                                                                    
                                                                                                    
                                                                                                    
                                                                                                    
                                                                                                    
                                                                                                    
                                                                                                    
                                                                                                    
                                                                                                    
                                                                                                    
                                                                                                    
                                                                                                    
                                                                                                    
                                                                                                    
                                                                                                    
                                                                                                    
                                                                                                    
                           
<?xpacket end="w"?></metadata>
<defs>
    <style>
      .cls-1 {
        fill: #2d7ee1;
        fill-rule: evenodd;
      }
    </style>
  </defs>
  <path id="verlauf" class="cls-1" d="M2720.32,2514.15a45.249,45.249,0,0,0-82.32,18.04l-6.27-9.38a3.12,3.12,0,0,0-5.18,3.48l11.2,16.75a3.111,3.111,0,0,0,2.59,1.39,3.178,3.178,0,0,0,1.74-.53l16.68-11.24a3.133,3.133,0,0,0,.85-4.34,3.1,3.1,0,0,0-2.59-1.39,3.053,3.053,0,0,0-1.73.54l-11.43,7.69a39.031,39.031,0,0,1,71.28-17.53,39.375,39.375,0,0,1-10.67,54.44,38.969,38.969,0,0,1-54.23-10.72,3.123,3.123,0,1,0-5.18,3.49,45.245,45.245,0,0,0,37.67,20.14h0.01a45,45,0,0,0,25.21-7.72A45.647,45.647,0,0,0,2720.32,2514.15Zm-38.88,31.42c0.75,0.31,15.52,5.72,15.52,5.72h0.19a3.123,3.123,0,0,0,.2-6.24l-11.54-3.98V2516.1a3.12,3.12,0,0,0-6.24,0v27.15A2.546,2.546,0,0,0,2681.44,2545.57Z" transform="translate(-2626.03 -2494)"/>
</svg>
