<?xml version="1.0" encoding="utf-8"?>
<!-- Generator: Adobe Illustrator 18.0.0, SVG Export Plug-In . SVG Version: 6.00 Build 0)  -->
<!DOCTYPE svg PUBLIC "-//W3C//DTD SVG 1.1//EN" "http://www.w3.org/Graphics/SVG/1.1/DTD/svg11.dtd">
<svg version="1.1" id="Layer_1" xmlns="http://www.w3.org/2000/svg" xmlns:xlink="http://www.w3.org/1999/xlink" x="0px" y="0px"
	 viewBox="0 0 59 59" enable-background="new 0 0 59 59" xml:space="preserve">
<g>
	<circle fill="#E9F1F7" cx="29.5" cy="29.5" r="29.5"/>
	<path fill="#949FA6" d="M9.1,25.6h15.7c1.5,0,1.5,3.9,0,3.9H9.1C7.6,29.5,7.6,25.6,9.1,25.6z"/>
	<path fill="#949FA6" d="M34.3,25.6H50c1.5,0,1.5,3.9,0,3.9H34.3C32.8,29.5,32.8,25.6,34.3,25.6z"/>
	<path fill="#949FA6" d="M38.3,45.8c-5.7-4.7-12-4.7-17.7,0c-0.7,0.6-1.3-0.4-0.8-1.3c1.7-3.3,5.2-6.4,9.6-6.4c4.4,0,7.9,3,9.6,6.4
		C39.6,45.4,39,46.4,38.3,45.8z"/>
</g>
</svg>
